<mxfile host="app.diagrams.net" agent="Mozilla/5.0 (Windows NT 10.0; Win64; x64) AppleWebKit/537.36 (KHTML, like Gecko) Chrome/127.0.0.0 Safari/537.36" version="24.7.7">
  <diagram name="Page-1" id="mh9dYgAqGnaUNPAW8kP4">
    <mxGraphModel dx="1905" dy="1039" grid="0" gridSize="10" guides="1" tooltips="1" connect="1" arrows="1" fold="1" page="0" pageScale="1" pageWidth="827" pageHeight="1169" math="0" shadow="0">
      <root>
        <mxCell id="0" />
        <mxCell id="1" parent="0" />
        <mxCell id="rgU8As-WHPMnj6fXVGss-2" value="" style="shape=image;verticalLabelPosition=bottom;labelBackgroundColor=default;verticalAlign=top;aspect=fixed;imageAspect=0;image=data:image/jpeg,/9j/4AAQSkZJRgABAQAAAQABAAD/4gHYSUNDX1BST0ZJTEUAAQEAAAHIAAAAAAQwAABtbnRyUkdCIFhZWiAH4AABAAEAAAAAAABhY3NwAAAAAAAAAAAAAAAAAAAAAAAAAAAAAAAAAAAAAQAA9tYAAQAAAADTLQAAAAAAAAAAAAAAAAAAAAAAAAAAAAAAAAAAAAAAAAAAAAAAAAAAAAAAAAAAAAAAAAAAAAlkZXNjAAAA8AAAACRyWFlaAAABFAAAABRnWFlaAAABKAAAABRiWFlaAAABPAAAABR3dHB0AAABUAAAABRyVFJDAAABZAAAAChnVFJDAAABZAAAAChiVFJDAAABZAAAAChjcHJ0AAABjAAAADxtbHVjAAAAAAAAAAEAAAAMZW5VUwAAAAgAAAAcAHMAUgBHAEJYWVogAAAAAAAAb6IAADj1AAADkFhZWiAAAAAAAABimQAAt4UAABjaWFlaIAAAAAAAACSgAAAPhAAAts9YWVogAAAAAAAA9tYAAQAAAADTLXBhcmEAAAAAAAQAAAACZmYAAPKnAAANWQAAE9AAAApbAAAAAAAAAABtbHVjAAAAAAAAAAEAAAAMZW5VUwAAACAAAAAcAEcAbwBvAGcAbABlACAASQBuAGMALgAgADIAMAAxADb/2wBDAAMCAgICAgMCAgIDAwMDBAYEBAQEBAgGBgUGCQgKCgkICQkKDA8MCgsOCwkJDRENDg8QEBEQCgwSExIQEw8QEBD/2wBDAQMDAwQDBAgEBAgQCwkLEBAQEBAQEBAQEBAQEBAQEBAQEBAQEBAQEBAQEBAQEBAQEBAQEBAQEBAQEBAQEBAQEBD/wAARCAJBBFcDASIAAhEBAxEB/8QAHgABAAMBAQEBAQEBAAAAAAAAAAcICQYFBAMCAQr/xABuEAAABQMDAQIEDQwNCAYHBQkAAQIDBAUGBwgREiETFAkVIjEWFxgZMjhBUVd2pabUIzZWYWh1haSztLXkKCkzN0JHWHGBlsXS0yRJZ4aHkZXEJVJicnexNDVDdKGy0TlTc8HwJkVIVGSCg5SX/8QAHAEBAAEFAQEAAAAAAAAAAAAAAAMBAgQFBwYI/8QAWxEAAQMBBAQHBg0PDAMBAQEAAQACEQMEEiExBQZBURMiYXGBkaEHFhcyscEUFVJTVFVWkqLR0tPUIzM0NTZCZXJzdIKDk+HwGDdDRUZHYmNko7KzCMLxhCRE/9oADAMBAAIRAxEAPwDVMAAEQAAEQAAEQAAEQAAEQAAEQAAEQAAEQAAEQAAEQAAEQAAEQAAEQAAEQAAEQAAEQAAEQAAEQAAEQAAEQAAEQAAEQAAEQAAEQAAEQAAEQAAEQAAEQAAEQAAEQAAEQAAEQAAEQAAEQAAEQAAEQAAEQAAEQAAEQAAEQAAEQAAEQAAEQAAEQAAEQAAEQAAEQAAEQAAEQAAEQAAEQAAEQAAEQAAEQAAEQAAEQAAEQAAEQAAEQAAEQAAEQAAEQAAEQAAEQAAEQAAEQAAEQAAEQAAEQAAEQAAEQAAEQAAEQAAEQAAEQAAEQAAEQAAEQAAEQAAEQAAEQAAEQAAEQAAEQAAEQAAEQAAEQAAEQAAEQAAEQAAEQAAEQAAEQAAEQAAEQAAEQAAEQAAEQAAEQAAEQAAEQAAEQAAEQAAEQAAEQAAEQAAEQAAEQAAEQAAEQAAEQAAEQAAEQAAEQAAEQAAEQAAEQAAEQAAEQAAEQAAEQAAEQAAEQAAEQAAEQAAEQAAEQAAEQAAEQAAEQAAEQAAEQAAEQAAEQAAEQAAEQAAEQAAEQAAEQAAEQAAEQAAEQAAEQAAEQAAEQAAEQAAEQAAEQAAEQAAEQAAEQAAEQAAEQAAEX8qUZGkiQauR7GZbeT0Pqf8A5dPfH9AAIgAAIgAAIgAAIgAAIgAAIgAAIgAAIgAAIgAAIgAAIgAAIgAAIgAAIgAAIgAAIgAAIgAAIgAAIgAAIgAAIgAAIgAAIgAAIgAAIgAAIgAAIgAAIgAAIgAAIgAAIgAAIgAAIgAAIgAAIgAAIgAAIgAAIgAAIgAAIgAAIgAAIgAAIgAAIgAAIgAAIgAAIgAAIgAAIgAAIgAAIgAAIgAAIgAAIgAAIgAAIgAAIgAAIgAAIgAAIgAAIgD+VrQ2hTjiyShJGpSlHsREXnMzH5Q5sOoxkTafLZlR3NzQ6y4S0K2PY9lF0PqRkLb7b1ycc42wq3TF6MF+4APJrFyQaJUKXTZbT63au+cdg20kaUqIt91bmWxfzbiOvaKVlZwlZ0CQOlxDQOkkDpV9Kk+s65TEnHsEnsXrAPJo1yQa5OqlPiNPocpMjuz5uJIkqVtvunYz3L+fYesFntFK1UxVoulpnHmMHtCVaT6LrlQQcO0SOxAABMo0AebU7jo1HnQKbUZnYyao4bURHZrV2ii23LciMi9kXn2849IRU69Kq5zKbgS0w4AgkGAYO4wQYOwg7Ve6m9jQ5wIByO/ZhvxwQAASqxAHzx6hAlvvxYs6O89FMkvttupUpoz8xKIj3SZ7H5x9AtY9tQXmGRyKrmlphwhAABcqIAD501CAucqmInR1TENk6qOTqTdSjfbkad9yLf3dha57WEBxicBylVDS6YGS+gAAXKiAAAiAAAiAAAiAAAiAAAiAAAiAAAiAAAiAAAiAAAiAAAiAAAiAAAiAAAiAAAiAAAiAAAiAAAiAAAiAAAiAAAiAAAiAAAiAAAiAAAiAAAiAAAiAAAiAAAiAAAiAAAiAAAiAAAiAAAiAAAiAAAiAAAiAAAiAAAiAAAiAAAiAAAiAAAiAAAiAAAiAAAiAAAiAAAiAAAiAAAiAAAiAAAiAAAiAAAiAAAiAAAiAAAiAAAi4ms3jcc25n7RsemwX5UFtLk2XPWsmGeRbpRsjyjMy283+7oY/yfeVz2vRVvXTQ4b1TdktxIDdPfM25jiy6EXLykbbHvuPJOrM44vqvz7jafapFe7F9ichlTjaHEJMjbXxIzI9zPbp7w/G6K25ecKDdNsUidMi23VWJRGbKkHMbLfmbSTLc+PT7fn6dOvMKmmKzaFeobU4WsOeDSEG5TFSLwp3SYbT44eZDjvBur19OwU3PpN4EGgQ038cXEAkXpgS7iluwY8q9KTdt/2p3apXvSqKqkvuoZdcpzjnaxDWexKWS+ii3PY+P+/zb/vUbuvB28qhaduUqmyOwisvtvyVqQhrl51OGRmai8xElJEf2+g8O8bzo+R6IVm2ecibOqTrJPbxloTEbSslKU4aiIi247dN/wDy39mgtk1lqutEe5IpURO/8wup26tarYyyWK2OfZ3VWAVAWuJJo13PYH3SCAWMM4kFxAIgRU2anSour2mgG1Q1xuEECA5ga4iZGbhuIHX+TN03dUoFy21Oh0liv0plK+aTdOI6y4nc1F/CI+O+32zL7Y8rFlQuyk2VAqlRXREWxEjyHlqSTxzSSlTh/wDc9kX+77Y9SnMKk5MvSMj2TtNioL+c29h4Fo1Sl1bHi8WKkOxrjOLKY7o8w4kyWSlrLdW3Ei2285jWttVdtsZaqtd3CtZaadOXAcI+lXLWMIwvOcA28Bi6JWQadN1lfSp0xdcaLnQJutdTJc4bgDkchK92PdWUanTPRVTbboqaUpPbtQn3nO+usl13JReQRmXUty/oP3fwrteh3PPx7XYHImZdQWskq9kg+Gykn9sjIy/oH8UjKdEotsxqDU4k9ivwYqIniw4jhuOOISSU8TIuOytiPz+b/wCPmQqBNtqJjil1FHCUVSeddR08hSyNXHp725F/OJamkDaWspWe0m0UybO55MG5U9EUQG4AXS4F5LD4t0YCTNadkbSqF1SiKZBeGRPGbwb5OJN4CG8YZzmdnrUGvQ7YlZArk4lKai1MlcE+yWo0kSUl9s1GRf0j6pdyZUpVOcuap2/QiprKDkPQW33e+NNF1PdR/UzURdT2/wBw52bb825afkWmU5vtZPjZt5tvlt2ho2Uaf5zIjIvt7Dz0JwKiMSZdr1FmqEnZVMMpneOf/ULyuO/vbqL+ga46U0hZqLaNOu2iwNJYX1ODDnmpUn+hqcIRDfqcgwcjeBE/oOzVnGo6majpaHAMvkN4NkffsuzJ40HLMRj3Vbv2rs1636fbVLj1FiuQ3JSEuKNtfseST5GeySIup+SZ7Ee3UdRQPRH3E/RQVNKZ2itigG4bXZ9NvZ9d/Pv7g4NTTLGQrCajQXYTSaTIJEZ1SjWyXYnshRq67l5uvXoJOHQtX32i12i017RVcbtQtDfvQLjDgIDsyYk4bhivNaVZRs9KjTpMAvNkn77x3gbYyAy68lzd0XJOolat2mxGmFtVeYqO+biTNSUknfdOxlsf8+48Ni7b+rVartFt2k0f/ouZ2KZcxbiW0o23JKkpM1LUfXqWxF9vcftkD66rJ++a/wD5Ax79ct7ffYv/AJBqa1otdr0y+wiu5jOFI4pAN0Wem+ASDAvEnDHHArLo0aFHR4tJphzgycZz4W7OY2YL8o+TZEaz6zW63S0JqVBkqhSY7KzJtb3IkpNKj6kkzUXvmWxj7KVNysuREk1Sm205BkKR2iIrzpPNNqMt1bq8hWxHv08+3Qc3SZUGJGv1dUoj9VhKrq0SIzLfaLNszLdRJ/7Psvc2233LYeLCkW6zW6S3iKt1x15U1vvdP+rHEbjnvzNZOEW23v7n/v2MaOnp+1B9lfarQXS1guNc1tQuvuaXXCyKocLshpF2DxRMrZDRtF4qtpUgMZvFpcwAsaYkOlkEmCQZkY4L7bQ9Mn0X3Z4r9DXeu9Md/wC8d47Pfirj2XHrttvvy93YdI1eF81a4rgt6gUikrOlvtttSpTi0NtpNJn9UJJmpaj26cSSRbHuPNp9yUexcgXU3dDz0JNXejPQnDjrWh5JJMj2NBH5jVsPTsD6+78/98jf/IsXaDlos+jqFreHGrWbUaHAubHCkAgglt6Jyk5g7Vbb4fwlqqUWlopUy0wYJ+pA4zjdkiNmRXrUa5KvKvKfa9RahkmDT48hS2Uq3N1ZFzIjM/Y777dCP3x+Sb1djXRclNqaWG6dQoTMsnEJPtDJSOSt+ux/aIiIeFVa5CsjKEys3EbsamVamtNMyiZW4jtUK9h5JGe+xGfm94eVGbcve477YhRpEVVRpUdEdMpHZrPyPJUaT6pJRkRlv12MjGZaNYLVSuWSz1L1pFe0As2lop2h1IOGcGKZblIGEwVjU9G0qgNeoyKRpsN7YHXmBxHKONO5e9TLlylcUJFwUWgUJimvF2keNMed70837hkpPkFy9zcv/h1HPtryG5lipOU1m32qgqlpPs5KnlNIjm4niRmjqbhHtuZeT59h61AypQqFb0KhVyLUI9cgR24p04obhuurQkklw6cTJW3TcyH41C4IVp5LK57nbfp8GqURtpDpsrWlD3MlG2fEjPciL3hgWu0WG1UbJXdpF7w2ow1HF7QKZdTqCTDQKZLsLpi7MQJxzKNKvQrVqbbK0AtcGCCS8Ag4Ym9hjIz3r2Jd23jOrB2ra1OpTtSp8dpyqS5S3CiNOqTv2aCT5Z7+4f8AvLzj96JedYXJqlvXLTosWt02KctJx1mqPJa2PZaN/KIt9iMj6/8AkXgxLhp9jXfWK5WifRQ7nRHmQ6ilhamyMkH5CyIuSTPkZkRluP6pz53hddYvinsPIpEairp0Z91o0d5WZmtSkkfXiXm3P7X2xmU9MWk1Wllpc60F9UPpYQ2mBUuuiJAADHNqTDyYk3gBjVLDSFM3qIFO40h+Ml5uy2ZiZJbdjACdkr0rLum/7up1LrBUmjRILqz724445zeSSzIzZQkz47bbeWrqe/QiHejjMO/vbUX/ALjv5ZY7Me01cFV2jKNevUc91RjHEujMtGAgAAf/AEklaPTPBtttWlSYGtY5wETsJzklAABvFq0AABEAABEAABEAABEAABEAABEAABEAABEAABEAABEAABEAABEAABEAABEAABEAABEAABEAABEAABEAABEAABEAABFh3nbO2pT1SmQrMszMmS/r5q1LpNJpdwz/AP8An3W2Y7DLbn/dQhCC94iLzEH7ZP8AdL/L4f5yf/bj/b43EH19rvrxZ9QbPo6hQ0dRq8LRa4lzQDIAGwLz9msxtReS8iCsO/2yf7pf5fD9sn+6X+XxuIA8B4dvwRZ+r9yy/Sv/ADCsO/2yf7pf5fD9sn+6X+XxuIAeHb8EWfq/cnpX/mFYd/tk/wB0v8vh+2T/AHS/y+NxADw7fgiz9X7k9K/8wrDv9sn+6X+Xw/bJ/ul/l8biAHh2/BFn6v3J6V/5hWHf7ZP90v8AL4ftk/3S/wAvjcQA8O34Is/V+5PSv/MKw7/bJ/ul/l8P2yf7pf5fG4gB4dvwRZ+r9yelf+YVh3+2T/dL/L4ftk/3S/y+NxADw7fgiz9X7k9K/wDMKw7/AGyf7pf5fD9sn+6X+XxuIAeHb8EWfq/cnpX/AJhWHf7ZP90v8vh+2T/dL/L43EAPDt+CLP1fuT0r/wAwrDv9sn+6X+Xw/bJ/ul/l8biAHh2/BFn6v3J6V/5hWHf7ZP8AdL/L4ftk/wB0v8vjcQA8O34Is/V+5PSv/MKw7/bJ/ul/l8P2yf7pf5fG4gB4dvwRZ+r9yelf+YVh3+2T/dL/AC+H7ZP90v8AL43EAPDt+CLP1fuT0r/zCsHrvvvXhj2mtVq/ryz1bVPefTFal1io1mGyt40qUTaVuqSk1mlCzJJHvslR+4Y0b8Fpfd75C0/XBWr+vKuXLUGbxlxWpdYqL0x5DJQoSibSt1SlEglLWZJI9t1KP3THh+F69rXbXx5h/mE8PBC+1ruX48zPzCAPQa36as+tnc0OmvQlOjUNYN4gGQO+JxUVnpmhbODvEiFeIAAfMC3SAAAiAAAiAAAiCuOu3Ude+mHEdIv6waVQ59Qn3HHo7rVYYedZJlcWS6akk062rnyYQRGajLY1dPMZWOFHfC9e1rtr48w/zCePadzvR9m0rrTYrHbGB9N7wHNOREHArGtb3U6DnNOMKtHrvWpT7CMaf8Nn/TQ9d61KfYRjT/hs/wCmiaPBaYdxHkLT9cFav7FloXLUGbxlxWpdYocWY8hkoUJRNpW6hSiQSlrMkke26lH7pi4vqYtNf8nrGn9U4H+EOz6y6ydzzVrS1fRNXQYe6k66SCADzSVrqNG11qYqCrms0vXetSn2EY0/4bP+mh671qU+wjGn/DZ/00aW+pi01/yesaf1Tgf4Qepi01/yesaf1Tgf4Q0fhA7nHtD2j41L6EtnrqzS9d61KfYRjT/hs/6aHrvWpT7CMaf8Nn/TRpb6mLTX/J6xp/VOB/hB6mLTX/J6xp/VOB/hB4QO5x7Q9o+NPQls9dWaXrvWpT7CMaf8Nn/TQ9d61KfYRjT/AIbP+mjS31MWmv8Ak9Y0/qnA/wAIPUxaa/5PWNP6pwP8IPCB3OPaHtHxp6EtnrqzS9d61KfYRjT/AIbP+mh671qU+wjGn/DZ/wBNGlvqYtNf8nrGn9U4H+EHqYtNf8nrGn9U4H+EHhA7nHtD2j409CWz11Zpeu9alPsIxp/w2f8ATQ9d61KfYRjT/hs/6aNLfUxaa/5PWNP6pwP8IPUxaa/5PWNP6pwP8IPCB3OPaHtHxp6EtnrqzS9d61KfYRjT/hs/6aHrvWpT7CMaf8Nn/TRpb6mLTX/J6xp/VOB/hB6mLTX/ACesaf1Tgf4QeEDuce0PaPjT0JbPXVml671qU+wjGn/DZ/00PXetSn2EY0/4bP8Apo0t9TFpr/k9Y0/qnA/wg9TFpr/k9Y0/qnA/wg8IHc49oe0fGnoS2eurNL13rUp9hGNP+Gz/AKaHrvWpT7CMaf8ADZ/00aW+pi01/wAnrGn9U4H+EHqYtNf8nrGn9U4H+EHhA7nHtD2j409CWz11Zpeu9alPsIxp/wANn/TRbzwf+r3JWqv0eemHQ7Zp3oX8V9z8SxpDPad571z7Ttnnd9u7o224+dW+/TbzdfuCcIWbpIvu5LQw3Y1Dq8PxX3efTbeiRpLPOpxUK4OttkpO6FKSex9SUZeYxEHgZf44P9X/AO0BuNNUNUtY+57b9YdDaNFnqUnsYDm4G/Rkggxi18dajpm0UbW2lUfIInsPxLS4AAfNC3KAAAiAAAiAAAiAAAiAAAiAA82p+iPv0DxN4t7n2h9/7z2na8Om3Zcem/svZdPMIq1XgW3rpOIGAk4kCeYZncJV9NnCOuyBzr0gABKrEAc1ker1Gg2VVKvSZHYS46EG05wSriZuJI+iiMj6GfnIe7T3VvwIzzquS3GUKUe225mkjMYTLfTqW2pYQDeY1jydkPLwIxmZpmcNognGMg2Z7bO20bCS3lkAE/8AIL6AABmrHQAAEQAAEQAAEQAAEQAAEQAAEQAAEQf55XIzMy47FsW3Xf8A/Ww/0ARAAARAAARAAARAAARAAARAAARAAARAAARAAARAAARAAARAAARAAARAAARAAARAAARAAARAAARAAARAAARAAARAAARYd/5yf/bj/b43EGHf+cn/ANuP9vjcQd/7u39Ufm48y1Wi/wCk50AAHAFtUAABEAABEAABEAABEAABEAABEAABEAABEAABEAABEAABEAABFR3wvXta7a+PMP8AMJ4eCF9rXcvx5mfmEAPC9e1rtr48w/zCeHghfa13L8eZn5hAHf8A+5v/APR/7LVf1j0K8QAA4AtqgAAIgAAIgAAIgo74Xr2tdtfHmH+YTxeIUd8L17Wu2vjzD/MJ49/3LPuy0d+UHkKxLd9jv5k8EL7Wu5fjzM/MIAvEKO+CF9rXcvx5mfmEAXiFe6p92WkPyh8gVbD9js5kAAHP1lIAACIAACIAACIAACIAACIAACIAACKtHhIvaXZE/BH6WhitHgZf44P9X/7QFl/CRe0uyJ+CP0tDFaPAy/xwf6v/ANoDv+r38zelvzhv/KzLVVvtjT5vlLS4AAcAW1QAAEQAAEQAAEQAAEQcrWbhvqFUnotIx34yiINPZyvG7LPabpIz8hRblsZmXX3tx1QDCt1lq2tgZRrupEHNgYSeTjseI5gDyqez1mUXXn0w8bnXo5+K5p7Y5FzFar96wX2G6PYHjNtxhDjrnjVlns3T35N7KLrt08ouh7jwrskTpdasKTU6d3CU5UVm7G7ZLvZK4ebmnor+chIg5u6LbnVutW7UojrCGqRMVIfJxRkpSTTtsnYj3P8An2Gj0zoy1VKJLKz6k1KJDCGQ0NrU3Ei6xrsGgnjOdgtlo+2UGVW3mNZAfxhekyxwAMuIzIyAXG2/Z1Iuy6LxRXTkvxGqp0iJfW20pXH2aiQZGoy6bbnsXX3x5rdwVS0rJuymUuY7tTKwqnU9xajUphtaiLoZ+8W+32zEiWrbc6h1e4qhLdYW3VpxSWCbUZqSnjtsrci2P+bceOnGzs6nXZS6tKZS1XqgqZGcZNSlM9SNBqIyLqRkW5EfUum48m/V220bIx1gpXK7mVw5w4rjeJLA52eP3sninEQt03StnfWLbS+9SHBEDMYXb0DfEzvyXO37jK2resKpVaOUtyqtNIN6auW4a5CjcSSjWnlxMj33229wh/N41gp9wUy1ajTa9UKRHpTUuRCpDRrXIcUexdpsZH2ZEReY/OY9OtWflW47bftyq1+goa7NKEqZbd5yuKiMu1UZbI82/kJ6mW3mMe3W7MrDk2nXFbNWZhVmDEKG52yDWxJaLrwWRdSLlue5Fv1/m2gtWhK1apXfo2xuo0CKF5l1gLw11cv4l6HEXmFwcQXAffSJlpaQp0wwWuuKjwakGXQ2WtDcYkDAxA4s7Iw5O0224N4wodsWbc9KoU9l5mpRqnFc7vvx3QtJqUrYzMjI9z22Pb3R886VXLEqj2LqHMbJmuuIXSZDjuyoCHVmTiTLfc9tj4/b6lufQdvS4GTHqozPuKrUVuNFS4aYVOQ6SJCzQZJ7Ray5JIjPfpuXTze95reMF1SjVVd0zGXq/Vne3OYxvxiqR+4paMyIySkvP5jPcy94xV2grd6DbTsFN7Xh1QyQ2l9SLWh1FoaXBvCO8TK44F/FgB1BpKzisXWpzXNhoIBLyXBxIcSQJLBnnIhuMmOvt2gU62KPGolLa4MRkcdz861fwlK+2Z7mPubZQ2tbiVOGbmxnycUoi/mIz2L+gfBbbVdj0WLHuR2M7UGkcHXY61KQ5t0JXlJI9zLz9PPuPTHU7IKYs9MUmXGwIbEXRGAjZGUbF4+0Oeazy914kmTMzjn05oAAMhQIAACIAACIAACIAACIAACIAACIAACIAACIAACIAACIAACIAACIAACIAACIAACIAACIAACIAACIAACIAACIAACIAACIAACIAACIAACIAACIAACIAACLDv8Azk/+3H+3xuIMO/8AOT/7cf7fG4g7/wB3b+qPzceZarRf9JzoAAOALaoAACIAACIAACIAACIAACIAACIAACIAACIAACIAACIAACIAACKjvheva1218eYf5hPDwQvta7l+PMz8wgB4Xr2tdtfHmH+YTxndiTWBnvBNkKsHEt2Rrfp71Vk1iS6mmRpT0l55mO1xUchDiSQhMZJpJCUnu4vkavJJP1LqjqpbddO5c3RWj3NbUNcmXkhoDTJmA48ggFaSvXbZrbwj8oW4eWMiqxXZE29UWJdt4KhraQVItWm9/qLxuLJG6GeSeSU78lHv0SRn12EW6NdRt26lrSvS6rus1u1nKDeM2gRKWpl1uVHjstMrSiWTij/yglOqJexIIjLbiWxmeXvrkWtH4Zvm7Sfoo4jFetTUzjWFX1WVkvxcdz16XX6r/wBDU97vE9/iTr31RhXDfgnyUbJLboRDxFTuCayWW307DVr0C6s15bDqkC4acz9S2gmMD0LN9NKD6Bc1pBaRPKCHcu+Fv2Aw79ci1o/DN83aT9FD1yLWj8M3zdpP0UbH+TjrT7Is/v6nzSg9N6G49nxrcQBhi5qk11Z+qTFFt3IeQq5UKWw9K7pZ0RcR4mVKbStx5FMbbU4gldmRKcJRJNexbcz3+r9sn+6X+XxU9wG2WYBlu0nZ6dTa2T0Z3TiOQedPTVrsWsJC3EGdesrJ2cbC1ixLjxzeVxqt/Hlhwr0rVqxqi+mDVYbdTUxMJbCVk2aiYeNfNSVGRMl7xbVP/bJ/ul/l8cBKp2smsZSqdJq0LNEy9JttnHfjvt1VdVeoq3eK0KSf1ZUQ3D2Mj+pmo+vUarSPcYfYKtmLNKUHF9S6McAeDeQXY+KCBPIsqzaSa5tRr6Zgtx5rzZjlIkDlK1s1Y5erFSxBatqYMuN1FzZolR6bbtWp7q0uQ6e413iVUm1INKiJqMRq3JRKI1pMupCjGW7suy9vBbYxuG97pq9xVd7Ij7b1Qqs12XJdJCKolJKcdUpRkSSIi3PoREQgKjYu12W+zAlMWPnSG5bMN+BQ3GKZV2zpsRwj7VEc0pLsULLYlJRxIyT13HEt+nR6TFD8c+jX0t/GC/Fveu9+I/GG73LseX1Dt/3ffj5f7p/2hte5hqBVsWs1jtta0Ma43qlwkX2im9rAwwSJdevNjMTyKzSNpD7HwYE3SMdhJa6fMI2Rylan+CF9rXcvx5mfmEAXiFHfBC+1ruX48zPzCALxDn/dU+7LSH5Q+QKSw/Y7OZAABz9ZSAAAiAIzzLqRwtp9OlFl28/EPjztu4f9HS5Xbdlw7T/0dpfHbtEey2336b7GPixLqt095zqjtDxfk2n1epspNZwXGH4chaSLdSm2pDba3EkXnNBGRe7sNu3V/S77F6ZtstQ2fH6pcdcwMHjxdwOBxzwUbqtNjgxzgCdkqWQEO5a1eaeMF3Q3ZmVMheJKy7EbnojeKZ0ndhalpSvmwytHU21ltvv083Uh/mJtX2nbOV0rsvFmQ/HdZbiOTlRvFM6NswhSUqVzfZQjoa09N9+vm84l72dN+g/TH0HV4CL3CcG+5d33ouxyzCo6tSa645wB3TjjkpjAAGjUqAPlqlQZpNMl1WSlamobDkhxKCI1GlCTUZFuZFvsXvjgsfZ/xrkDHFp5OTWmrdpl6vFEozFfkx4kmTJN1baY6U9opK3VKbVxQhSjMv8AcMulYLVXom0UmFzA4NJAnjEOIHSGuPMCrXPa0hpOcnoET1SOtSOAAMRXIAACKtHhIvaXZE/BH6WhitHgZf44P9X/AO0BZfwkXtLsifgj9LQxWjwMv8cH+r/9oDv+r38zelvzhv8Aysy1Vb7Y0+b5S0uAAHAFtUAABEAABEAABEAABEAABEABHOXoESqTLRps9rtY0qstsuo5GnkhXQy3IyMunvDVaa0i/RVjdaabA90saATdBL3tYJMOgC9ORWZo+yi22htBzroM4xOQJykbt4UjAI4rmMYNuU5+t49ky6NUYTan0obkLcakEktzQtKzPfci6e5v5yMezByNRvQVTruq7nY99QSCZaSa1rf3MjbbT5z8pJ7fa85jCoaeNGrUs+lWNovY2/N+8wtmJDi1hkGAQWjMRMrJqaNFSm2rYnGoCbsXYcDEgEAuGImCCcjMLrgHKUfI1KqlTao8ukVqjy5JKOO3U4ZsdvsW5kg9zIz2/mHHWvkee3dFynKt67Z7LslnsIzcRTpwi2VulaDVs3v0PYvPsIq2t2i6VSg1tS8KrnNkTxS1skERIOIwOOIOSvpaDtlRtQlsFgBg7ZMYHLf1EZqXAHJVbI0OmVORSo9s3HVHIhkl5yn0/tW0qMiPblyL3DIfjVLosy6bCqFZmsSJtIaLaXGSRtvJUlST4GXJJkZHxP2W32xlVdYrBdrChVaX02ucQSWji5km6cAfGLQ6N2xQM0XaeI57CGuIEgT42WEjE7ASJ3rq1z4LcxunOTWEy3UG42wbhE4tJedRJ33Mi98f5JqdNhPx4syoRmHpajRHbddSlTqunRBGe6j6l5vfHCH3X0zbW7i0puN4id7FCj3NKP4JH1PzFt7pj97Ka9FFz1i+ZxdoiNIXTKUSi6NMt9FrT9tZmfXz+cvN0GJR09WtFoFkpsF81HNzMBjA0ucffBoG9wnCVkv0YylT4Z7jdDL3LeLnNDeyTyArvR+MybDp8ZcyfLZjR2iI1uvOEhCS326qPoXUyHLW9Ps2my7pmU+K5TzhyzVVX31maHHNjUa07qVsXU+hEXn8w5LIWRaZcFj1WLDoddbjyW0FHnvQFIivbOJPyV7+6RHtuRCLSmtlm0boypa3vZwoY9zWBxIcWXoxutMEiJIGOAlLLoatarU2ixrrktBJEReg7yMjIxxGMBSj41pffGqd4yi97fb7Vpjtk9otHXykp33Muh9S6dB9Y4e9qK7Os2LXKZ9Tq9CYROhPJLdRGlJGtH2yUkjIy909h1NCqrVcosGsMFsibHQ+Re9ySRmX9B9BubNb3vttWw1mgFoa5pH3zHSOtrgQRuLTtgYdeytZQbXpmRJaRuIxHQRlygr7wABtFgoAACIAACIAACIAACIAACIAACIAACIAACIAACIAACIAACIAACIAACIAACIAACIAACIAACIAACIAACIAACIAACIAACIAACIAACIAACIAACLDv/OT/wC3H+3xuIMO/wDOT/7cf7fG4g7/AN3b+qPzceZarRf9JzoIbzxqZtvClSoVlwLbq1537dSlFRLWoxJVKfQRK5PuqPoywXBW7hkfsVGRGlDikTIKk4mjx6z4RLNtXrC+dQoFt0Sn0pCyPdqI8y047w38xcySZ/8AfP3xyjVjR9ktbrTa7c0vp2ekahYCRfN9jGtJGIbeeC6IN0EAgmRsK73U6ZLcyQB0mJ6F1tt6l8vwbqoNu5r0pXLY8W5J7VMhVaBXYldhsvuKJLZSlsEnu6VKUSSNW+5mWxH12sSPykyG4kZ2U8Zk2yhTi9i3PYi3MUswzZuUNZdpys/3VqIyNZMCs1CYzatBs2qJp0WBCYfW0g5SeCjkuGtBmrkZHsXn2USUZVOwWLT1F+kLjLHRpXWuINV4c994sDWuL3g3WuJl8Q0nAwDGS6hAcS4uwGQyxO7CI6Y34XYAZ+X1nrMErS1e9EuK8J8a+8a5Fh2jNr9JWunO1JhMxokv7NGXDtG1GSkpPYyL3dxPmua6LmtHDtKqdqXFU6LMcu+iRlyKfLcjOqZckkS2zU2ZGaVF0NO+xl5xLU1GtdG2WaxVKrb1aq6kCJI4opuD9hLXCo0jAGMwCrfRYAeSDxGlx6C8Ec4LDyKw4CneRfTTvjXg9ia2My3JZ9vSMZoqE5qnO9oZF3/gtcZtwzZYkqI0J7wbalJRyJOxmSk8rqLq9Vw3eONsJ3zqHyjaGKnqTLkTb5RLck1qp1U5CzREfqDbRqbJCDSZGSNuKtlEZFyRNY9RnWyrZ7Oy0tNWtT4W4GPc4MuucYABvO4sNa2SZkwASrn2gML5GDYk4bbsf8sTkBjzXuAU6LJFA066ecjZexzqWq+aKbAjRWaWzX60xV3adUnXTbSTkhvis0qN9pRtLJJklryT8rpXyr59xVTrQl35SfCKZQqeVI8Fc5qD4vnIt2VPSk1JjJp64RNIbUZE2RqWRFvyMiLchm6N7mlv0q6o6zOcaYfwYcKNY8a61xvtDCaYbeAcXbfFDgCRa61tY0TEnLERA2yernB3StSAHFYVv93KuI7PyPIiNRX7josSovsNK5IadcbI3EJPzmRK5EW/Xp16jtRzy1WapYq77NWEPYS0jlBg9qyKVRtVgqNyInrQAAQK9AAARAAARAAARAAARAAARAAARUd8L17Wu2vjzD/MJ4eCF9rXcvx5mfmEAPC9e1rtr48w/wAwnh4IX2tdy/HmZ+YQB3/+5v8A/R/7LVf1j0K2eVfTb9BUz0j/AEI+i7tGe6eivvPi3hzLte07t9V34cuO3Tltv0FbNK2EdaGE7yraL1qGFZVoXndVQuu4vFbtWXUm5Mpst0RO0bQ0lslob6OcjJPLyjPYXCAcAZxHl424dGBjrAPOtwXk0+D2efHHtKAAArEAABEEepwjaic8q1DlUKt6I1Wx6FDi9q33LuneSkc+HZ9p2vMtt+047fwd+okIAGBDhmJ7QQewkKsmC3YfjB8oC/KSwiVHdjOGZJeQptRl59jLboM4PCA4QtTTvofsnFVlVCrTaTTL+beZeqjrbklSnotRdVyU222kyJSzItkl028/nGkgo74Xr2tdtfHmH+YTx7/uVcXXOwEbagnoBWJbyTZXNOWfTl5Cnghfa13L8eZn5hAF4hR3wQvta7l+PMz8wgC8Qr3VPuy0h+UPkCWH7HZzKF9SeoKdhWJbNu2bZ6rtvu+qidLt2i94JhtxaSI3HnnD9i02Sk7+bfkXVJclJ+Gwa/rIplc4ZptHFsqgvxJDxz7TnTUO091DSloJ5qV+7EpREj6mZbct/MQ5DV5RrntLKOHdStGtmp3FScc1CoR7gg0yMciUzBnME0qUhpPVZNkSjMi826TPySUZe9auszEWaLgasbD5Vu6O9QZr1VqTdIlRodGQ3HWtJPrebT5a1klCUl06mfLciSrJo6KcdAUK+jrE2s1zKhr1SHE03B7gGyHBtOGBr2z45dHGENV94ei2sqOhssjZeJOI5ccI3Y7VyemrPmrHUVZNnZAh2Hjmi0CRPdbr8+dJlk5PjolLbX4tjNqcNtSEI48pDmynOWySSRGfz2NnvV5qAhz8h4FtDEsGxWKpIp8Fm6Z05VUmpYc4qcPu31Ng1e4hZbp3/hFso/a8G0tTei+yHEoNakuVcySXnUZVKT0FZr8uHRpUF1+4rQk5awlmqoNPuHbtBi1OJOk1MyUaGzZQg2TSpz3EqZ3IzPyDMzHraWirDbNP6T0fZtHiKNU02FlJ1VrGio8E1GCoHQQB9UF4UwCA0BwjBo1Hmgx7n4uOMmBAnbGGw8sZqc873im39Rula8stP0eznW41xO1rvdSaTDp8ldMbSts5KzSg0k6rglRmXIzL3x8GY7mx/nXVVg5rBFYpdz3DalVdq9x16330PswaMRJ3ZfltbtqJzZaSbNRmXIy2T2nXxLjoFxXxkrRzQtRFtw6xWZ9LuHx/T6xCafQ88mnIWnt2VEaDcI0oUojLosj6EZdOiv2gydCWT3s1Y/oSiwpd77DF7UCAz9Tt+WZ8GqjFaSWyGjNREpCem58fdaJu+z0bLZvQdCg6baLNaGUmtcOBqF1otLLoJlxJBcabSQHkMaXScVUvrNcQMC1kz4wBGOG8D4wDEHy8qZQ9KTwia7m9Lu97z7fFbcLxfaNI8YzUcqiau1U1zTs0XDiat+hrQW3UTlZ+qqn3TTLprFWwbl+zINqUOTXpMm67YKnsyGmE8ltMqN1XN3iRmSenQjPfoIAvrUHh3FevuLlG972jw7VreI47NPqceM/Nakqen9q0aCjoWo0qbQpRK247F5+pbzhQtaWnjK0G4qJiuuSb+rVOoUyqqt6NQ5zb1QYaQXNlBPx0oWpZrSgkdTUattj6jU6d0NaK9gsNU6Lq1AKFIGsL4a2CZBN24IyJccJkqanVZ6IdxwAXNwwx4rcufIQuIsPL2urKVpU3L1lY9w0VpVpk51PoUqrTjrDsbrxSclP+TJcPb3Ult5lEkyPaU6HmO6alqpr2DZVOpbdDpdmRbiaeS253zvLsgmlIUvnwNsi8xEgj3933BRS76ppgi0uZI0a3XlyxsvSZDLsOx6KzU0E5M7RPNqWw4lTPAk78iJ3gRbFxUnyDni8cjtacNXMDLueUSKRbV342iUWRW48B+TFj1ll8nHI59glZluSVGWxH5y9zcy2Wl9VaFoc9tmsgY59OtwNI0n060tNNw4pfU4WGlwY9pJeQ7PACBteoWTek8UkjKLzZkQLuE4bpnKVLtQzDc1Yzhk/CcqDTE0O3rHZrMWQ204Utbz6VpWlajWaDQReYiQR++ZijtZ9Nj1MOkj0H+hLxb6MIXi7xl3nt/Hvf5fYdt2fk9z4+z4/Vd/MLBY0vyJknVXme7qbQq1S6fLxrDKEVWhqiPyGUmskv9iry0IX1NPMkqNOytiIyEYdynxNCOmnIbdKnzaTYN7QLjrhwo5vuR6ezNldq8aS68U7lv/OW+xdRtdAWVmgqtGgKTWuL7LLT6t9ktE7fGLjHOYVtpfw73BhkXKsR+LROHOeuVe7EHp5eh6X6fvoF8e99V3X0H987p3Tgjj2nevL7Xn2m+3k8eHu7juxw2Is2Yyzvbki7cVXIqt0mLLVBcknBkxSJ5KUqNJJkNoUoiJafKIjLfct9yMi7kcF0qy0U7bUbaqPA1AcWXSy6d104jmK2lItLAWOkb5lAABr1Iq0eEi9pdkT8EfpaGK0eBl/jg/1f/tAWX8JF7S7In4I/S0MVo8DL/HB/q/8A2gO/6vfzN6W/OG/8rMtVW+2NPm+UtLgABwBbVAAARAAARAAARAAARBytZsLxzUnql6NLqg9saT7vCqPZMo2SReSnie2+25/bMx1QDCt2jrNpJgp2pt4AzmRj0EKez2mrZXX6Jg5bPOuYrVjeOn2H/Rhc0HsGEMcIVQ7JK+O/lqLie6z36n7uxDnb6geK5VhU/vsqX2FbZT28pztHXOvnUrYtzEkjx7ktK37ujsxbhp/e2mFm42ntVt8VGW2+6DLfoNLpjV9tez1DYGgVnOY7jOcAblRr4Jh0TdzDTzLY2DSjqVZnogksbOQE4tI5Jz3r5b5umm2vb8uTLktlIcZWiMxyLtHnDLZJJT5z6mW/vEIuk0GtW5Gx9DlVpNDU2iWSpb0ZDyIsh3yiSpKz47mR8S3PoZGYk2iY1se3ZaZ1Jt5huQg90OOLW6pB++k1mfE/tkPbqlKptahrp9Wgsy4znsm3UEot/cP7R/bGs0jq5pDThdabY5rKgDQxrHPugNqNqGagDHy4taJaGlkSJKy7JpWzaNilQBc0klxcGyZa5ohsuGAcTiTeyMBcBVLSryp9FkXVlNiSiPUWH4jC6U0yp54lbElJoWSj3IzL3SLzmXQfXYZpRf8AfbKlJJw5UVZJ3Lc08Fddv6SHrUjGFh0KcipUy3WW5LaiUhbjjjvBReY0ktRkRl75D9q7j2zblqCapWqG2/LSRF2pOLbNW3m5cFFy2293foLLNq9b7LUp2ylTYKjahcWurVql4GmWSalRrnSMIFwCBE7VdU0rZqrHWd7nXHNiRTY2Dfa7BjSAQYxJdOMrm4tbvi9JtXVRa/TaBT6TMdhnyjlIkGaPOtZKPikj6mX8xl123Pk6eta8e5DNdVbqRnPWZy20JQh8907uElPkkR+fp0Em1PG1j1iqHWqlbsd6WpRKUvktKVmXuqQRklX29yPf3R9SbJtdECo0tulJREqy+0ltJcWlK1dPNsfkl0LonYhr7Rqnpe2h5tFRpcadZl41ajg41GlrTcLQymBhIYDhtOSyKWmrDQaG0mECWGAxoi64E8abzpgxMc20ckwRnkO0iLz+h5f/AJEPSw4ZJsZiMZETseVJaeLluZLJ1Rnv/QZDpU25RkVGJVkw9pcCOcWO52i/IaP+Dtvsf85kZjmaXDqFoXxNitwZUii3G4cxDrLKlphyv4ZOcS8lK+hko+m/8xmNtR0fW0PpRltrYse6q2RJu8LwRaThhxqV07Jc2eTGqWunpCyvs9PBwa047S0vJA/RfPQeRcJc6H10PIZsko0IrcdTxJLfdslJ3/o8x/0Dtcq1KkeldNVGmR0sy2GUxCSsiJwuaDIkF7uxF7nuEOsi25RYa6itiAj/AKWWbk0lqUtLxmWx7pUZltt02Ith4TWJMdMtyGkWwztJLiszdcMyLffyTNW6PN/B26dPMNbV1V0rSsVpslmNM+iKTqZLnOF0zVgiGG8CKmIN26QSL0wpxpmxVKtKpVDhwbmuEAGYawEGXCMWYHGQdi9h55mPaS35BkTTdONSzM9i4k116jy8WNOs49oaHt+RxuRf901GZf8AwMh81+NVKpxodiUSBKS3UuKJcwmldjGiJ9kXMy2NaiLiSd9/PvtuQ6+JFYhRWYUVskMx20tNpLzJSktiL/cQ9TZw61aYqV2jiUmCnO9zjedG8NAbjlJIzBWprOFKw3DnUfejcGggTzknqnaF+oAA9AtUgAAIgAAIgAAIgAAIgAAIgAAIgAAIgAAIgAAIgAAIgAAIgAAIgAAIgAAIgAAIgAAIgAAIgAAIgAAIgAAIgAAIgAAIgAAIgAAIgAAIgAAIsO/85P8A7cf7fG4gw7/zk/8Atx/t8biDv/d2/qj83HmWq0X/AEnOgrRnDBmWKXmimantOUijv3SxTfEtxW5VnDZjV6AR7pJDxfuT6TJJEZmSfIbPfZKkOWXAcV0Ppi0aEtBr0AHBzS1zXCWua7NrhhgeQgggEEEArZVGNqsLHZH/AOgjlBxVdrevLWZkW46RT67gu18X2yzMbXXn6lc7NamTYhLSa2YiYyODalp5JM3CPoozSaVERjg8e2vqw0o02pYhxlhej5SshNQlTLYqfonj0l6lMPuKcOPLafIze4rWat2/ORn16klFxQG6ZraKbH2dthocA6CaUVbpc2br73C8LeF5wH1SIJEQYURs8wS4kjI4YZ8kYzjhjhuCptUNGN/1fS3fdm1O4qUrKN/3Ad61CWya0QWqn3hDyYzajI1dmSUGglGR+Usz6kPPzHQ9aWoTH1Gt6vYGoNoNUi4KTOmxiuiNPmVI2XUqW8yaVIZYZSXJRpWtbhmSUpI+pi7IDMod0DSFOsLRWo0qj21DVYXNdxHODWkNDXtF0tY0AODrsAtIOKsfY2PYWSRILSdpDpJmRvJPSdmCr6ziy/Ea638yKoW1nrxsVATUu9M9Z/f0u9l2XPtfYEZ8uHH3N9+g9HNtW1K0K50v46xFa2ULGn05uPMoEurtU6e3LJazU4TkhJsqZNJteSfJW6D2JPuziA0w1jqPtFGvaKFOoKVNtMNcHQWtyJLXtcHcrXN5FMaIN6CReIPUAMOryqkFpaMLlyPT8w1O/rIoGI42T6VCp0C1qBIbmIpz8VZOolvqaJLClm6hJmloi3SpzqlSjM+4p+QtfVtUFiyJWmy0rkrUSMUVF4M3kwxTHlknZD7kJaUyD8xGtKVJ3Mz48S6FacBtbTrzatIOI0hZqVZkgtY/hIYQxrBdc2o15lrGh197w66C6SrBZwMWkg444bY2RGwbPKZ8SyGbtj2dRGL+lwJVyt0+OmsPQCMozkwmy7ZTRGlJ8DXy47kR7bdB7Y8K377si7KlV6La15UOs1C33+61eJT6izIep73JaezkIQo1NL5NuFxWRHuhRe4Y90eQtTajazuFZcccYiInEQNgg4ckKZgAaADKAADHVyAAAiAAAiAAAiAAAiAAAiAAAio74Xr2tdtfHmH+YTw8EL7Wu5fjzM/MIAeF69rXbXx5h/mE8PBC+1ruX48zPzCAO/8A9zf/AOj/ANlqv6x6FeIAAcAW1QAAEQAAEQAAEQUd8L17Wu2vjzD/ADCeLxCjvheva1218eYf5hPHv+5Z92Wjvyg8hWJbvsd/Mnghfa13L8eZn5hAF4hjBpC8IB6lTGtSx56Uvoo8Y1x6td88fdy7PtI8dnsuHd3d9u78uXIvZbbdNznH15r7m/54fqI6Lr/3J9cNN6zWzSFgsd+lUeS08JSEiBsc8EdICxLLb7PTotY52IG4/EtLgGaPrzX3N/zw/UQ9ea+5v+eH6iPIeBLXv2D/ALtH5xZHplZfVdh+JaXAM0fXmvub/nh+oh6819zf88P1EPAlr37B/wB2j84nplZfVdh+JaXAM0fXmvub/nh+oh6819zf88P1EPAlr37B/wB2j84nplZfVdh+JaXAM0fXmvub/nh+oh6819zf88P1EPAlr37B/wB2j84nplZfVdh+JaXAM0fXmvub/nh+oh6819zf88P1EPAlr37B/wB2j84nplZfVdh+JaXAM0fXmvub/nh+oh6819zf88P1EPAlr37B/wB2j84nplZfVdh+JaXAM0fXmvub/nh+oh6819zf88P1EPAlr37B/wB2j84nplZfVdh+JaXAM0fXmvub/nh+oh6819zf88P1EPAlr37B/wB2j84nplZfVdh+JWX8JF7S7In4I/S0MVo8DL/HB/q//aAjTUj4TP1QeF7ixB6SfiDx/wB0/wCkfRJ3rsewlsyP3LuqOXLsePsy25b9dtjkvwMv8cH+r/8AaA6U7VbS2qXcl0pYtM0uDqOrMeBea7il9nAMsc4ZtOEzhlksPh6dot7HUzIj41pcAAPmBbpAAARAAARAAARefcFYZt+iTq1ISSkQmFvceXHmZF0Tv123PYv6R/VPqSpFFj1eewUM3IyZLrZr5dlunkZGexb7fzF5hzGSd6n4js9suR1qoIN4uu3dmfqjn/kkfRlCY9HtF6mQS/yusOt0uORf9Z0+J+b/ALPIeYtel61nfba7cWUGtAbhjVILonPEOpgCYklbajYWVWUKeT6jjjuaCBPXenmX+R8jUtq0YV2V1hUBM8zKPGQZvOunyMkkkiSRmZkRH5ti3LqP4p2T6RMqcWlT6FX6Q9OX2cY6jANpLqz8ySMjP/6Dzr3tasRFWxWbXp6J52wo09x5cDdbNKU7pM/dIk/z9fd8w+yk5LoVYqMeg1ukVCi1F9SVMMVOLwJbhH5PBR+c9/MZkXXzddhq26Vt9ntwsVttDaZaWNbep4VuK284PlrQ5zi5oa2LpAlpkBbD0FZatA2iz0i8G8TDsWAEwLsEkAQSTM5SIldNT69SapPn0yDL7WTTFpblI7NSezUojMi3MiI/MfmMx6Ahu0KDeki77sZg373R+PKYKW94rac70ZpVsfEz2RsW5dPPuPchVO/biuq56FS7hiwIlOkNIbfciJecYI0mZJQnoStzI9zWZ7bdCEujNba1os1J9psjxUqOe1obwfGul2X1UxAbBLiBeywxUVr0JTp1HCjWbda1rjN7C8G/4BMl0gCTGeOCkgBHz1WvO47ilWpbldYpzVDZZTUKoqIl1x59Sd9ktmfEiPY9/e2PqP6p1z3LS51ZtG5JrEqoQqauowp7TJN9u3sZbqb9iSiV73Tp/Sew76bMH8ak8UyXND4bdc5gdeaONeniuAJaGuIgOMicU6HqhuD2l0BxbjeDTEHKMiDE3gDJC78BFUCdlGq2Q1eKLshRewhrklGTAQ4cokEZmbiz2JBnsexILbbb3eo9Oo37WalTLZgW2yyzWLma7UlupNbcVtKd3F7e6Ze5v06HuI6ettlcy/UpVGEtY5oIbLxUN1t0BxxLiBDrpEycMVI/QVdr7jHtdBLXQTDS0EmZAwgEyJy34KQgEbyJV+21ddt0mqXg1VYlVkuoc2pzbCzJKN+J7b9OpHuWx+cSQNrovSrdJ8K3gnU3UnXHNddkG41/3rnAiHjbnKwbZYjZAxweHNeJBbOwkffAHMHYg82u1vxFGak+KalUO1eSz2cCP2q0bkflKLctklt1P7ZDwLIuKpvTLgoFzTSdm0aWoydUhKOcRRcm1mSSIvNvv/OW45hV6Xe5Zp3YVRNpNSrqGoKDYb+pwjWaST1T1M9j6n16F1GntWtNmNkZVpB4L2ud4rSWXHNa4OBdAIcbsScZ3LOs+hqxr8G66QC0ZkB18S2DE4jHLJSwAjm5bzny7ol2xTLvpNssU1DZyZszs1uuurTyJDaHDJJkRbcj9wz/AN/y028Lhf8AHtrx7ogVmfGpiqhT6pBbbMlGXQ21oTyQSt9uhe4f8wpU1zsDKzqQY4gF4BFyHOYHEtAv354pAJaGE5OxE0boK0OpCoSBIBg3sGmIJN27tBgEmNilABGtZve4JOPKHULbcSqt1hKEpUSEK2NtClPKJJlx/wDZmW23TkPtqd51CpQLOO35aWH7hlNKeMkJWZMpTu8nZRH5vNv5+gyTrXYL72NDiWimcAONwpaGhskSReZeygObnKt9JLTgTAlzm55XQSScMsHR+KV3oAA9KtOgAAIgAAIgAAIgAAIgAAIgAAIgAAIgAAIgAAIgAAIgAAIgAAIgAAIgAAIgAAIgAAIgAAIgAAIgAAIgAAIgAAIgAAIgAAIgAAIgAAIgAAIsc87aAtW95ZvyFd9t4m75SK5dVWqUCR4+pjfbRnpbrjS+K5BKTuhST2URGW+xkRjh/W3daPwM/OKk/ShuIA7vZP8AyF1nsdnp2anQoXWNDRLakwBAn6rmtW7RNFxJJPZ8Sw79bd1o/Az84qT9KD1t3Wj8DPzipP0obiAMj+UdrT7Hs/vKnzqp6UUN57PiWHfrbutH4GfnFSfpQetu60fgZ+cVJ+lDcQA/lHa0+x7P7yp86npRQ3ns+JYd+tu60fgZ+cVJ+lB627rR+Bn5xUn6UNxAD+UdrT7Hs/vKnzqelFDeez4lh3627rR+Bn5xUn6UHrbutH4GfnFSfpQ3EHK5OuG+7XsybWsbY9K97gZU0mNRTqzNNJ8lLSlau8PEaE8Empex+fjsXUxNZ/8AyH1stNZtFlCzAuIAvB7Rjhi51YNaN5JAGZMJ6UUM5PZ8Sxl9bd1o/Az84qT9KHmXPoC1b2bbVWu+5MTdzpFDgv1KfI8fUxzsYzLanHV8USDUrZCVHskjM9tiIzGpmirLuV8wW5kOo5hajxK1Qr6n0RFMjpZ7OmNNMxz7qlxro9wWtwu0NSjVv7LbYi7/AFO+1ryz8Rq9+YPDd1+7frbo/TbdDWyjZib7GuLBUI40eKeFg4HOCOcKFujbO+mXtLsJz5CRu5OdYUYgwlk7PNyybQxRbPjyrw4K6k9H77HjcYyHG21L5PuISey3Wy2I9/K322I9pf8AW3daPwM/OKk/ShJfghfbKXL8Rpn5/AGvI9D3Tu7Fp3UvT7tFWClSdTDWul7Xl0uGOLajR2KKxaPpWmlfeTP8ciw79bd1o/Az84qT9KD1t3Wj8DPzipP0obiAOe/yjtafY9n95U+dWX6UUN57PiWHfrbutH4GfnFSfpQetu60fgZ+cVJ+lDcQA/lHa0+x7P7yp86npRQ3ns+JYd+tu60fgZ+cVJ+lB627rR+Bn5xUn6UNxAD+UdrT7Hs/vKnzqelFDeez4lh3627rR+Bn5xUn6UHrbutH4GfnFSfpQ3EAP5R2tPsez+8qfOp6UUN57PiWHfrbutH4GfnFSfpQetu60fgZ+cVJ+lDcQA/lHa0+x7P7yp86npRQ3ns+JYd+tu60fgZ+cVJ+lB627rR+Bn5xUn6UNxAD+UdrT7Hs/vKnzqelFDeez4lh3627rR+Bn5xUn6UHrbutH4GfnFSfpQ3EAP5R2tPsez+8qfOp6UUN57PiWA+TNBms2x4EaszsIXFJiOvFFJuhOsVZ8nDSpXJTMJx1xKNkGXM08CPYjMjUkj+fTN4QDOule2KrZ1iw7XrFIqs1NROPXYDrpx5HZpbWttbDrSz5obaJRLNZF2STSSTNZq/6ABwOScA4RzD27mT8UWtcsp+nqpff59LacnMxVc/IZlce2Z2NxxSTbWk0qUakmSuo5LrLrdpbWi2VrZa6pAqkFzGufweAAENc52AjCSY2QtxZRRs9MUywGNuEqnWI/DKYJu6Q3Tss2TX8fvvSHUlMZX44p7TCWuSFuuNIRIJalkpskIjrIt0GatjVwufjHNGJsz0s6xirItAuhhuPHkyEU6ch1+Ih9JqaKQzv2kdaiSvyHUpWRoWRkRpMizuyh4PXQPft1nQML6q7csi5ZdTahJt87kg1tpC0oNpcVmK5IRL7dTpJUfN9zZXNJI2NJIpxn7R3nHR7V6dXrmvCz2pURuPV4E+hXYyxNaeKRwQqPGfNic442skLNxllSUEZK5lxXx8recACcisrgqFUkMMEbCv+gwBgTizwi2sTC8xllzJM+6IBuHPcpl5NrqSZBPR0k2ZvuGUtLfE23UJbeQjfZWxktZK1v0RatqXq5xMq6n6dFpF10KQmnXFS2JCVoQ+aCUiSyg1G4mO8XLh2hbktt5slOdkbirw6TBzUNSzuptvZhWHAAFygQAAEQcNl/CWMc821GtDK9s+PKRDnIqTMfvsiNxkobcbSvkw4hR7IdcLYz28rfbci27kBkWW12iw1m2myvLKjTIc0lrgd4Igg8yo5ocIcJCrR627ou+Bn5xVb6UHrbui74GfnFVvpQsuA9F3960+2do/bVPlKH0LQ9QOoKtHrbui74GfnFVvpQetu6LvgZ+cVW+lCy4B3960+2do/bVPlJ6FoeoHUFWj1t3Rd8DPziq30oPW3dF3wM/OKrfShZcA7+9afbO0ftqnyk9C0PUDqCrR627ou+Bn5xVb6UHrbui74GfnFVvpQsuAd/etPtnaP21T5SehaHqB1BYK6Jsb2Xl3U7ZmPMh0bxtb9W8Y98h95dY7XsqfJeR5bKkrTs42hXRRb7bHuRmQ1T9bd0XfAz84qt9KGaXg3fbo47/C/6JmDWzVDnprTVh2pZbftg6+3TZcKMuEUw4vJL8hDJr7Qm3D8nny24nvtt033Hbu77rNpnQustCho62VaLHUWGGVHsBcalRskNIEnATuAnALX6IszK9Iy0Eydm4ArgPW3dF3wM/OKrfSg9bd0XfAz84qt9KHPVrXjclh12hVLLemC9LPx5dkg4VAuN6WzLnyZSmzWyy9SWEqfjrd2MkpUo177eT7Lj7lq6w7zLL1rYyzLpvuHG0LIHbJtKrTaxFnHMdbQThtSmGC3huGky8hS1KJRkRkRbmXEG6+a0vcGDSdomY+vVc9x42DtwOJ3LZusVJjbxY2InIZbxvA2kYDav19bd0XfAz84qt9KD1t3Rd8DPziq30oWXAV7+9afbO0ftqnylZ6FoeoHUFWj1t3Rd8DPziq30oPW3dF3wM/OKrfShZcA7+9afbO0ftqnyk9C0PUDqCrR627ou+Bn5xVb6UHrbui74GfnFVvpQsuAd/etPtnaP21T5SehaHqB1BVo9bd0XfAz84qt9KEl4Z03YX0+eOPSgszxB4/7v4x/6Rlyu27DtOy/9IdXx49s57Hbfl132LaTAGLbtbNP6ToOsttt1apTdEtfVe5pggiQXEGCARhmAVc2hSYbzWgHmCAADz6lQAAEQAAEQAAEXFQNq7lGoTdjVHt2CiG2Zn0KQ8fNZl9skESTCtbVzJVEo5Ea2KLGdqkgt/J7RX1Nrf7ZeUf9I6Gh2/DoHflRXn3V1GW5NfW8ojUa1bdC2ItkkREREEC34dPrVSrzbz7kmqdkTvaKI0oS2kySlBERbF1M+u/UeVp6ItLqFGlViXVjVqY7i57QN8OFNv4rVujbqLarnsybTuM5yACeTNzueF8F03DXrekRn4FqyqxAWlRSTiKI32lblx4o86yMt+hf7xylYdq+S6pRYkW1KvSIVMnInSZlTYJhZcN9kNp3M1b++XmMi3EnAMm36Dq6ReWVrQ40C5riyG/ekEAOi8GyATmcwHAZQ2XSLLI0Op0hwgBAdJ2ziRMSJw2ZSCo1jy6pZF83FJk2pWqlDrjjD0d+nR+3JPFJkol9S49VH5/e/pHp2RT58S870lSoMhlmVKjqYccaUlLpEhW5pMy2URbl5h24COx6u+hK1N/DFzab3va0gYcJekSMwC7DbgM81fW0rw1NzbgDnNa0mTjdLYMbDDQDzqO5CazYd5Veus29PrFIrxNOL8Xt9q+w8hJlsaNyM0nuZ7+YtyH5Q6fW7lrFbvedRZdOaOkOU2nQ5CdpDhHuo1qQXsTM+hF5+v2uskgIXaqsceDNZ3Ahz3tZDYa596Tei8QC9xa0nAxiQAFcNMODb3BjhLoaXY4tEDLKYABO7lxXEW9T57GIUUx6DIbmFSH2+7qaUTnM0r2TxMt9+pdBzaKLcVFpNj3bDocqW9RIio86ClBlIJtxPHdKD6mZbn08/Uvc3MpbHjXNRqtWIzKKNcb9GksO9oTzbROksuJlxUhRkSi67/0CHSWrYNFlSiXOfSZTa27dvTTeHBwvkNJwxBIBEiRMqWy6XPDOvgBr3OcZmIcHNIwxiHZjEZrgqtcM24r5sx1VsVSlxm5Ujs1VBCWnXFdmXIuzIzMiIiLqfn3+0JWHJUSx5setM3FdFzyK7UIra2opqYRHaYJXRRk2jpyMum/vfzFt1ozNWrFbLMy0V7dN+tUvwbt4AU6bBNwloPEmGkwCASTJUGlrRZ6vBUrNF1jYwvRJc52F6Dt2gYzAhRdlG37kKts1K0obrq67EVR56m0qMmkqUk0uK28xbciNXmIiHqZAt95izKVRKJAfkJhTYaUoYaNaibQexqMkl5vdMx3oCN2qlmLrW4PI9ERuhkG8Q38ZxLnbyeQK5mmqzG0G3R9SM/jbp5hgORRfXbe8QXlUrhnWIi5qVV0trV2MRuRIiOoTxMkoV1USvOe23/w6+xZi4k2svSKbjErehIjKT3uTCbjSHXDUnyCQktyTsRnvuZHsXm93uAFbJqxTsVr4ejUhl5zrtxhMuJJF+7euySQJkZXruCpV0u6vQ4Ko2XXQ2bzsgIHFmJgRu2xOKi7HdsVqBdk2NUYL7NLt85LNMU42ZJcJ93lyQZ9DIkJ26f8AWH+2ZbFXp9/SIkyC6ik0BEk6W6psyQrvKyVslRlsfFJqI9j6CUAENj1PstibZmte48A5xxjjAxDTyNu04/Jt5VLW09XrOqEtHHaG8xxlw5TedP4xQAAeuWiQAAEQAAEQAAEQAAEQAAEQAAEQAAEQAAEQAAEQAAEQAAEQAAEQAAEQAAEQAAEQAAEQAAEQAAEQAAEQAAEQAAEQAAEQAAEQAAEQAAEQAAEQAAEQAAEQAAEQAAEQAHK5Nt6+bps6ZRccZD9A9eeW0cet+KWan3dKXEqWXd3jJC+SSUncz6cty6kJrPSbWqtpveGAkAuMw2dpuhzoGZhpO4EoclBOhr91zz/4xV//AOSOJU1O+1ryz8Rq9+YPCLcC6Vc2YTvKZW39Uvj6hV2uSrhuKi+giJF8aTZDfFbneCeWtjyktq4tkSfI2Ii3MSlqd9rXln4jV78weHvNMVrHatbaNpsNobWY99Iy0PEEXWkEVGMM4TgCIIxmQMRt7g6l5pElx2bSTsJ34rNLwQvtlLl+I0z8/gDXkZDeCF9spcvxGmfn8Aa8j1Hd9+7J/wCTp+QqDRX2P0lAABxVbJAAARAAARAAARAAARAAARAAARAAARf86dZo9bpGTsoZyt1bnfcZ5DjVDiRmSSS5UZPFZmRbls80wkj3L2Z+czISvr6vFGp7Md/5Ut2Wa7axtalBYjOp8pDq5T7Hkb7eSfOZI6H1+on9sisdi7Qbnhym6qqHfuP26czkiK87abrlUgvFMltzX5Mbo26s2t1dj1cJG3Lzlse3NY+8HrqFtrQ1lWxZuNG0ZMvO4aSqLSyq8BSl06G804Su8E+bKfKXIPiayPyS6HuRDGoNIstJjx4jWuA5XG4RzgcYjdjyqaq6bRUew+MXNPMOODzE8Ucq7zJ1JpdR8CzQ5lQpsWU/S6PRJcF15lK1xXzqzLJutGZboWbTzrZqTsfBxafMoyPxPAe/x0/6uf2kJG1A2FdmLvBByMfX1SfFlfodHocWfE7dp7sXSrUUzTzaUpCuhl1SoyEc+A9/jp/1c/tIZtsIda3ubkSfKVSxAt0cGuzAHkC1LAAEaiQAAEQAAEQAAEQAAEQAAEQAAEWHfg3fbo47/C/6JmDRvwmXtS639/KF+kWBm1Y9Oj428IVS7asVyTRqfRsuFQ4TceU7zbgeNjjGwbhqNa0KYNTauSj5pUolb7nvtzc1p2tetJXQLytqlV6lurbdXCqcNuUwpaFEpCjbcI0maVESiPboZEZD6A/8hQLVpvR+lGeLUo0yAc4bUc/HZiHAc61uhncHTe08o62wqxeEE+tbCP8A4xWz/wCT4/fV9+/7pc+PUr80FlLhtG07tagsXVbFJrLdMmNVGEioQmpKYstvfs32icSfBxO58Vp2UW57GP8Aaxadq3DUKXVq/bNKqc6hvnKpcmZCbedgvGXE3GFrIzaWZdOSTI9h8/AQByVA/oHB4fAPWtre4gb/AJbmdJv4/C7F6wAAqrEAABEAABEAABEAABEAABEAABEABTXW14RylaPL/oWOWcTS7wqVVo5VuQ6qsppzEdhbzjLSUK7F5TizUw8aiNKCSRN7GvkZIIrlAMq/XzvuXfnt+oB6+d9y789v1AEWqgDKv1877l357fqAevnfcu/Pb9QBFqoAyr9fO+5d+e36gHr533Lvz2/UARaqAMq/XzvuXfnt+oB6+d9y789v1AEWqgDKv1877l357fqAevnfcu/Pb9QBFqoAyr9fO+5d+e36gHr533Lvz2/UARaqAMq/XzvuXfnt+oB6+d9y789v1AEWqgDKv1877l357fqAevnfcu/Pb9QBFqoAyr9fO+5d+e36gHr533Lvz2/UARaqAMq/XzvuXfnt+oDQnTdm+laj8JWtmijUOXRo9xx3VLgSXEuLjPsvuR3kEtPRaCdZc4L2SakcVGlBmaCIpLAABEAABEAABEAABEAABEAABEAABEAABEAABEAABEAABEAABEAABEAABEAABEAABEAABEAABEAABEAABEAABEAABEAABEAABEAABEAABEAABEAABEAABEAABEAABEEZ6nfa15Z+I1e/MHhJgjPU77WvLPxGr35g8NroH7a2b8oz/kFZV8Q8yzS8EL7ZS5fiNM/P4A15GQ3ghfbKXL8Rpn5/AGvI6r3ffuyf+Tp+QrA0V9j9JQAAcVWyQAAEQAAEQAAEQAAEQAAEQAAEQAAEQAAEVWfCfe0ayV+Bv0xCFWvAe/x0/wCrn9pC0vhPvaNZK/A36YhCrXgPf46f9XP7SEZ8cLMZ9jO5/iWpYAAkWGgAAIgAAIgAAIgAAIgAAIgAAIsO/wDOT/7cf7fG4gw7/wA5P/tx/t8biDv/AHdv6o/Nx5lqtF/0nOgAA4AtqgAAIgAAIgAAIgAAIgAAIgAAIgAAIg5S+sT4syh3H0zMaWpdvizte5ePaNGn917Tj2nZdshXDl2aOXHbfgnfzEOrAEUVepO0sfyacVf1Np3+CHqTtLH8mnFX9Tad/giVQBFFXqTtLH8mnFX9Tad/gh6k7Sx/JpxV/U2nf4IlUARRV6k7Sx/JpxV/U2nf4IepO0sfyacVf1Np3+CJVAEUVepO0sfyacVf1Np3+CHqTtLH8mnFX9Tad/giVQBFFXqTtLH8mnFX9Tad/gh6k7Sx/JpxV/U2nf4IlUARRV6k7Sx/JpxV/U2nf4IepO0sfyacVf1Np3+CJVAEUVepO0sfyacVf1Np3+CHqTtLH8mnFX9Tad/giVQBFFXqTtLH8mnFX9Tad/gh6k7Sx/JpxV/U2nf4IlUARRV6k7Sx/JpxV/U2nf4IepO0sfyacVf1Np3+CJVAEUVepO0sfyacVf1Np3+CJKpNJpVApUKhUKmRKdTadHbiQ4cRlLLEZhtJJbabbSRJQhKSJJJIiIiIiIfWAIgAAIgAAIgAAIgAAIgAAIgAAIgAAIgAAIgAAIgAAIgAAIgAAIgAAIgAAIgAAIgAAIgAAIgAAIgAAIgAAIgAAIgAAIgAAIgAAIgAAIgAAIgAAIgAAIgAAIgAAIgAAIgjPU77WvLPxGr35g8JMEZ6nfa15Z+I1e/MHhtdA/bWzflGf8grKviHmWaXghfbKXL8Rpn5/AGhsfVxi57UhJ0uvRK3FuxhslolPssJgPqOMmQTbbhOm4a+zUfQ2yLdKi382+eXghfbKXL8Rpn5/AEz5Jx1W72zxqcuayUkV549k2Zd9tr9+XDhPLU0Zfwica7RHEz2MzTuPoruj6F0dprXa3M0kS1rbNTLXTAa99SnSa529rTUlw3BaqxGo2xTS8a8AOWTl05TsVyc/wCfbF034/cyNf6Kg9BKWzCZi05DbkqQ84Z7JbS4tCT2SlSz3UWyUKPr5h02OL7pGT7CoGRKBGmR6bcdPZqUVqYhKH0NOpJSSWSFKSStj6kSjL7ZijuRcgUnWLRbsyfRmlqszFuMalLZQpZ8VXNUqevtEGWxc+7RyUgzPzOL3L3ztPpC9q7iv4qU78ikch09qtZ9B6Ap1a7XC2CpdqAnBocwuayN4aGuJ/xXdizGWjhqreD8Qg9JF09l6DygqXgABz5ZiAAAiAAAiAAAiAAAiAAAiAAAiAAAiqz4T72jWSvwN+mIQq14D3+On/Vz+0haXwn3tGslfgb9MQhVrwHv8dP+rn9pCM+OFmM+xnc/xLUsAASLDQAAEQAAEQAAEQAAEQAAEQAAEWGOqRupYB11XbcVFlxqpUKHeMe8Yneo6kMm9IW1U0MuISvkpCFPE2ZkpJqJJmXDfYtzhh34SL26ORPwR+iYY3EH0B3ZXG0av6uWypjUfZ+Md/EoHZhm4npWq0dhVrNGQPnKAKcVLUVqfTrNxniO7cYxsfWJcEuvtNLKqwqq9cbMWK4tp41ILnESRky4TeyVbrMjUoiMhccfP7eMxtQZGewx0ZZZ71uKjDSfwZzgHrn4tmHKgAAKxAAARAAARAAARAAARAAARAAARAAARAAARAAARAAARAAARAAARAAARAAARAAARAAARAAARAAARAAARAAARAAARAAARAAARAAARAAARAAARAAARAAARAAARAAARAAARAAARAAARAAARAAARAAARAAARAAARAAARAAARAAARAAARAAARAHB58/eKyN8Uqv+ZujIrGmKb+zBXX7ax1QfG9SjRFTnWO9Mx+LCVoQpfJ5aEn5TiC2I9+vm6GNDpbTL9G1mUWUi8u3HHqgyur6gdzSz66aOtOkrVbxZadBwBLmAtgiZLjUYG9PWtsQGTPqGtUvwXfLdO+kB6hrVL8F3y3TvpAwu+C3ewn9vyF6jwQare6ez9VP6QtZgGTPqGtUvwXfLdO+kB6hrVL8F3y3TvpAd8Fu9hP7fkJ4INVvdPZ+qn9IWswDJn1DWqX4LvlunfSA9Q1ql+C75bp30gO+C3ewn9vyE8EGq3uns/VT+kLWYBkz6hrVL8F3y3TvpAeoa1S/Bd8t076QHfBbvYT+35CeCDVb3T2fqp/SFrMIz1O+1ryz8Rq9+YPDOX1DWqX4LvlunfSB/LmhbVE82pp3FaVoWRpUlVappkoj85GXb9SGZo7Wm2WK2UrS6wvIY5rjnsIPqFZU7j+q7mEN1ns8x/l/SF53ghfbKXL8Rpn5/AF7cKWtc9K1dahblqluVSHSK03bBUyoSIbjcaabUN1LvYuqIkucFGRK4mfEzIj2FF6V4P/UjRW1tUzEaWCdMlLPx5T1Goy825nIM9vtfbP3x93qGtUvwXfLdO+kDpOv/AHYKusumrdbNG6NqCjaKTKQv4Phr6dS8Q0OAJcyIvOwxmcBrNFdxnQDbCxlu1lsrakyQwse0EHABxqsJw3sbu5TfjIeGLSx9poyfYeHrH7kis0StSm6bTW3X3JU6RHXuSEbqWpSj4pShPQiJKUkRERD3NLVHq9vaccbUOv0qZTalAtmAxKhzGFMvsOpZSSkLbWRKSoj6GRkRkM6/UNapfgu+W6d9ID1DWqX4LvlunfSB4Wvr7pe1aPdYbRYnvLqnCl7i4uJu3cSW475zWyPcc1UvNcNZ7Phe2U/viCf/APRydq1mAZM+oa1S/Bd8t076QHqGtUvwXfLdO+kDSd8Fu9hP7fkKTwQare6ez9VP6QtZgGTPqGtUvwXfLdO+kB6hrVL8F3y3TvpAd8Fu9hP7fkJ4INVvdPZ+qn9IWswDJn1DWqX4LvlunfSA9Q1ql+C75bp30gO+C3ewn9vyE8EGq3uns/VT+kLWYBkz6hrVL8F3y3TvpAeoa1S/Bd8t076QHfBbvYT+35CeCDVb3T2fqp/SFrMAyZ9Q1ql+C75bp30gPUNapfgu+W6d9IDvgt3sJ/b8hPBBqt7p7P1U/pC1mAZM+oa1S/Bd8t076QHqGtUvwXfLdO+kB3wW72E/t+Qngg1W909n6qf0hazAMmfUNapfgu+W6d9IES3zY1041umbZV60vxdWad2feY3btvdn2jaXEeW2pSD3QtJ9DPz7H13IRVtaLTZ23q1kc0bySPK1bDRvcK0LpmqaGjtYKVZ4ElrGMeQJAmG1yYkgTlJG9bgAAD2C+cFVnwn3tGslfgb9MQhVrwHv8dP+rn9pC0vhPvaNZK/A36YhCrXgPf46f9XP7SEZ8cLMZ9jO5/iWpYAAkWGgAAIgAM98neFm9LjJV2Y89IHxj6F65PovfPRV2PeO7SFs9rw7mrhy4cuPJW2+25+cel1a1Q01rfVfQ0LR4VzAC4XmNgEx9+5oOO5Q1rRTs4BqGJWhADNH15r7m/54fqIevNfc3/PD9RHsPAlr37B/3aPzix/TKy+q7D8S0uAZo+vNfc3/ADw/UQ9ea+5v+eH6iHgS179g/wC7R+cT0ysvquw/EtLgGaPrzX3N/wA8P1EPXmvub/nh+oh4Ete/YP8Au0fnE9MrL6rsPxLS4Bmj6819zf8APD9RD15r7m/54fqIeBLXv2D/ALtH5xPTKy+q7D8SrT4SL26ORPwR+iYY3EH/AD36kczeqDzRcWX/AEN+IPH/AHT/AKO753rsewiMx/3Xgjly7Hl7AtuW3Xbc7xevNfc3/PD9RHX+6P3O9ZdPaA0FYtH2a/Us1G5UF+mLrrlERLngHFjsWkjDPETr7Ha6NKrVc84OOGe8qf8AUL7enS5/3Lt/RyRa8YIZC1nak78yzSctnkfuNRtSXUXbWb8TwHfFEeYRoWxv2CUyNmuKObqVH5PItjMWps3ww1xUW1KTSLuwv6JK1DhtM1Cr+iNuH399KSJb3YNwjQ1yPc+CT2LfYhx+l3E9e+AaDYIInDhaO1xOypGE48uU5ra2jSVkNQFr5AaBkdhO8DOcO2FqMAzR9ea+5v8Anh+oh6819zf88P1EV8CWvfsH/do/OKL0ysvquw/EtLgGaPrzX3N/zw/UQ9ea+5v+eH6iHgS179g/7tH5xPTKy+q7D8S0uAZo+vNfc3/PD9RD15r7m/54fqIeBLXv2D/u0fnE9MrL6rsPxLS4Bmj6819zf88P1EaXDyms2pOndTuC9O6HBcLeu8Zjpuxe8Rzoi8M4mcNqno2mlaJ4MzHOgAA8qp0AABEAABEAABEAABEAABEAABEAABEAABEAABEAABEAABEAABEAABEAABEAABEAABEAABEAABEAABEAABEAABEAABEAABEAABEAABEAABEAABEAABEAABEAABEAABEAABEAABEAABEAABEAABEAABEAABEAABFwefP3isjfFKr/AJm6KIeDT/f1rvxSlfnkMXvz5+8Vkb4pVf8AM3RRDwaf7+td+KUr88hjymlvtxZV3/uf/wA3GnujyBaVgAD1a4AgAAIgAAIgAAIgAAIgAAIgAAIgAAIgAAIgAAIgAAIgAAIgAAIgyZ1y+2lvb8G/o6MNZhkzrl9tLe34N/R0YeU1w+wWfjjyOXf/APxx+6q0fm7/APspLWYAAerXAFVnwn3tGslfgb9MQhVrwHv8dP8Aq5/aQtL4T72jWSvwN+mIQq14D3+On/Vz+0hGfHCzGfYzuf4lqWAAJFhoAACIMKLntui3l4QKrWhckLvlIrmY36bPj9otvtoz1bU26jkgyUndClFukyMt9yMjG64w7/zk/wDtx/t8fQXcFqPpP0tUpmCKBIIwIImCCtVpQTwYO9aW+tu6LvgZ+cVW+lB627ou+Bn5xVb6ULLgOT9/etPtnaP21T5SzvQtD1A6gq0etu6LvgZ+cVW+lB627ou+Bn5xVb6ULLgHf3rT7Z2j9tU+UnoWh6gdQVaPW3dF3wM/OKrfSg9bd0XfAz84qt9KFlwDv71p9s7R+2qfKT0LQ9QOoKtHrbui74GfnFVvpQetu6LvgZ+cVW+lCy4B3960+2do/bVPlJ6FoeoHUFWj1t3Rd8DPziq30oPW3dF3wM/OKrfShZcA7+9afbO0ftqnyk9C0PUDqCrR627ou+Bn5xVb6UHrbui74GfnFVvpQsuAd/etPtnaP21T5SehaHqB1BVo9bd0XfAz84qt9KD1t3Rd8DPziq30oWXAO/vWn2ztH7ap8pPQtD1A6gq0etu6LvgZ+cVW+lB627ou+Bn5xVb6ULLgHf3rT7Z2j9tU+UnoWh6gdQVaPW3dF3wM/OKrfSg9bd0XfAz84qt9KFlwDv71p9s7R+2qfKT0LQ9QOoLBXWzjey8Ranbzx5jyjeKbfpPi7ucPvLr/AGXa0+M8vy3lKWrdxxauqj232LYiIhvUMO/CRe3RyJ+CP0TDG4g613Zq9W1at6tV67i57qBLnEkkk07OSSTiSTiScSVgaOAbWrAZT5ygAA+e1tkAABEAABEAABEAABEAABEAABEAABEAABEAABEAABEAABEAABEAABEAABEAABEAABEAABEAABEAABEAABEAABEAABEAABEAABEAABEAABEAABEAABEAABEAABEAABEAABEAABEAABEAABEAABEAABEAABEAABFwefP3isjfFKr/AJm6KIeDT/f1rvxSlfnkMXvz5+8Vkb4pVf8AM3RRDwaf7+td+KUr88hjymlvtxZV3/uf/wA3GnujyBaVgAD1a4AgAAIgCldgTdWDmrqo4UuLVP41otr0mFc8z/8AYemseMo7j6ErheR5bO6VGXaksz93iLVVTK2LqI3V3q1km1oCLfeajVdUqsR2ip7zpbttyDUsuyUsuqUr2My8249JpjVqvomrTo0qra5exrxwYqGGvi7N+mwy6RAAOcGDgoWVg97mRF0xsxMThjux/gx1QDzqFcdvXTRo9xWzXqdV6TLQbkefAlIkR3UkZkakOIM0qLcjLcj9wxzlHzXhq4q96Fbfy3ZlTrXM2/FsOvRXpXIj2NPZIcNe5H022GlZYrVUvhlNxueNAPF58MOlSXmgXpwXaAKwY/1q2NWs4ZVsK98lY3o1rWk7TGrbqS6yzHVUjdZWqURuuvm28bbiST9TSnjvsrcxO83KWMqadbTUcjWxFO2SZVWyeq8dHiwni3aOTuv6iSy6p57cvc3Gy0lq3pTRVZtG0UXS5rHCASIe1rhsz47QRscbuatbVY5zmg4tJB5wuoAeHSb6siv1NFFoV40Oo1ByntVZESJUGXnlQXNuzkkhKjUbKty4ubcT3LYx9DF0WzKuCVaUW4qY9XILCJUqmNy21S2GVnshxbJHzShR+ZRkRH7g1TrNXYSHMIIEnA4DfzcquDmkSCvUAcjXMwYktmvotS5Mo2jSa24aSRTZ1bjMSlcvY7NLWSz39zp1EL1TWHbFv6sZ+FrivqwKXZlPtM6k/VZlTbYfZrJSibOEt5bxNJUTRmrsjQTnTffboNpo/VzSek75s9FxusNTI4tESW4Y5iIzVtSqyl4x3dpgKywDmqvkzG9v2zDvWvZBtqm29UUtrh1aZVmGYUlLieTZtvrWSFkpPVOxnuXUh6FAuq17rordy2vclLrFIeSpTdQgTG5EZZJ9kZOoM0mRbHvsfTYax1ktDKfCupuDZiYMTunKeTNXhwJAG1eqA5GNl7E0yLRJ0TKFpPxrlkKiUV5utxlIqb6V8FNRlEvZ5ZL8k0o3MldPOP1u3K2LrBlx6ffeSLWtyVLLlHYq9Yjw3Hi323Ql1aTV194SDR1sNQUhSdeMwLpnDA4ROBwO7aqX2kEzkupAflFlxZ8ZqbBktSI76EuNPNLJaHEGW5KSouhkZdSMh+oxCCDBVQQRIQAAUVUAABEAABEGTOuX20t7fg39HRhrMMmdcvtpb2/Bv6OjDymuH2Cz8ceRy7//AOOP3VWj83f/ANlJazAAD1a4Aqs+E+9o1kr8DfpiEKteA9/jp/1c/tIWl8J97RrJX4G/TEIVa8B7/HT/AKuf2kIz44WYz7Gdz/EtSwABIsNAAARBh3/nJ/8Abj/b43EGHf8AnJ/9uP8Ab47/ANwn+t/zc+darSf9HzrcQAAcAW1QAAEQAAEQAAEQAAEQAAEQAAEQAAEQAAEWHfhIvbo5E/BH6JhjcQYd+Ei9ujkT8EfomGNxB3/uv/crqx+bn/rs61Wj/r9bn85QAAcAW1QAAEQAAEQAAEQAAEQAAEQAAEQAAEQAAEQAAEQAAEQAAEQAAEQAAEQAAEQAAEQAAEQAAEQAAEQAAEQAAEQAAEQAAEQAAEQAAEQAAEQAAEQAAEQAAEQAAEQAAEQAAEQAAEQAAEQAAEQAAEQAAEQAAEQAAEQAAEXB58/eKyN8Uqv+ZuiiHg0/39a78UpX55DF78+fvFZG+KVX/M3RRDwaf7+td+KUr88hjymlvtxZV3/uf/zcae6PIFpWAAPVrgCAAAiqvZf/ANo9kT/w5p35w0OZw1hzGOTNVWomrZFsql3Muj12ltQo9WYKVEZ7WEfaLKO5u0az4JLmaTURFsRlue/SWbpJztbecvTyq2rPxvUpjceBWGPQHDj+MKY06lfdOSXjS1vxIu1QjmXn3MS5jHCvpcZLybkT0S+MfTGqMKf3PufY9w7uwbXDtO0V2vLfffijbzbH5x1fSOnrDYKNYaPtodUdZKNIGmKrTfp1KV8S5jCAWtcZyIwOJha59F9Spi3DhA7ZkKbm7/VR1jliq9lYpuK47B1aafcPTW6G0V0dnQoROm1Gjk8224/HQZfubbqEG1t7EiV724+ezbhwfjKbZFpZ/wBCbmMKsxVIEGnXTFpsabBTUW1pUw6upsml3kpxslbGpw/PyNSSUoWDPSmh1OWUqybW6c5k6uxK8xMorRQ5lGej8DbJt01L7Tym0mZ8UGaTMi233LnWtJGULuqNGi581RVrINq0GosVSLQW7biUkn5DCt2e8yGVKcfSR7GZHtufXcjG3ZrXoq1Cs21WsCm4tcbvDsrF/AU2OcxzBwbyXtIIrACQXNdDzNtShUAIY3bUjKOM4kAg7IjLEZQo9wThbDlxav8AUjQ7gxNZlTptIft1VPhzKDFeYhqeiOreNptaDS2a1ESlcSLkfU9zH94qxFjbJutzUW9kKzqdcTNDet1UKFUmikQ0LdgLSpao692lrJKdkqUkzQSl8duR7yrfWl6+5GXqzmLCWoCpY3qd1x4se4450CLWGJ3dkkhlaEyFETKiRuW+yvOe225kfX40wQvHmZsn5ecuzxkrJB0pSoHcOx7icNhTX7p2iu158uXsUcdtuvnGututtF1C02qhbjwlWyUaTWjhQ9lRhswqAm6GC+Kb3S15DgIdDiAZKtAuLgGzNQO2ZYyOiVGNkQaXRfCD3RRaTDiwYcTFVOYiRI7aWmmWkTSSlDaE7ElKS2IiItiLYcdkK661YupTUZeduHtVKJiGNOhq48uDzaXFIVt7uxkR/wBAmDMumm4b5yZS804nzBOxvfMGlKoUioN0hiqx5lPNZudkuO8aU8iWe5K3PzF03IjL8sW6U0WBky7Mi3Lkqq3w5edAZotVarcZKnH1JUZuLNaVEgm1JPgllDSUoSRFufUzis+nNDMpej69cPebNTpGkWvvFzKlMul125dc1hIN4nGHAbb+DdTqODW4FzDIjAC5PTxTyRt2LiNKmlbT9W9Olp3FduObevCt3lSWa5WazWYbc2a9LlIJx0ifc5Lb4mo0eQpJ7pMz8o1GfHxsIYcPwhq7Fk4ttWZb7GJWpaadMpLEllUhE9DSX1pdSrm92ZEntVbrMvOox3MHRplCzac9YeI9W12Wljp9ThJt9VGizpUNpxRqcai1BaidYT5R8TSRqT5zNR7mfQX7pMrc65LSv3Dea6vj+7bVttq0fGjtKj1dE6mN7GlDzDpoQbnIuRrLpvt5O5EZZnfHQ9MbXXdpcuZaW1Q2RXApXoLL4u4ERdikKgGwwoG2dzaIolmLbpnDEhzSY2yQDmB24RzY2NrBzDrNyjQci2dSanb+I6NQ6JaFtyobaqXBjyY5uOuIiGXZb7oJJeTsRGkv4KOP0Ue26DhLWxWMc4vp8ajWte+OX6/VaFBSbcSPPYfW0iQ2yXkNckFx2QRF1Pp5t5AvbSrdlauKi5TsPO9Vs7KMSjM0StXNHosaTGrzKEluuTT1GlnnyLknieyehbHxRx9zEOmxzH9XuS/r6yNU7+yDdUMqdNuKfEbjJZiJLyY8aK2ZoYa5eUaUn1MiPoMe06yWA2d9T0ZfYbOyiKEVMKjQ0Gpi0U7pe01g69whc6CwGSp6dM8NeLIl7XA4cUAtJG/AAtwkEHPNQl4OXC2KZeme0Mo1THlIrV1Kfnvs1GoRky5EZUefIJlMVTvLu2xp5bNcS5qUo/KMzEQ6e0ZGyPaNSytV9BNBzNVLyqs6VNumvXfSkrWaH3G0sMxpja1xW2iT2ZJSZbkgjLyeJFejTVhT1PGGqFiP0TeiDxKuWvxh3LunbdvJcf8A3LtHOO3acfZHvtv032KOZukm+rOuCtVXTZqLrGL6bcU5dSqFCcoEStU1Elfs1xWZBp7vyPqokme/QuiUpIs4a62K06W0s+pWaRXq3qVSqbSGCmH1Dc+oObWaHBzHAQWywBzQQ0iCnZXtszGxBBkgRJzjOQYnbsJ2wv30QWPljHVh3RbGS7Dds2n+ieXOtihrrEepJptMfJKyjIfZWrklDhueyJJnyM9uvSxwjrCWJqpiagVOFcGSrhvqtVyprq1Rq1ZUklKeU2232bLaejLKUtJ4tkZknc9ti2IpFHM9Z7e3Sml69saWm+Zlgc1pMCSA8l+JxlxvE4nEwsyzs4Ondjac42knZh0DLJAABoVOgAAIgAAIgyZ1y+2lvb8G/o6MNZhkzrl9tLe34N/R0YeU1w+wWfjjyOXf/wDxx+6q0fm7/wDspLWYAAerXAFVnwn3tGslfgb9MQhVrwHv8dP+rn9pC0vhPvaNZK/A36YhCrXgPf46f9XP7SEZ8cLMZ9jO5/iWpYAAkWGgAAIgw7/zk/8Atx/t8biDDv8Azk/+3H+3x3/uE/1v+bnzrVaT/o+dbiAADgC2qAI2zLYuZb2apKMQ539LZcNT5z1+heLWe/EokdmW0hRdlw4r9j7Ln18xCrliN60b2zrkjCvqze5el8zTHvGfpd0lzv3fGe027Hp2XDzezVv5+nmHq9D6r09L2SpaxbqNPg233teK95rb7WAm5Re0y5zYDXOMHECDENWqaUG6SMBhGZ2YkK9gDgbGny8f0e3sfZczRSbovepd7XHmSY8WkSaslClOH2MJtex9k0aUqNG/RPJW25j0UZdxO7bkq8Gsn2kugwZKocqqJrUY4bEhJEZtLe58ErIjIzSZkfUug0dXR1dtQtog1GzAc1rrrsSAW3mtdDiDEgHAggEEK8PEcbA7jH8ZYrrQHMWdlHGeRFSEY/yJbFzKiERyCo1XjzTZI/Nz7JauP9I5W0q45blyZHrF7ah7fuCi0yU094sWxCglZ7BpWrsZT6FmpXJJpMlv8T2RuXnMXN0ZX+qNqAtewA3S194y4AAQ0gHGeMWg5AlxAIvGBGMmOwnzbMeSJiUQHJO5dxOzW6bbT2T7Sbq9ZaZfptPVWoxSZrbpbtLZaNfJxKy6pNJGSi82496t16h2zS5FcuSswaVTYieciZOkIYYaT763FmSUl9szGM+x2im5rX03AuykHHZhv6Fc0h5huK+8Bz9oZCsDIUV6bYN8W/cseOokPPUepszENqPzEpTSlER9D6GPmu3K2LrBlx6ffeSLWtyVLLlHYq9Yjw3Hi323Ql1aTV194XCw2p1Y2YUncIPvbpvdUSqB7S0uBwC6kB+UWXFnxmpsGS1IjvoS4080slocQZbkpKi6GRl1IyH6jGIIMFVBBEhAABRVQAAEWHfhIvbo5E/BH6JhjcQYd+Ei9ujkT8EfomGNxB3/ALr/ANyurH5uf+uzrVaP+v1ufzlAABwBbVAAARAAARAAARAAARAAARAAARAAARAAARAAARAAARAAARAAARAAARAAARAAARAAARAAARAAARAAARAAARAAARAAARAAARAAARAAARAAARAAARAAARAAARAAARAAARAAARAAARAAARAAARAAARAAARAAARAAARcHnz94rI3xSq/5m6KIeDT/AH9a78UpX55DF78+fvFZG+KVX/M3RRDwaf7+td+KUr88hjymlvtxZV3/ALn/APNxp7o8gWlYAA9WuAIAACIAACIAACIAACIAACIAACIAACIAACIAACIAACIAACIAACIMmdcvtpb2/Bv6OjDWYZM65fbS3t+Df0dGHlNcPsFn448jl3//AMcfuqtH5u//ALKS1mAAHq1wBQHr1sf0wtHeVqD407h3WgOVztew7Xl4uWif2XHknbtO69ny38nny2VtxPPzwKd6VSDmXIOO2Y8U6bW7YarUh1SFdul+DKbZaSg+XEkGmoPGojSZmaW9jTsZK0s1We1dzD8Qbg/Rz4y08DB7aK6PiDN/SNOEbvGCzKONB4WzwAAkWGgAAIgw7/zk/wDtx/t8biDDv/OT/wC3H+3x3/uE/wBb/m5861Wk/wCj51uIAAOALaoKq4J9vVqQ/wDcrZ/MzFqhFViYL9BOdckZq9FPffTBZpjPizuPZ9x7mz2e/bdofa8/P7BO3m6+cek0Fb7PY7HpGlXdDqtEMZgTLuGovjAYcVrjJgYRMkBRV2l7AG+qaeoqDNWdmW7kLWDpxs67YKptHqTNzJlxieW0T6Ew0r7NRoMjNCjSRKTvspJqSojSZkfYahI+mLEVs2rj+rYAh3K7XK25Mt2yrZoLX+XT22DQ5IXHRwaUlDayJSnCVsRkfE+O6ZCyBgr0dZzxlmn0U9y9LlFVT4t7j2vf++R+y/de0T2XDz+wXy83Tzj5s/afnMyybWum2r/qNj3rZEt+XQa9DityiYN5BIebdjuGSXkLSkiNJmXul1I1Efp7JrBYnnRNktFpe2jRpPDw01GhtQ1K7mzdEwb1O+5gLrhIHGECKpSJrVagAJIbE7w2CPN+5VGlR69b2pzBtzRdIFOwa3Mr79JObTatBMqsw9HVzYeiQ0oJJpI9yWvf3vc2L17t/wDVmu3/APDhfo9YmlvSHe9avqwsmZM1HV68bhsqrlUT7zSGYkB1kkKT2TEOOtDcdajURrePtVq4JLoRdfXq+lHxpFztG9HvZenWlhPLxXy8UdnHNn/74u8b78v/AGe3m+2PUVNb9DCpSLqzZbTpsJaK7my22MqmDWvVCBTBdxo3AAw1Y7aNQ1WPggBzTjGxlRpy527z1QIRyvp2wrRdAUm86bjykN3OzaFNrqbgUwS6r3022HDc72rd7Y1blxJXEknxIiLoPIzbcN/5Iztiex3sMnl+BTccxrwO2ZlwR6VFm1B1ZNLmvm+RtyCbIiSTSk+d1R9U8iO2V7YN9GOnB/T76KO6dtbka3/G/cu027JttHbdh2hefs9+PPpv5z2HhZE0tUq96XZNQo181i0r5x/Bbg0e66OhKXuzS0SFtPMrM0usLMuRtKP3VFvspRK12iddrEx1/SFU1H8LabpfwpuNq02Na6WFrw0kEEMcHgSQJgG2nZHtoMY0Q65ByzBYYOcyA4bRiZwJUE2DjvOMDUbY+SLa0YUvDNDp8eoU+6fEdz0mSxVYbrO7KVxo/ZbGh5CVEpKVKMzLfokRfp7RkbI9o1LK1X0E0HM1UvKqzpU26a9d9KStZofcbSwzGmNrXFbaJPZklJluSCMvJ4kVurD085ih39Q77zHqmuG/Cttb7tPpMShRKJAW66ypo1yWmDUT5pS4o0mexpPbY9tyPx5ukm+rOuCtVXTZqLrGL6bcU5dSqFCcoEStU1Elfs1xWZBp7vyPqokme/QuiUpIti3XLRx4SzPqUL5ZTa2oPRwpwx9VzmOeH+iXE32uBILOKG3eK1wuNneWy0HMEji44ESABdkYZ5jmC/fRBY+WMdWHdFsZLsN2zaf6J5c62KGusR6kmm0x8krKMh9lauSUOG57IkmfIz269LHCOsJYmqmJqBU4VwZKuG+q1XKmurVGrVlSSUp5TbbfZstp6MspS0ni2RmSdz22LYikUcq1nt7dKaXr2xpab5mWBzWkwJIDyX4nGXG8TicTCy7Ozg6d2NpzjaSdmHQMskAAGhU6AAAiw78JF7dHIn4I/RMMbiDDvwkXt0cifgj9EwxuIO/91/7ldWPzc/8AXZ1qtH/X63P5ygAA4AtqgAAIgAAIgAAIgAAIgAAIgAAIgAAIgAAIgAAIgAAIgAAIgAAIgAAIgAAIgAAIgAAIgAAIgAAIgAAIgAAIgAAIgAAIgAAIgAAIgAAIgAAIgAAIgAAIgAAIgAAIgAAIgAAIgAAIgAAIgAAIgAAIgAAIgAAIgAAIuKzbT59WwzftLpcJ+ZNmWxVY8aNHbU4686uI4lCEISRmpRmZEREW5mZEQyotrGOqGy57lUs7HuUqFNdZOO5JplJqMV1bRqJRoNbaCM0maUntvtukj9whsYA0mlNCs0nUbVLy0t3Lp+ondOtGo1jr2KnZWVmVXAm+TsERGR6Vkz+zq/07/LAfs6v9O/ywNZgGv71/9Q9ew8O34Is/V+5ZM/s6v9O/ywH7Or/Tv8sDWYA71/8AUPTw7fgiz9X7lkz+zq/07/LAfs6v9O/ywNZgDvX/ANQ9PDt+CLP1fuWTP7Or/Tv8sB+zq/07/LA1mAO9f/UPTw7fgiz9X7lkz+zq/wBO/wAsB+zq/wBO/wAsDWYA71/9Q9PDt+CLP1fuWTP7Or/Tv8sB+zq/07/LA1mAO9f/AFD08O34Is/V+5ZM/s6v9O/ywH7Or/Tv8sDWYA71/wDUPTw7fgiz9X7lkz+zq/07/LAfs6v9O/ywNZgDvX/1D08O34Is/V+5ZM/s6v8ATv8ALA+Cu1/Wba9Kfrty1rNFJpsbj28ydJqsdhrkokp5OLMkp3UpKS3PqZkXujXUQPrl9q1e34N/SMYY9r1dNms9SsK7yWtJ6hK3Gr3dkZprS9k0bU0TQaK1SmwkDEB7g0kYbJWedrX9qvvjvXoKvXLVwdy4d58V1KpS+w58uHPs1Hx5cVbb+fie3mMe9+zq/wBO/wAsCd/Bd/xmfgb/AJ0XvGPorQbtIWRlpdXcC6cJ3EjzLca+91GlqhrDaNC0NF0HtpXIcWgE3mNfsEYXoWTP7Or/AE7/ACwH7Or/AE7/ACwNZgGw71/9Q9eP8O34Is/V+5ZM/s6v9O/ywH7Or/Tv8sDWYA71/wDUPTw7fgiz9X7lkz+zq/07/LAfs6v9O/ywNZgDvX/1D08O34Is/V+5ZM/s6v8ATv8ALA5Ku4i1JXRVX67cuMMl1apSePbzJ1FnyH3eKSSnk4tBqVslKUlufQiIvcGyYCx+qbKgh9dxHKsizf8AkDaLG/hLNouix0RLZBjdIGSAAD1y+eFFmqz2ruYfiDcH6OfGWngYPbRXR8QZv6Rpw1L1We1dzD8Qbg/Rz4y08DB7aK6PiDN/SNOEbvGCzKP1h62eAAEiw0AABEGHf+cn/wBuP9vjcQY5520Bat7yzfkK77bxN3ykVy6qtUoEjx9TG+2jPS3XGl8VyCUndCknsoiMt9jIjHd+4ZpDRtjtGkaOkrSyg2rSuhz3NaJJIwvESRMxK1ek2PcGFjSYOxbGAMO/W3daPwM/OKk/Sg9bd1o/Az84qT9KGR4INVvdPZ+qn9IVPTCv6ye34luIAw79bd1o/Az84qT9KD1t3Wj8DPzipP0oPBBqt7p7P1U/pCemFf1k9vxLcQeBceQbCs+qUah3be9AolSuOR3SjQ6jUmYz9Sf5IT2UdtxRKeXydbTxQRnu4gv4Rb4tetu60fgZ+cVJ+lCsVVx1e8zL7mHW6Ko7u8flayKacln/ANZFI7t2BO8+y27bdPPnw678tuo8brvqPoPVWwMtej9MU7ZUc8NuUw2QIJLiW1XwBAGWJIWdo+pUtlQsewtAEyf/AIF/0wgMO/W3daPwM/OKk/Sg9bd1o/Az84qT9KHsvBBqt7p7P1U/pCwfTCv6ye34luIAw79bd1o/Az84qT9KD1t3Wj8DPzipP0oPBBqt7p7P1U/pCemFf1k9vxLcQBh3627rR+Bn5xUn6UHrbutH4GfnFSfpQeCDVb3T2fqp/SE9MK/rJ7fiW4gDDv1t3Wj8DPzipP0oPW3daPwM/OKk/Sg8EGq3uns/VT+kJ6YV/WT2/EtxAGHfrbutH4GfnFSfpQetu60fgZ+cVJ+lB4INVvdPZ+qn9IT0wr+snt+JbiAMO/W3daPwM/OKk/Sg9bd1o/Az84qT9KDwQare6ez9VP6QnphX9ZPb8SeEi9ujkT8EfomGNxBh3627rR+Bn5xUn6UNxA7tNq0V6VaE0Zoy2U7T6GpvpudTc13itotBIa5129dJAJ34mE0c19+o97SJM49KAADgC2qAAAiAAAiAAAiAAAiAAAiAAAiAAAiAAAiAAAiAAAiAAAiAAAiAAAiAAAiAAAiAAAiAAAiAAAiAAAiAAAiAAAiAAAiAAAiAAAiAAAiAAAiAAAiAAAiAAAiAAAiAAAiAAAiAAAiAAAiAAAiAAAiAAAiAAAiAAAiAAAiAAAiAAAiAAAiAAAiAAAiAAAiAAAiAAAiCB9cvtWr2/Bv6RjCeBA+uX2rV7fg39Ixhg6U+wa34jvIV6rUT7qtGfnFH/saoI8F3/GZ+Bv8AnRauJqCxBOy/KwLGvFCr7hs9u9SVQpKTJHZJe6PKbJlR9mtKtkrM9t+nQ9qqeC7/AIzPwN/zo4vKtnVuRqV1CZmsiGp+78RTrPummtoLZUqKiC6U6IaiLkSHGCUaiLqrs0l1HpO5Rq9YtYrBVpWyoWXKZLCCAOEdXZSZfkHiXqnGiCBjOC9L3dXvp67W91MS6aIjfNGnhznIbjmr75QyrYGGLQkX5ku4UUWhxXWmXJSo7r59o4okoSTbKVLUZmfuJPYtzPYiMx6loXbb9+WtSr0tOod+o1biNzoMnsltdsw4klIVwcJK07kZdFER++Qo/qRu2g6soNXetmQc6w8a44n3pOVslTT1cnQHCp8dzqZc2GjdePbqlZkR/as1pC9q7iv4qU78ikek0xqrR0Pq/SttYuFqNS69hgNY1zS5gIib5ADjjF1zREyuTNtHCVmtZiwgmeUXThyQ4dMqXgAB4VZSAAAiAAAiAAAiizVZ7V3MPxBuD9HPjLTwMHtoro+IM39I04al6rPau5h+INwfo58ZaeBg9tFdHxBm/pGnCN3jBZlH6w9bPAACRYaAAAiAAAiAAAiAAAi8q67ooVkWtWL0uid3KjUCnyKpUZPZLc7CKw2px1fBBGtXFCVHskjM9tiIz6DCTQvbtd1C67LTuO8F1WoylV+VfNcqECOhHCVHNcxLzxIbNtplyYTDatkpL6sSEmlSk7aleEyyf6WOju8+6VzxbVbs7va9P/ybtu896X/lbHVCko5QUTPLVx228lRL4CovgT8bd4unJOYJcSqteL6fEtqnv9nxgyO8OHIlo5Gny3m+7Qz2SsuKX/KSfNBlG7FwCzaHEouf0LWAQZmHW5pgwHeB2DlrJviKvFFamnE8S1CV9Rc34K5sMLR14n05b9OpCcxjp4Q3HJZb8IlT8dJSanq1Z6GopEe3+UphzHGD85f+1Qjznt7/AEFtWoWOYBtMdhPmWOxgc1xOwT2gedae33qXwfjTFdHzXe19s02zK+mKqmVPuUl7vJSWzdZ4sttqd3UgjVsaNyIj322H94Q1H4Y1HUqp1vDF5eiGFR5CIs13xdLidk6pPJKdpLTZq3LrukjIY603JsrVBiLTdpGOWpTtFrNS8fJbPi4iHH3VHPbfbyYqpBbn13T5vftX4EL96zJfxgifmxjLbTD3ViPFbi3lEtGPWdyxXVC0UgfGODuQ8bLqG/NaVAACJSoAACIAACIAACIAACIAACIAACIAACIAACIAACIAACIAACIAACIAACIAACIAACIAACIAACIAACIAACIAACIAACIAACIAACIAACIAACIAACIAACIAACIAACIAACIAACIAACIAACIAACIAACIAACIAACIAACIAACIAACIAACIAACIAACIAACIAACIAACIAACIAACIAACIAACIAACIAACIAACIIH1y+1avb8G/pGMJ4ED65fatXt+Df0jGGDpT7BrfiO8hXqtRPuq0Z+cUf+xqgjwXf8Zn4G/50SZgthmTrP1ORpLKHWnWLTQ42tJKStJwHiMjI+hkZe4Iz8F3/ABmfgb/nRe8ZGpGlfS7QdagGzw9MsmYuxXZUnIz9biMM5nCD6ju4Nv6824ZY0T1UaarRc2nvHGnPSXmC1Mbw5TUOp0Ku1SQuW6l101riLJLfIkp+poSSUII9zIi6mZmZn3OkL2ruK/ipTvyKRLwD1Ft1ktOkrA+y2wl9R9XhTULpJNy7BEdMzyQuUcC1rmluAF74RafN2oAAPOqVAAARAAARAAARRZqs9q7mH4g3B+jnxlp4GD20V0fEGb+kacNS9VntXcw/EG4P0c+MtPAwe2iuj4gzf0jThG7xgsyj9YetngABIsNAAARAAARAAARAAARZk+GwyT3e1sbYfiS6U74wqEu5agx2nKdH7u2UeIviSvIZc7zMLdSD5KY8lRcFkcz+CQsf0J6O6dXvGnevRpX6nXOy7Dh3TgtMDsuXI+037h2nLZP7rx28nkrPLwqGSfTC1iXFT48ulSoFl0+FbUR+A5z5cEHIfQ8olKSbzcqVJaURcePZEg08kqM9ssU2P6WOLrOxt408ZehOgU+h997Dse891joZ7Xs+SuHLhy48lbb7bn5xG3FxKzavEoNbvxXVCnGSNG+Tbw1+2bqpptdtdu07diR2JUJ+VIKorU20+hXBtLBtGW7qdt3C6Ef9NxwEgEVGVNrTI58R51hHjMdTOThB5ln/AKdfBu3bhjVHfOZqpXLXlWzUI1abteJFfkKlxVzHNmzfStkkIJDKnEGaHFnuZectxI3g6dImSdItl3fbmSa3bVSk1+qMTYy6HJkPIQhDXAyWbzLRke/vEZbe6LdAFL6kwMbldDegEuHaUqfVXX3Z3i7pIg9iAAAiAAAiAAAiAAAiAAAiAAAiAAAiAAAiAAAiAAAiAAAiAAAiAAAiAAAiAAAiAAAiAAAiAAAiAAAiAAAiAAAiAAAiAAAiAAAiAAAiAAAiAAAiAAAiAAAiAAAiAAAiAOZr13tw1KiUzZx5J7LcMt0p+0Xvn/8AAf1atxS6q67DmklS0I7RK0ltuW5EZH/vIR8K29dWadH1xR4ciB2rpAABIsJAAARAAARAAARAAARAAARAAARAAARAAARAAARAAARAAARAAARAAARAAARAAARAAARAAARAAARAAARAAARAAARBA+uX2rV7fg39IxhPAgfXL7Vq9vwb+kYwwdKfYNb8R3kK9VqJ91WjPzij/wBjVBHgu/4zPwN/zoveKIeC7/jM/A3/ADoveMDVr7V0v0v+RXq+7b93du/Vf9NNAABvVypAAARAAARAAARAAARRZqs9q7mH4g3B+jnxlp4GD20V0fEGb+kacNS9VntXcw/EG4P0c+MtPAwe2iuj4gzf0jThG7xgsyj9YetngABIsNAAARAAARAAARAAQHr1vj0vdHeVq94r7/3qgOUPsu37Lj4xWiB2vLirfs+9dpx28rhx3TvyKhMYq5rbxDQsgNOTlU1F+EMte7aPDi0d+48jO3suJJkqcRHYZlOVR5gnEt7rWTTLiEHwSSl8d+BGZlv2MdvAv428f5uvLJ8qJSpEW0KAiAz3hvnKjzp7v1N5jdJkjZiLMbWslJVs8SSJSVr22JFlMYSsm2Hj3RsQAASLEQAAEQAAEQAAEQAAEQAAEQAAEQAAEQAHl3V9bFY/9wkfk1COtU4Km6pEwCepSUmcLUazeQF6gDNjQvoU00Zk0p2lke8LKnovCrFUkOV2BXZ0aQ0pE19ltxtCXuxSpKEJIt2zI9upHue83aYb4yNi7PV66PMr35MvGPQaQzc9n3DVDI571JWpKHGJLn/tFNrUREtXlHxcPfjxSidzODqGi88YTzGBJx5gTjsB24K0gFpezEAwd+d2duEwOnJW5AVdqnhCsSMzZ79rY4yxedr0p5xideNtWk5MoMdTR7Omcnmk1JR5zUlKk7GRkZke47HJmsjCWLLOsPIdZqk+o2vkSW3FpVWpkdLzLSVtm52zyVKS4lBJIyNKUrcJRceG/QRX23b04YduXXs3qrqb2OuOGOJ6s+raMxtU4gK7WLrkxbeGSqXi6t2Tkew6ncZrTbkm8baXS4ldNPXaKtSjMzNOxp7RKN+SU+yUST/bJOsy3MfX5Vce0rB2Z79n0M20VGTZ1oqqESM4tpDqW1Om4jdXBxBnsRkW/nFSQIJ2z2Z9W1ODdeLYxHnyVgwELW7q4xFduDLmz9bj1Xm0Sz2Jblap3c+xqcN6Mjm7GWw6pJE6RGWxGvie/svOOBka9bFuu0TrWM8SZlu+FNoa551O3rSXIiwXzZJRxXJHaE2chvkRKJpTiUqIy5bkZC2q/gmuOd0T0QSOgxgcldToue4DKTHTgCOcTkrTgKI+D61ZXJcmHrNsq+8d5quKqLbqr0u/ahSHJdFeS27JeIlVJ141KMkIJgty6OESPMW47OJ4TfBVTtKHfVFsHKtVoGxHWqlAtfvEW3N18SKoPodNpszSZL4tqcVxMtyJRkkS1Q2k4tJy/eJ5Bgc1aKbyYA39n8ZZq3YCsVzeEPwHbc1qUxTr3rlnd5ahzL8pFvuSLagPOGkiQ7N3IjMjWkjJtKzIz28+5CS8z6kMZ4OpNGnXLIqVWqNzOdjb9DoEJVQqdZc4krjGYR7MtlJ8ozJPlJLfdREdl4Xb2yY6dg6dm/Ygpuc64BjE9Az6tu7apSAQjhzVrYOX7uex29Z992FdyIaqgxQb3oKqVMlxUqJKnmSNSkuJIzLciVy23PbYjMuH9cRxNOj1UrRxnli76lQqpMptUpduWwVQkwUx1mhUl423eybZUpKuHJwlmRbmgi6ihc0RJzBPQDB6jgd23IqjWOcSAMjHSRI6wMN6tMAolrk1Zx6zoypmSsD1O+G2bzlRlQrjoCHYxUjsZTZPMzX21pXGUs+bJJLclqI077HudlcD56VmxippVhvKdiqo7cbdd7274sKcbpL6xz7Rfa8ez8rzbc0efcXtaXXxtaYPUDPbCPaWMY/Y4E9sKWBzVYyZji3bnp1k3BkC26ZcVX4lT6RMqrDM2ZyPinsWFrJxzcyMi4ke5jpRTfRbjrHmQbny5m+7LSpFx3Z6atZjU6v1OC3JkRI0RSERkxXFpM2SQRmRG3sfm3PyS2ozjVLmwAuPMC0QPfdiEAUi/bIA5yHHHk4quQPPuC4rftOjS7juqu0+jUmAjtZU+oSkR47CNyLk44sySktzItzMvOIJxLdGm+0sgZ8rVp0GbalRtyqsysg1mqSl90lvmy4+T7XN9wkISlTm5Ehrqe3E+gr9qt1sWHlzTFkShWvizLTNDrVJWzSrvnWg8zQJ6ieRxNuTyNSSVxVsbiEF0Mj2PoIK1Y06JqNxddDo5xI6DsyJ3TgpqNDhKwYfFvXZ6YPSNucLQKJLiz4rM6DJakRpDaXWXmlktDiFFulSVF0MjIyMjLoZGP1HK4p/eus77wU/83QM7tZFn3zXNeFQvnGEp5F24xxlCvalRmy3KcqJUTJ6MoiIzUS47r5Ekuqj2T5jMZNou2evwRPFkgncGhxJjbAacFBZGutVK+M4BA3kkACdkk5rTsBSbVtkWhZcwrpxyZbTnKm3JlO1KgynkSjb5pfNTajLpyQrkhRe4aTITXmbVbbmHLxj2E3ifKV+Vt2C3UXY1lW0qp91YWtxKFOqNaCTubS9iIzPoKOBZIfgQ4tjlDWu8/YrgwuDXMxDmh3W4t83bCm4BEGF9UeNs40y43rch3DRq1Z57V+3K/TVQarTlGlSkk6yozLyiQrbZRluWx7CI4nhN8FVO0od9UWwcq1WgbEdaqUC1+8Rbc3XxIqg+h02mzNJkvi2pxXEy3IlGSRaXAZncegzB5sM8kFJ5wA3jpGznVuwFYrm8IfgO25rUpinXvXLO7y1DmX5SLfckW1AecNJEh2buRGZGtJGTaVmRnt59yEl5n1IYzwdSaNOuWRUqtUbmc7G36HQISqhU6y5xJXGMwj2ZbKT5RmSfKSW+6iI14Xb2yY6dg6dm/Ygpuc64BjE9Az6tu7apSAQjhzVrYOX7uex29Z992FdyIaqgxQb3oKqVMlxUqJKnmSNSkuJIzLciVy23PbYjMpirH/qmb/7s5/8pi2q/gqZqZwCeeJ84jnVGtvPubZhfYAy58GRXKjhKo2bSq5UFnaWfINSfpq3TLjGuKmzX2VMEexcSdipQZbmZqWlJF7w/DVhVKtmLUnaGXGpyjtCw8s0DHNvobUk25UslnIqj59D34upYaSZHsZNn03IS3fq1OkPvjB/w8YMPPxi0DeHA4BSOo3TVBPiTH+KJOHQHTuLXDGFqaAhHM2q23MOXjHsJvE+Ur8rbsFuouxrKtpVT7qwtbiUKdUa0Enc2l7ERmfQfViHVXjPM1Dumo0CFcdIq9koNdwW3XqYcGrU7yFLSTjKlGndRIVtssy3LYzIR323S6cBJPMMD1K3gn4YZx25damQBUprwlmFp9nw79t3G2Wq/QjjnJrE+k2t3mNb6SM9ynvpd7FtRJLmZNrc4p8+x9BLmR9S2P8AHmNreyhFptyXjTbtWwihRbVpap82o9syp5Bttbp2Ls0KM+Rp222Pr0Fx4oLjvjpOXXs37MlaGkkAbRPVn1bdylkBX7F2tPHeRsgwsWVywckY3umrsuSKRTb6txVLcqaG0mpw45ktaVcSSroZp32PbcfrlbWZjrGV+v4upFkZDyNdlPYRKqtJsW3lVV6lsrIjbXJPmhKORKLYiNRluW5FuW9CQI5cujPq27lUU3kkRl58utT4AhjEGrHFmZaNe9w0lmuW9TMfSO71uTcsJNPJnZntVrNClmtCUJI+XaJQZGR9DLqI+R4RbD5kiuvY1y8xYrrhJRfr1mPpt5TZq4k8Ujl2nZ8um5tb7l5gvCQN4B6Dl17EFN5aXRgDHSMx0bVagc9eWRcfY6jRJmQb7t62GJ73dortZqjEJD7u2/Ztm6pJKVt12LcxGuYNXeH8H3ZZdrXxJqnC+4kuZTKnAjJlRODDaVkk+C+1Wt3mhLSWm3DWpSS6bj6aL6WerewH5GR8A1qLTos2REj0zIdsIizEq7MiOVHbcNSm0qS4ZJdSaV7krzGQo6/cLmCSPMYI55wQNDSOEwB84kKX2nW3m0PMuJcbcSSkLSe5KI+pGRl5yH9isPg4ajOk6WKLRZ8t2Qq26vV6G12rpOLbZjzXUtNmZf8AVRxSRe8Re5sLPC83TDmGQQCOYiR2FWEFjnMdm0kHnBIPaEAeDUL1oFNfNiVJMuKuKlkRcSP3epn1/oH9zrspEeEmXDlszDcLdtLThHv9s9vMQj4RmOKyhYrQbvEOOWC9CpVSHSmO8THOJH0SkuqlH7xEOEqlzVOoPqU3Icjs+ZLbajLp9sy84+KpVOXVZJyZa91eZKS9ikveIh7Nv2m9O7ObPLs4x+USPMpwv/yL/wDX2xiuqOrG63Jb6hZKGjafC2jF38YBeDEivzpLcWOnk44rYv8A6mJDoFBZorB+UTkhwi7RfufzF9r/AMx9kSmwIG/c4jTRmWxmlPU/6fOPpE1KiGYnNay36TdaxcZg3yoAAJ1qkAABF5V1zZVNtesVGE72ciLAkPsr4kfFaW1Gk9j6HsZF5xXD06cmfZL+Jx/7gsRfP1k3B96pf5FQhLTt9e0371Oflmhxfuhv0ladYdH6LsNrfQFYEEsc4CZzIDmz1r32q7bJR0XabZaKDahYQQHAbspIMLxPTpyZ9kv4nH/uB6dOTPsl/E4/9wWkATeDbWD2+rfD+eUffXoz2tp/B+bVW/TpyZ9kv4nH/uB6dOTPsl/E4/8AcFpADwbawe31b4fzyd9ejPa2n8H5tVb9OnJn2S/icf8AuB6dOTPsl/E4/wDcFpADwbawe31b4fzyd9ejPa2n8H5tVb9OnJn2S/icf+4Hp05M+yX8Tj/3BaQA8G2sHt9W+H88nfXoz2tp/B+bVW/TpyZ9kv4nH/uB6dOTPsl/E4/9wWkAPBtrB7fVvh/PJ316M9rafwfm1Vv06cmfZL+Jx/7genTkz7JfxOP/AHBaQA8G2sHt9W+H88nfXoz2tp/B+bVW/TpyZ9kv4nH/ALgenTkz7JfxOP8A3BaQA8G2sHt9W+H88nfXoz2tp/B+bVW/TpyZ9kv4nH/uB6dOTPsl/E4/9wWkAPBtrB7fVvh/PJ316M9rafwfm1Vv06cmfZL+Jx/7genTkz7JfxOP/cFpADwbawe31b4fzyd9ejPa2n8H5tVb9OnJn2S/icf+4Hp05M+yX8Tj/wBwWkAPBtrB7fVvh/PJ316M9rafwfm1Vv06cmfZL+Jx/wC4Hp05M+yX8Tj/ANwWkAPBtrB7fVvh/PJ316M9rafwfm1Vv06cmfZL+Jx/7genTkz7JfxOP/cFpADwbawe31b4fzyd9ejPa2n8H5tVb9OnJn2S/icf+4Jmwxc9cuy15VRuCd3qQ3PWwlfZIRsgm2zItkERedR/7x5eon6yYX31b/Iuhp2+smb99XPyLQ1urdHS2hNdRoe2W+paGCmXcZzokj1Je4Yb5WXpV9i0hoA26hZm0nXgMAJz3hozUpAADui50gAAIgAAIgAAIgAAIgAAIggfXL7Vq9vwb+kYwngQPrl9q1e34N/SMYYOlPsGt+I7yFeq1E+6rRn5xR/7GqCPBd/xmfgb/nRe8UQ8F3/GZ+Bv+dFssuZ0xXg2gu17Jd502k7RnpMWE5JbKZPJsi5IjMGolOq3Uktk9CNRbmRHuIdT7HaLfYqFmsrC97rwDWgknjHIBer7tv3dW4/kv+mmu9AeBj+9KXkexbfyBQ48pinXJTI1ViNS0JS8hl9tLiEuElSkkoiUW5Eoy38xmPfG4rUX2eo6jVEOaSCNxGBC5Qxwe0ObkUAAEauQAAEQAAEQAAEUWarPau5h+INwfo58ZaeBg9tFdHxBm/pGnDUvVZ7V3MPxBuD9HPjLTwMHtoro+IM39I04Ru8YLMo/WHrZ4AASLDQBzMLJ+NKjecrHFPyHbMq7YKDdlUFmrR11FhBElRqXGJfapLZaD3NJdFJP3SHTBmAd6bYQAAEQAAEQZ0eGsvSlwcNY+x29HlHUq3c7tajupQnsEsQYrjLqVny5Es1VBk0kSTIyS5uadiJWi4xN8L/kn0X6p2rHiy6qUWxKBDgPRZDn+SpnSSOW48wglGRc2H4aFrMkqUbBEZGlCDOyoYasmyNvVRyK4ngdLCkW1pgql5VG34sR+8LnlSYdQSTRvzafHaajtktSTNZIbktziShe2xqcURbOclXuEWaWsYekzp1x5jZ6h+J59HoEXxrC7z3jsqm6ntp31QlrSreU6+ryVGgt9kbJJJFKYuaIEKKq6+8uQAAVUaAAAiAAAiAAAiAAAiAAAiAAAiAAAiDy7q+tisf+4SPyah6g/KVFYmxXoUpHNmQ2ppxO5lySotjLcupdDEVopmrSdTGZBHWFLReKdVrzkCCqqeDQqECk6FrEqVUnR4cSMVWcekSHUtttIKpSTNSlKMiSRe+Yhusya7qXzXqEzhhp1+fbdr4rqGPqBVYbZrbrFUWhTzhRVJ6uEkzWklJ3IzU2oj2UW86Q/BmaH4MluWzg1lS2j3ST1fqryD/nQuSaVf0kYsbbVsW5ZlCh2xaNBp9FpFPb7KLBgR0MMMI332QhBEkupmfQvOZmJLUPRT3vOEhwA3XmlpJ3wCYGGOOyFWlVFndLMZcCZ3B1+Nu0DHdOGMig+lPHmoq/dOtpVbF/hAqVRrchUdmK9RWcaUeSVEWhsu1iPuLcJZrQe+63CJSy8s/ZbnzNesm0cR460l2pbeWqXflBpmYHOxuSKwmLFf5SnTcJBdq4jil01p5JWaVbbl5xbK+tBGkPJF0PXlduEqS9VpLpvyHocuXBQ+6auSluNRnW23FKPczNSTM9z33EZavNPNDqLWnrGViYg73Y1Iv5gqtSqTSFuQodPWlXbOSCbSZNtqNSjU4vbdSjMz3PcXX3Go2pEFz6eEzlUBxccezDGSVUlhpmmDxQ1+wD+jcBgMJx3xybv28INMp1Zr2A7AoMhh++pOT6TVabDbMlSW4THaHIf286W0nwM1H08k/+qe3z0nKeqTUvfeS6XifKVlYmtTHFxSrbcdk0dNXrL7sctlyHm3lEy0yo+SkHsR+SpJ8uJmc14c0fabcA1yRc2J8WQKLV5LZsqnOSpMx9DZ+yS2uS44bRH7pINO/u7j48g6J9LWU76PJV+YdpNUuJa0OPSu3kMIkrTtsp9lpxLT57ERGbiFGZERHuQjDS3DMEuJxIgkMAyzgN2kTe5Aqmq3YMgAMAZALiZnASXDfEcqpfi2TMkabtbapuSYV/OnKqC3LkgxWY0aquHAVzkNtMGbSSUZfwDMj233MXW05Mc9HeOmGGyJTmPaaRJLYt1Kp6P/MzHuQNNWD6Vb162lSrCjQqNkMjTcUKNKkNNSkmz2PFCUuF3dJN7JJLPZkRF0Ih29p2tQbHtekWZa0HuVGoUJinU+N2q3OxjsoJDaOazNatkpIt1GZnt1MzBzL9B9Enxm02+8a5pww9Vh5lThoqNqAZOe73xaR5MVVXwc0iO7oBtxhmQ045Fj11l9KFko2nO+ylcVbeY+KknsfuKI/dIctp4jRk+CVnITHaJLlhXQ4siQWylbzT5H757+6J+oejDTHbOTXsw27iiDTbsfVIUqZFmymmkm+2pt40x0u9gg1IWsjNLZeyM/Oe47K3sI4wtTEq8GUC2O62Q5T5VLVS++yF7xZPPtm+2W4b3ldqvrz5Fv0Mti2rab1pp1pwdUAEbARfnHdxhGH77qVRlGtTc2S1ry7lxIMRyc/Uqo3wwwXgiGWyZb4FjemLJPEtuX1BW+3v79d/fHCZEpeRXdWGGvEGd4uJTrWIYlOt6vTrei1Vh+YThG/BbTLUlpDy0qbPkkyWZcEdeewvTOwljCpYiLBE22e0sZNMao5Urvsgv8kb48G+2JztunFPlc+R7dTC+cH4lyZZETHN/wBiUyvW9T2m2ocSahThxiQ32aFNub9ohZI8nmlRK2M+vUXVuPaaldmRIIExsqgyRlhUG+YIOCiovDKLKTtgcDgDmaZEA54sxyiZGKrbFwBkWkaj8T3jnjW5TLxuChSal6GrecsmDSZc5L0RZSibOM+SzSTaCUalIWlPEi6Gvr73g5m204ryApKEka8oXIajIuqvqyC6+/0EhYk0X6YcF3Am7MYYjptKrTZKJmoPyZM6QxySaVdkuU44bRmkzSZoMjMlKLzGe8gY5xbYmJaVPoePqF4qhVSqSazLa708/wBpMkKJTzm7q1GXIyLySMkl7hEKs4nNdcOlz2O8jTPLsVKz+EgDYW9QFQdGLxA58cgsy7jjH61hkVLDaUtx8kSlGRbJJCCrTRf7vMNU6PJjzKTCmQ5Db7D8dtxp1tZKQ4hSSMlJMuhkZGRkZDi6BgPEFs4+q2KqVZEM7TrsiVKqNKluuy2pDshfN5Su3WtXVXUiIyJJkXHbYh52EtMeDdOZVcsM2Mi3fHxsqqBlUJco3+y59n1kOuGkk9ovonYvKMR2cOp0RRdsDceUMawjm4sg544hXWh7azuEGd5/U994dI3YjlTULYOYciWQmi4XzB6X9WS6pyRI8Wok9/YNtSe7dqflxd1Gk+3aI1p49CMcroluWxq9gmJS7Isn0JHbFTm0CtUg5JyVM1WO7tKUb6vKfNa1dp2i/KPn16kJ7FPsE1nIOnbL18YbvDCV91il39kCdclCu+36WUykNRZ6kmffnSWRxeyUnY9yMzIzPjsRGq6kIqub6ofCDmgCeYuMZSJGMzR5vUQfUnsIdJjkMCc4MZRFctQESuTLG1yJoaX1m1d1svTEskZqOInsje3IuvEkkZq9wkkZn0IxZvWhe+Ny0BXJMoNxUZijV22Ysa3ktyG0IlJNTXZtMJI/KMkl7FO+xJPzbGLAULDuNbcq951ulWqwUrITyH7l7w67IaqKktG0RLadUptKezUaTSlKUmR9SMRPB8HhoypxVgomCaSXj1lUeUa50xw0IUrdXYGp4zjGfm3Z4HxM078TMhA+k59ldZt7WieUMDCObDA7JJgzCnZXY2sysZ4rnEDeHODusR05SIlSLa192PYOI7FqF93lQ7cizaTTIcZ+rVFmG2/IVGSaWkKdUklLMkmZJLqex9OgginkR+FSqxGW5Hhpv9JoHq5ow5PyjqTwfYbdsT0Y5xjCk3VOkORnFwnZTXZsU+IT60mlbqVINZoNRq7PkZl1IxPLeJMfNZVdzY3b+16P0Yrfcqfe3+tPJ0nSZ7Hn2XsyI+XDl7m+3QZj3itW9E7C6phtgtcwT+kT+iAdqxKbOAo8BmbrJ3TeDo96AecxsMZnZsiVHAOWLW0nyY752vLzDb1/WI7xM22Ke+88iZCI/MRNSFp4l59lKUfsiFqrvy5qLy7qQvXTzg67rOx7Bx/Cp8ip1mr086lVJq5TXakqLGUpLXYpJSUqNXUjNJ8vKJJTxkvA+JswVm17hyNZ7VXqVlzyqVDknKfYXDkEpCuRGytPMuTaDNC+STNJbkOczFpD0459rsS58s4tgVyrQ2yZbmpkyYjymyPdKHFx3GzdSW57EvkRbnt5xjsa5tNrHYwTtIwuta3LMtDYIyOZM4LKqVm1Hl8Ylo2Txrxc4wfVSeYnAYBVb0yeiWPqzz7AuzNtOynV49kQWZ9ep1NjQGVPt8knHUzGUpvmz1bM9+W5GStjIyHuaeI0ZPglZyEx2iS5YV0OLIkFspW80+R++e/ui0Vl6dcK45rdQuCxMfwKFLqtJZocooK3WmVQmjM0NpZJXZIPdSjNaUkpRmZqMzPcfdb2EcYWpiVeDKBbHdbIcp8qlqpffZC94snn2zfbLcN7yu1X158i36GWxbWvpk2WpQGbmwNg8aqfI8bzMyTmTa4FoZWIwDg4jmaxvlaYyERlkKo3wwwXgiGWyZb4FjemLJPEtuX1BW+3v79d/fHCZEpeRXdWGGvEGd4uJTrWIYlOt6vTrei1Vh+YThG/BbTLUlpDy0qbPkkyWZcEdeewvTOwljCpYiLBE22e0sZNMao5Urvsgv8AJG+PBvtic7bpxT5XPke3UwvnB+JcmWRExzf9iUyvW9T2m2ocSahThxiQ32aFNub9ohZI8nmlRK2M+vUTVuPaaldmRIIExsqgyRlhUG+YIOChovDKLKTtgcDgDmaZEA54sxyiZGKrbFwBkWkaj8T3jnjW5TLxuChSal6GrecsmDSZc5L0RZSibOM+SzSTaCUalIWlPEi6GvraORfdj1WpV6x6XeVDmXHSISnqhR49RZcnQ21II0reYSo3G0mS07GoiI+Re+QjzEmjDTDgq4E3bjDEdNpVaaJZMz35MmfIY5JNKuyXJccU0ZpM0maNjMlKLzGe/E6MMVVqG5lHOmQrdnUu5MsXVOlJh1GIuNLiUZlxbUNlba0pcQZp5K2Mi3SbZ+cR1GmpTNAZXXHpJAA6Zk8xgK5zheFbcWtHNxnHDYBs5TiVCen7BFZz74New6DZdeYoF60KsTa9a1YeUpCYNRYq0k0qNaEqWlKkGtJmlJmXIj2Vtsfp6msTU7B+FdMeMKe+UlVGyrb6ZcvjscuYs3nJD5+6ZrdWtXXr1IXRxljCxsOWVAx3jih+KLephvKiw+8vSOzN11Trn1R5a1nutaj6qPbfYti2IfjkXEuPssN0FrIFv+NU2zWI9fpRd7fY7vPY37J36ktPPjyPyVbpPfqRjIe4cPwjMi9jj+i4HrIHMYCoapcXXsjwkfp3onmnokxmq8XflzUXl3UheunnB13Wdj2Dj+FT5FTrNXp51KqTVymu1JUWMpSWuxSSkpUaupGaT5eUSSiPT96JY+pvUZAuzNtOynV4+P4zM+vU6mxoDKn20OJOOpmMpTfNnq2Z78tyMlbGRkLY5i0h6cc+12Jc+WcWwK5VobZMtzUyZMR5TZHulDi47jZupLc9iXyItz2849e0tN+ELCqlUrFlY9gUSRWaM3b81MFx1llcBvfi0llK+zQe6lGa0JJajUZmozPcYTqLnU7pzh4Jzm8xzQccsSMAMpx2OmFdjTxRhLDswuuYTymYJEnOBG0QZpTYYPwaNHaNlBocsitc08S2Vucrfcvd3EZ40ztk3H+m3S7hvD7NsQrnyfTpMZit3Mpw4EBuMRrWRIbMjceWbiSQW+3IiTsfIjK7VqYmx/ZGNGMP2vQO5WjGgvU1qnd6fc4xnefaI7VazdPftF9TXuW/Qy2IctcGlTT9deKaPhK48awahZtvpSilQH5MhTkLbfq1J7Tt0n1MjUTm5kexmZdBk1yalepVGTi0xMSAXyCRl4wy3EYZrGoFtOmxj82h3LiQ0AxtgiSCqfZKouYrU1bad6RmLVBRMhVc7ndeZoEG3IdLepTK45pN9RtLU8pt3Y0ESyJJ8D232MilDQDOpUG8dR9ErsxlF5M5Qqkuppec2kKp5mRRXDI+ptEfbcVbbdftkJgs7Rlpkx+5br9mYmp1KkWrUTq1MkMSpPbplmg0do66bhrkbJUokpeNaU7nsRbmK/anqNgy481VB3L/AIP3Kl/VKnHHbp10WhS35UWqN9k2pJyFMPsJM0KUbezvabE3tvt5JWMJpEgYze6jwXPJBZEE4gyCPFE7iLQMcIDd2YNTZhAIfmMjsOZhzIUmbeeDtbtSxzVGqrGfveDKVIprhSUPwW1sKkKQpszJSCbSs1HuZcUq36biYW8OZ5ybgp6qPeEnoEnGVaoK48t8saUViC3Tls8HG1upfT2JIQZpV5SVIMjLyTLpKGh/Clfxzat9XReOO6dY7mRbjeq8W0YxtrRR6aTZNR4zhN/U+ZpJSlEnp5Zbkk90p9CpeDv0YVW4zuqXgajJmqc7Q248uWxE5f8AurbyWNvtdnt9oWcBcYKWwtYDOyGBpBGR6xjOJlXeiAXXgcnvIIAxBdIIJxGWe0RuCgv0O0m2NR2iC2qNdTN1UymWlXI8GstxjYbnx0UtPYvpbUpZoJSSSoi5Ht06jQAcJKwbiiVdll3sdmRWKtjuK/BthcR12MzTI7zRNONNx2lJZNPZkSSJSDJJF5Ow8/OuZZ2GLdiVamYiv7IMypPLix4NpUnvq2XCQakrknyLsWTMiSbmytjPzGJ61aKcmSZcee88uGW3EbM1j3eFqC76lo96DPQoE0m0W6L2y3fWa8X3Kqy8Qz7oqMZyzThpleP6izzakVQnF7HA5vcVdk1vz7LythcYQRokxTd2HdOlvWpf0BqBcUmROq1ShtuE4UV2VJce7I1EZkZpStJHse25H5/Oc7igYaTGUjm1rQecAT0TMbAIAwACte4Pqve3IuMc0mDzkRM4k54qA8j0OpUiuKVJStcVwt47ux8TL3S3/wCtv5yH02uzKRTEoeQojUszbSZdeJ7e5/PuJy8/nH+jB9BAPLwV6rvoe6yts76YJG2c45I865O3bSQlCZ1Wa3WfVDKvMRe+ovf+1/vHWeYAGWxgYIC85abTUtT79Q/uQAAXrHQAAEQAAEXh3z9ZNwfeqX+RUIS07fXtN+9Tn5ZoTbfP1k3B96pf5FQhLTuZFes4zPYipTu5/wD+Vocd1x+7fRHT5SvdaC+5+3dHkViQHNVe9I8N1UentJkLT53DV5H9G3nH329XU1uO4pTRNusmRLSR7l18xl/uMdfFRpddBXkH2KvTpcM5sNXrAAC9YiAAAiAAAiAAAiAAAiAAAiAAAiAAAiAAAiAAAiAAAii3UT9ZML76t/kXQ07fWTN++rn5FoNRP1kwvvq3+RdDTt9ZM376ufkWhx3+839T5l7r+yP6zzqUgAB2JeFQAAEQAAEQAAEQAAEQAAEQQPrl9q1e34N/SMYTwIH1y+1avb8G/pGMMHSn2DW/Ed5CvVaifdVoz84o/wDY1QR4Lv8AjM/A3/OiwmrywbEuvA19166LKoNYqdCtWrvUubPprMh+A53ZSubDi0mppXJCD3SZHulJ+4Qr34Lv+Mz8Df8AOicNY+RKnb2La7j2i4kyLeVQva36pTor9rUBVRjwnVM9mnvSkqJTRKN0jLZKjMkr6dNj2XcvZaX17CLKSHX5kG7gHkuxkYXZnHEYL1ndrLW6924v8X6lP7Kkus0q+1lxR8TKN+ZtCUxXvRhkKqVzFFu42rmI8jWdUbHtylU2XIuigKp8aa8hkml91UpRqcIjbMz3SkyJSdy67FYQbrWizVLLpm1MqiCXuOYODiSDIkYggrj9hP8A/MwbgB2BAABoVlIAACIAACIAACKLNVntXcw/EG4P0c+MtPAwe2iuj4gzf0jThqXqs9q7mH4g3B+jnxlp4GD20V0fEGb+kacI3eMFmUfrD1s8IX1StaoJ9mUyhaVnbegXBVah3ao1etGns6XC7JZm+2SuW6+0JtJfUneij8n3SmgBc5oeIP8AHJzHI8ixAS3ELHXweNnXBj/wk16WXdlzOXFWqPT63FqFWdUtS5sgnme0eM1majNStz3Ue5+cxsUM/NP2lnPFkeEayLni6LF7lYtdVWTp9V8Zw3O27d1tTX1FDxvJ5Ek/ZILbbrsNAxfTcX2ahf8AGuCeQycI2cyteItFaMReMHeIGM7edAABRVQAAEQf8/X/AEdqh8IJ/wDvW9rcvbJ3/wDVG9Jt45//APa+yy3AR/2DZab/AIBI6bZapcn+kzp1yHklmueJ59HoErxVN7t3jsqm6nsYP1M0LSreU6wnykmgt917JJRllB4IDG3ov1Tu3xKiVUotiUCZPZlR2/8AJUzpJFEbZfWaTIubD8xaEEaVKNgzIzShZHG/EgLNs3EY+otsgABIsJAFfdV2tbD2lO25armrceo3i7E7ak2xFc5S5Slbk2twi37BnkRmbi9tyQokEtREk+P8HZqzyNq4x3dF25Iott02ZRK0mnR0USM+y0po2EObrJ550zVuo+pGRbe4FP6reu/e59ceVH/U7t774wOqfJkrZAAAiAAAiAAAiAAAiAAAiAAAiAAAiD4K/VvEFCqNc8WT6j4uiPS+509ntpUns0Grs2W9y5uK22SnctzMiH3jxrzqEuk2fXarT3uylQ6bKkMOcSVwcQ0pST2MjI9jIuhlsIq7+DpOfuBKkos4So1m8hfFja+PTIsqmXp6ELmtfxkha/FNyU/uNSjcVqRs8xyVwM+PIup7pUk/dHTCgKdTGpSoaf8AS/dNr3bTZd5ZMuNVLq7lSgx24lQI1PpQl4mmd2myNCDUbBIWZJMiMjPcd2d4apMA5/xlbeXczUjJVq5WnzKQuJHtePSF0OYlonWjYU2pS3m9z4mbqjPiR9ORkYyHD6q6nlDrnJegEAc94AExjmo2iaYfP3t6Nt2XSei6SeTKSrhjkMg5bx9ix+241+XB4scu6ssW/Rk90fe71UHt+zZ+pIVw32Pyl8Ul7pkKiN5jz1n/ADrkfH9l6qLSwi1YtddoNMt6Rb0KqVWspaIiVMUmYtJ9mpXVJtEZESiIy8ylchrdsfUaaNOzN55zpJVpzIcCktvUu2GewbqapDxxavxcVua0MG2lUU/qRqJR77CJji8UnRg8s3SQ4jEbJMwJyJEgAGMg0AxzmOcJaHTngQCccMsMY2AwZidGQFJM9XZq004Wli6joz7DyBdd45Og0hU2ba8GkR34DzOyYDqGkO8EG6g1KfQROkSzIvYlv6WoC49VWnrCVZv+4s/06vVyrXNQo8FmnWjEhRaMw9J4SYzXam8qQhZLIiW75ZEjcjIzMXtF6IObg39I3PJfE8xicJiewsbJ3F3QL3yTHOOWLkgK/wCtfKV94jxZQrjx7XfFNRmXlRaU+93Vl/nFff4ut8XUKSXJPTkRci9wyHFZAyvqDzRqLuLTppzu+kWDS7BgRJV13hMpCKpJTKkp5sxY0Z0yaPdHUzX18lexp4kS42vvm60SZI6mtcTzQ4dOG6a8HAvOMCAZ53FoHPI/jFWHynlewMKWZLyFk2v+JrfhOssvzO6vyOC3XCbbLgyhaz3UpJdEntv12IdY2tLqEuIPdKyJRH75GM4NfWP9UlA0m19GVtQdEuujUur01XOHabMGXWEOyGkpTJJKjRH7F0krSbO/MjUlexbCWb8vnUfpOxomXdeaoeZryv8ArFKtexqfNtWLQ40Ce+bnJbxxV8nkGniZkZp2NtJEZcjMrmmWuJzDg0cpIZA55dtgcqufSgMIOYcTzA57oAxO3cJwVyAFKMiXJrL0k2xGzjlHOtAyraMOXEZuqgFakekuU6M+8htT0GSwfJ5SFuJIu2IiNPUy3Pp6N95a1H3TrNdwbhi/6BSbcqGOGLgJ+rUpuUinrcl8FTWUJSlx97iaEpaceS15RqUR8eKqt45DW4mSOYhpd2gYHI9Bi3g4BcThEzjjiG7pkEiRE4jeFcYeVdlz0WybXq943HLKLSqHBfqE18y37NhpBrWrb3dkpPoPOxtQb1tiyqZQ8h396NbhioWU2u+Kmqb3xRrUaT7syZob2SaU7JPrx385iG9aGULVg4fvHDdIqsar5FvOhvUiiWpBWUipyly0qZQ73dBmtDJeWo3VklsiQe6vcEVpc6nTdweLsY5TsgZmdyuszG1KjQ/BsieQTieTnX1YU1J5LyzRatkGp6arhtywiozlatuqKrEaZUq80XlNtoprZE4044jdSCUs0q3SRKMlEYlrG18emRZVMvT0IXNa/jJC1+Kbkp/calG4rUjZ5jkrgZ8eRdT3SpJ+6OftWj1zGWnmk0F95DdYtazWYq3G+K0okxoRJMy33JREtHu7kYqtb+rHOtxYBwHaloVGl1PMeaymoKt1SI2iLT40Vxw5E1TDKUoUpDZJ4oJPE+JmZK24qyKl1tV9KnjBaBvMl8Hdk3HIACd6iph1RjajhdkOJzgBoaSN+E8pJw3BWZy/nT0qb/xdY3oW8aemVXXaL3rv3YeL+DXadrw7NXa7+bjyR7+4lYZ+5RsTUDY2oTTdHzLnuBk2JJvZ9cJ8rUYosmI6UUyUgyjuG242ZbGW6SUR79dug0CEdPjMc4meORzC4wx1knpzVaoDXtaPUg85vPE9QA6EAUXwrX9bupK2LuqFv6hqBY8G3ryrNJg1A7Ti1OfNSw7xRHcQom2GWEJNJEskrdUfI1HtsQkjB+V87aiNJ512365b1r5Ni1B+gzqvKidvBbdiSibkSkM9SM1MkoySeyeZ+4nzWtffYHgYlodG26Yx3YXhOOEjYrnU7jrpOTi0ncROG/G6SI3b8FaABn5cmes1adbstGbcOtnHWbYNWuGFQq5ayKPTKbUobD7nZqkxyhOqcWaFb78y4l03I9z2kXJ2QNT9y6yajp+w7kOiW1QV2FGrUibU6QzNVS3FS1trkx2uKVPvns2km3XCaIuSjIz23uBvXbuMkjpa28ezb+9VdRLSbxiAD0F13nz2Z7tk2+AUbx7eWtu88j5C0sLzLakWsY/kRJcvJLltNOTX4cxjtYzLVLTxjdpvvyWpeyUltss/KHpWFq+yFjXCWbqtnl6n3RcuEa6uhJqMFhMJFeU4aExFONoLgypS3EkrgWyUn5jNJmdnCtu39l28OUSBgM5kgQQCTlKrwD74pjMkN6SJHJBGIicM4V0gGdNb1CZxtuzJmYnPCEYFq1bgwV1Z7GcJilOQneCeaoLE1Eg5bjhpLinYt1LPYj22MXtxZf0HKmNbXyTTIjsSLc9Ii1VqO6ZGtknmkr4KMuhmnltuXQ9hKASCd0A9MxjkZg5E5c0xvbcI2gzBxxiJzg7RmPOvjpmTvGWVaviz0vb1i+Kae3UPRHJpPChy+fD6hHlc/qjxc+qOJbcF9eg7UVvZy5kJesLImLFXBva9CxxGr1Pgd0Y+oz1vGlTvacO0VuXTipRp+0K9WBkbXvkPSS1qeRnm2KOi3aTPrCKR6FYsl242IjjinTmPbITFMyaWhCI7ZeSSTUolGZlEKgFLhDk0STyXntmOS4cBJiDGcS8A51QMESSABylrXdt7bgDhOU6KgKE33l/Wmen6PrRo+R7Ot+gRqfDrqMdM0JMxmZTnDbIzkVJ3i8l0yWpXBpKSItkkoz3MT5mNzNt8Whad2YsztbmHaBJpxVOuVaqUiPUn0dqhpbLaEyTSwlBEbvJSlEe/Hb3dr3EtkOEFpAIwwmYJ2QYO3MQYKjay8WwcHTBx2RIynaNkY4FT0ApdgDUVf9J1FO4DvzUNY+a6NULck12HdFCixIsqBIjrInYslmGtbKS4clFv5RkRHv1Mh/OLrw1dauoc7NeMM20XFdgeNJMO2KM5aDFWerEWO6pByJjry0qa5qSadmVdCJW2xpJSgN6C3ERPMJu49IMRMwSJCudSLJvGIIHOSLw7MTu2q6YCvGhbKOSMt4Ul3NlW4WazX41zVamLlMw2ozfZMP8ABCUobSkiSRb7Ge6tvOZn1Hja2M+XxiaZjewbIvG37EdyJVZMKXe1fYS9CobDDaVmfBzZo3FmsiT2h8PJUR7b8k0LhDC3G/dj9IAjOBtVGUy97mZXb0/ozOUnYeVWgAQRgq1tR1Eqj9TvrUxbWXbUn091UOUzbUalvszOTfZGhURamnGTT2vLc+W5p23LfaBcnVzVViOjVW67u8IfiuHctMjLqCLHnW5SosSUtKTUUREhxxMsyVxUlJ8OSj282/SlR7aWL8ok8nRmd+AOCupUTWN1h/f/ABywrN5pzp6UF14xtj0LeNvTHuhu2+3792HcOSDV23Hs19rtttw3R/3hKwoplLJzuaKXowynIgNQpFy3xAnSIzRmbbTyo6icSg1deJLJW2/XbbqfnEk52pmoaJelSr5a4LJwtZqzQijQpdt06Y46lLSO0W89OWjZXaE4ZEgzIk8fd32uM077X5h7m9TaZjrceVWNaKjm3DgWA7cy542TsA5MFaIBSGwdV+Uro0rZ4rsy8rZql64lTUYcC67cbafgVMm43ax5qEGS2VGZ8tyIjR0LySHsWBC1yZTwhRsuo1AUKiT6nZHfKXb9LtWJIVUJrkLnGlSZkguLbq3TSpbTTCWkkfAt9uZ0c4Na5+xrWu5w4OIjbJu5conbF4okkAkAlxb0tIB5Ixz/AHTcYBU6kaxXl6CF6kZuzl0wKMdNkx1NJQpVxJWUTj2ZFsRKkmlfEi6IV5hP+G4mQIWK7VYytXfHF4HS2HK3MJhpklzFp5OJJDSEIIkmo0FsktySRn1MxI5sOc3O7GOwzJw34CeZzTtUOIDSREzhtF2JnpMc4O5dkACvmomkZ8fuFisWjqttPC1kxobbbkifQIdQkSZprXz5qmqQ0hHHsiSSVcjPluXm3jc67CvYy+Yny+ZWDHj3jcHoTtGt3T3TvXiamyah2HacO17FpS+HLY+O/HbfY9t/MYqLgTV1cNJm5itPLOUrTyjAxXQm7miXla6GG01SEba1ONOtx1KYQ8lSUp4oPoZmR7+ceNDa1u5owZVM/VTOtsWfQrit2bVYeP2rRZnRjpa4yzbS7PUtMhLq2j5bp3IjNPQiM0FDaHkUH1KZybM7B4wGeObXYQcip6NH6s1lT1URvyOHQ4ZkZ71a3AuVPTvw7amWfEPiX0T09M7xf3rvPd91GXHteCOfm8/Ev5h4+X86elTf+LrG9C3jT0yq67Re9d+7Dxfwa7TteHZq7XfzceSPf3FUca5vyLZelnTXhLCLNLLIeUac7FgT6og3ItJhRyUuTLU2X7opKTI0pPcj2MzJW3E/6yjYmoGxtQmm6PmXPcDJsSTez64T5WoxRZMR0opkpBlHcNtxsy2Mt0koj367dBl1gBaA1mDeEa3nF9oIG3IxO+RMhY1Np4Avf43BudG3xXQd2YmN2yFoEApXSr91aZc1MZ2wzj3LtBtO3bPk0dMOqzbfYqEukpfim4bcVjZtL5urJRqXIcWSCRslJmrdPz5W1GX+vKrum+i6n8e4teseiU9y67+uePBTLqlSeZJZNwafIcQxxNJEt3qZI7UkltsXOK9LWO9UAQOQiZ5IyM5kiJkKbgCHvYT4uZxwyjZOMiIHPCu4ApHibVxeFs3bf2LrryvaOdnLbsaVfNDua024zJzCjciep8pqKtxpt41Eg08P4Ktz35JIvKwVdGrfURaFPyvZet3HKKpUGu+vWFGtKHJi04zIzTEkPk53xsyLbluRqL3DUWxnczjni5QDO4EkZZ5tIwGzcRNppFolxjGOfAHmycMyM94MXxAUqyxnDMV66pK5p1s/UNaeDYdr0uBKaqFTo8WozbilSWycUiM3MUlo20EriZIPnukz8ojMkTFYJ5wtakSLdy3kyl3jUosrlErVMpaaaqVFU02aTeZQZoS4Szc9gfE08fd3FnCDg+FORy5YMeY5wVPQsT7RUFJpEwCeQEAjyjKVK98/WTcH3ql/kVCs2JKwbt0zosVRkhVOcStRH7Iu1a6fzCYL4uybJx7WIKln26oEpLrhFsakdke3+/rv/N9sQlgCnyanesiJGRupVPXufuJLtWtzP7Q5DreG1tcNFPGyfKul6sWH0LoO21LRsPk2qao0SVMX2cSO48oupkhJnsXvn7wkK26MVIgklwv8oe2U7132P3C/o/8AqPopVIh0eP2EVJ7q6rWr2Sj+3/8AQQLqrzfkWy67YGEsIs0ssh5RnSIsCfVEG5FpMKO2S5MtTZfuikpMjSk9yPYzMlbcT6zTpcGRtcTAH8dZOwScl4C3aQdbAabMGCSTyDHH+N21dll/OnpU3/i6xvQt409Mquu0XvXfuw8X8Gu07Xh2au1383Hkj39xKwz9yjYmoGxtQmm6PmXPcDJsSTez64T5WoxRZMR0opkpBlHcNtxsy2Mt0koj367dB7F66n7wytla9rOs3VvjPANsWFVXKCmZW26dOrFbntbFIWUaa6hDcVKjNCVp3NSkH1PcyTIx8hwzN49ADaZxmMi7lJnCdmuNGXCDAugzjiS542AnEN5BgVeoBQ2j6wMkyMH6gqGnJdr3TemIaW1NpN9WwzGep9VjyGjWy92RG4wTyFJWlxBEaCPYiIzSZn+9brevqBgCDqhh55s94qXbMa45Fkt2k0uLUYaI6XnVvTjNLxPqb5LUhlLSCUXFBpLqKl4aC4+KA0k7IdMcv3pnCQrW0XOcGffEkAcou9GIcIxhW8uHLePrVyDa+LK9cHdbovNEtyhwO6Pr72mM32j59ohBtt8U9fLUnf3NzHXjM7LsnK2ddU+mbI2Pc1HZ55Ctqo1S2iO24lQO11eLULltn2hkUw3TNSd3Nuz86RoPi+3b6tWyKfQslZF9HVxRjd73XvFDNM73ydUpH+TMmbbfFBpR0Prw3PqZiUMcGS8Q6XDqc5uETlGM7csFZVDWubcMgtaeUSJ6tm/yrqTPYtxxeKMm+mrQJle9L29bP7nUHqf3K66T4vlPdmST7dtvmrkyrl5K9+ux9Og7UUPomsvLNB091u45Col2ZCr2WKhj2zWJkdqNGSs3iTHJ4mEo5IbQSjMz8pR8SNXXcow7j3czGA5bzGjpJcBuzJOCqGSyeWPguceiGk78MsVZrUfnT1PtkUy8vQt4+8ZXDTqD3bv3dez707w7Xn2a9+Pn47Fv75CVhnLq2xzqos/GVrVTMuo+j3/Spl8W8UiktWfHphwJPed093ksrJTqCM1JPtUbmRJPoe40aFaeLXEnEOI5hdYY6yTtzzSoA1zQ3ItB5+M4c+wDZkgCmsLI+qDVVlG/qLgjKNIxRj7HVZctw66u3Wa1UKzU2iLt0k1IMmkNIMy6lsrqg/K5GSPl1BZI1c4KsrEtFdyJa9dvG4smQ7ecnx6UiHGrNOdQrs2pSFtu92WpZbLVHLdKdjSe+4MJeGmPGuxy3iADyZg4wYxhXOpFriyRImeS6CT5IwkTtV1AFNs9ZI1N6W8RVC87xzHbV1Vq8rkpdEpshy1006j2ah/tTffUaFuOyWUkkiJTytyMkmZK3NJ9rgq3NSh3FSLtqesi0MxWRKJZVFiLa0GFwSbS+C4smE4pKzJ3s9yX0NHLzHtvVnHJjIYE8sAxv2jHLcVa5lxt4nPEDeJIkdRwOPIrKDi8sZN9Km22Lk9L69Lx7eczB7hadJ8YTG+05fVlN807NJ4+UrfpuXTqO0FftcOUr7w/g9N4Y6rviirncVIg947qzI+oPykIdRweQtPVJmW+25e4ZGKffNbvc0dbgPP0K0ZEnYCeoEqwCT5JJWxluW+x+chEVMz3LrGfL6wRT7J7WVZ1uQ68xO8ZEnxg5II+MfszbImtjIi5mtRdfMQiy/cnZ/zbqGuXT5p4v2lY7pWO4MOVdN2yaM1Vpa5kpBrYiR4zxk1x4dVKV13JWxlsRL5jTLRMj27royxRsqXxAvCvxbIoiHK1EpRU0pbXaHwWuOlakIc29lwPjv5iIWNmq+mAYDr3SAx5BGe0AicxvBUjmcCx5di5tzDdLmZ5ZtMYZTsKl3COpu47+yPVMLZfwzUcX39T6Wiux6W/WI9VjTqcpfZ9szKYJKVGlfkqSRdPfMyURT2Ko5ynxsS6ysbZ1vR86XYs21ajZ9Qrry+MKmzHH0vR+9L8zKHD8lK1mSeRdTLbraWm1KnVmnxavSJ8adBmsokRpUZ1LrT7SyJSFoWkzJSTIyMjI9jI9yF7HcJSDtokHnDjHMS26emRgQrKgDKhAyMEdIE9AdI6IOK+kAAVVqi3UT9ZML76t/kXQ07fWTN++rn5FoNRP1kwvvq3+RdDTt9ZM376ufkWhx3+839T5l7r+yP6zzqUgAB2JeFQAAEQAAEQAAEQBA+uX2rV7fg39Ixhmri7BmU80eM/S0tfxx4n7Hvv+Wxo/Zdrz7P92cRy37Jfsd9tuu25b+f0npypYLU2y0qJqEicDjt2Qd0rr+o3cusutug62nbbpFtkp06hpkvYC3JhBLzUYBJeGgb4xxhbRAMmfUNapfgu+W6d9ID1DWqX4LvlunfSBid8Fu9hP7fkL0Hgg1W909n6qf0hazCLdT+Pbjypgm6rFtFph2r1BmO5FafdJpLqmJLT5tko+hKUTRpTy2TyMuRpLdRZ1+oa1S/Bd8t076QHqGtUvwXfLdO+kCKvpq2Wik6i+xPhwIOe0R6hZ+i+5jq3oi3UdIWfWezX6T2vbIpkS0hwkeiBhIxVnPBzY0yDYcC/aje9m1agNVR6msQ01OKqM68plMg3DJpwiXxIn2/KNPEzMyIzNKiK5QyZ9Q1ql+C75bp30gPUNapfgu+W6d9IEGj9KWzR9mbZmWN5DZxM7ST6jlW11u1F1c1v0zW0zaNZLMx1W7LW8HAutawZ2icmieVazAMmfUNapfgu+W6d9ID1DWqX4LvlunfSBmd8Fu9hP7fkLzfgg1W909n6qf0hazAMmfUNapfgu+W6d9ID1DWqX4LvlunfSA74Ld7Cf2/ITwQare6ez9VP6QtZgGTPqGtUvwXfLdO+kB6hrVL8F3y3TvpAd8Fu9hP7fkJ4INVvdPZ+qn9IWswDJn1DWqX4LvlunfSA9Q1ql+C75bp30gO+C3ewn9vyE8EGq3uns/VT+kLWYBkz6hrVL8F3y3TvpAeoa1S/Bd8t076QHfBbvYT+35CeCDVb3T2fqp/SFonqs9q7mH4g3B+jnxlp4GD20V0fEGb+kacO49Q1ql+C75bp30geRR/B2agqBLkTqPhlmK/K/dFprdPPpvvxSRyNkJ39xOxdC6dC2qNO2twJdY3gjLAmec3RHUVG/uUav03Np0dY7K5jpvEuYC0RhdaKrg6TmC5kDGTktfQGTPqGtUvwXfLdO+kB6hrVL8F3y3TvpAp3wW72E/t+QpPBBqt7p7P1U/pC1mAZM+oa1S/Bd8t076QHqGtUvwXfLdO+kB3wW72E/t+Qngg1W909n6qf0hazAMmfUNapfgu+W6d9ID1DWqX4LvlunfSA74Ld7Cf2/ITwQare6ez9VP6QtZgGTPqGtUvwXfLdO+kB6hrVL8F3y3TvpAd8Fu9hP7fkJ4INVvdPZ+qn9IU8eGLv2RbWmCl2bTrgixH7wueLGmU9RtG/Np8dp2Q4aEqI1khuS3BNS0bbGptJns5xVy3gU7LpcHDWQciMyJR1Kt3O1RZDSlp7BLEGK280pBceRLNVQeJRmoyMkt7EnYzVW7Lvg6tYd0s0tyh4lRIVEU8lxs7gpiFbLJGyi5SCLYuBkfXfqXQ+u3UWb4PzVXbNswaJIxsh52OlRrWitU4k8lLUsyLeRuZEatt+m+2+xeYZdTStpZZmWgWZxeSRdxkZ4zd5tm3kXn7HqBoW0aZtGhn6Zoss9NocK5NO68kNN0N4YZS4Ehxi7iBeC2AAZM+oa1S/Bd8t076QI0yXim/sP11i2si0HxRUpMRM5pjvTMjkwpa0JXyZWtJeU2stjPfp5upDAq6zWqg2/VsjmjeSQO1q9bo/uHaC0tW9DWDWGlVqRN1jWOdAzMNrkwFp7qMwjiWq2pkHMVXsCj1C849k1GFGrExjt34zTUWQaCZ57pZURuL8pBJUfLYzMthVbwJH7yWQfjU3+aNC6WIqFSro022VbNdi95ptWsemwZjHNSO1YdgNoWnkkyUndKjLcjIy36GQ/TCOnbDmnKiVC3MNWf6HqdVZRTZbPjCVL7R4kEglcpDrii8lJFsRkXTzD1Vkf49U5PY0AbjeLj5ekr5+0pZRZbQbKDJpVHgmIkAXRv3ZbBtUjgACVYiAAAiAAAiAAAiAAAiAAAiAAAiDwr8jSJlj3FEiMOPvv0qW2002k1LWs2VESUkXUzMz2IiHugI61MVqbqZ2gjrV9J5pPDxsMrPCysX5MiYV0X0qVju52ZtrXomVXYzlIkJdpTPOQfaSkGjdhHlJ8pZJLqXviedU1p3VcObdONWoFs1WpwaHecmVVJMOE481BZONxJx9aCMmkGfTkoyLcWWATPdfeXn1wVOkFhjm4g61Y3itu/4CzoN7H4XYqE50n2Ze91V6g6jvBw39ddabmPxaTclmUVM5NSgpWpMV12dHdbcjn2fDdta18Nz6J6pLl5unzULZukXDEqq2XWbjr2LMiRbxXa8eamZUo9FbdcU3DbMi2edQhSC4I8xK2IvJ4lo8AhpNdSHFOMtPJLXBwJGUyMTukCJKmNa9gRhj1EFpAOwQT0wTMKjufrovDUhBwRdlrYIypQG7fzJSXqjBuK2XIsyPDaTyXNcabU52cYue3arNJbpVv02M5g124svjL2m+uW3jenpqFywZkCs0+Ea0o7yuLJQ6psjVsXI0ErYjMtzIi90WCAXkcS63A3rwO4gMA7WA9KoKkPDiJAERvBLjHU6Fn5qPyrmPUxjS16Jauk3KtBjU28KFNrUm4aQcZ9C23yNSY0Vvm8+0W5qU+pLaEpT16mRF3V00/KGljVFfmcaDiK6skY/ypBpx1Rm1I6JlWpVSiINpG0UzSp1pSDUe6TIiNXUy4lyuSAoG3DeZgZJ57zWtIPJxQRuIB2Y0vgi44S2AI/FcXAzvk+XeqR5+czjrH0uZOo9IwJcdnttvUqTatNuMkRKvV+7yCelG5HNR9geyCShtXsjLclHy2T+eWKjkbV1i2j3BjzBGQ7NvnD9yUe7qbSr6pJUqPW5DPPtIsZxTh9oRER+WokFuaC6cj43gAAC3xTGLXDkc2ON03RIywVeFkAOGIvD9F2Y6sJmdqormnJeX9ZePy06WfpkylYTlzyobdz1+8KWVPp1LhNPIdeOO7yM5ajNvikiSg1Ee+3XYu7tzHtz0Xwir9ysWtWStSNh9iisVlcJ3uSpKJ6DJjvHHszd4J5cOXLbrtsLXgL2RTdeaNpJ5ZYWDoAJI5Z3q1zy5pZsiBycZriec3QDyAIK660MX2rOw/eOZKRSo1IyLZlDeq9EuuCgo9TiriJU8hrvCCJa2T8tJtLNTZks90+6LFDyrstii3ta9Xs644hSqVXIL9PmsGe3aMOoNC07+5ulR9RBaGOfTcKfjQYO47DOxX2d7adVpf4sieUbRy8y4q3a/Wch6cadc8yOb1VuSymprrUdvfnIfgks0oSXvqUexF75EKUWtiPM2PMI6XM80HFtfrFfxA3VI1w2f3NbNWcgTluNuLaYcIlG6hPUm+PJXaJMuhGYthp1wFkvA63baqeoOpXrYVPglT7bt+pUGMzIpLSVkbfOc2faSOKCNsiUlKSLbYiIiITiMmrdNV1alhJBHJBfgRliHEEDZkZyipE02Ck/jABzT/iDg0E79mEiZxhUSvy/Msahc84BualaZMl2nZ1sXa9IlVK5aX3eWlao/FRuxWzcVHYT02edUlKzURJ8xiwUDUbKrWqyp6aaDYnfI1vW+1W65cR1QklBcd27KN3bsj5qUS2j3NxPRSj28nrNYi/EuD4uM72yTkKZXSrVdyPXU1ORJ7qbHdYbLRNRIREbi+ZNJ5+X5PI1n5KSIiEdMBrrv3suceUlrWgdEXp/wwc8bnuDxe2w1o5AHFxPUSOcyMBhHOgu0rqs/Gl7QLutmq0STLyLcE6OzUYTkZx2M48k23kJcIjU2oiM0qLofuGKyuYSzXUtFC7XYxxdUpuJlibW7mtFKXqdPr1vlLWtxlolElayXu2tJJ9lxJSdzSRHpgAj4PxP8LWtG0cUsIJG362JG4lXisQXHe4u6w8Yc18wd4Cy/yzYlEv2yrVRp98HndNhx6TddGdqFbrVqMwayltuQndtlhrtpTzRpM1OvrUhCSR1NRmW1qaRaV1NeEPuC9nLZqqLdexbEp7dXVCcKEuUVQNZsJf24G4SfKNBHy267bCy4CVnFIdnBcffMudgx/iVG95eCDtAHU++Pi/iFWbDFpXXS9beoa66nbFWh0StQbXRTKk/CcbizVNQjS6TLqkkh00K6K4mfE+h7CI5Wma9syW7q5x5LosyhP3heUepW3OqsF1mLNXHS262ttakkS2lLb7M3EciLkZ9dthfUBGaQLWtnJt34TXTzgtCmFocKnCDOWn3rLkcxGaz1p9w2FRaAxbN2+CRqcnIUeMTLrdMx3SpFBkSiTsSiqaUmlttZluZ8FcN9vL23Odb2z/V9Plm4SsaJhClpvDIcqJRGrQplSZp8OjL7JCpPZqbbdQbTC1pTsguJke/Ium9lRF9fwfFufUHa2dK1XSfas2hTKZR6OcU9mJkpZE9N7btNjM2S7IkdmW25nyPoRSAkuF7IkE8wkwB/i8WcYkERBURLbpgZAgZnEwBj/hz5YIM4KKGLNu8tcWT7tO1awVDqGLYlPiVM4LvdJEonzM2G3uPBbhF1NBGatvcHPYKsS+KR4MSVYNWs2uwrnVY9xxCosinPNzzfd732bXd1JJzmvmninjufItt9yFyAERpA0H0NjhHwnu/9z1KRtctrMrR4pB6mtb/69qpxeNiXxK8F01j+NZtceugsfU6EdEbpzyp/eEkzya7uSe05lse6eO5bH0HAZ8xrXGMlYjv7LWAL3y7i+i2DGph21b8Nc2RSa8XE1PvU/mjtCU2SWz5+T08rqhJHoMAlqk1K7rQM3EHflfH/ALmNxAKjpv4Om2nsAI5cbnyBzgkKgGLMb1Cp6x7QvO2dJE3EFgybMrEFKk0hmK8+bm2zk9MVBtRXlcjShpx1TnFG57EZEPs0335mnSRYqtL9yaXMkXlVLfqM1Ft1u2oLblDqUV95bzS35zi0oieU4oj5Eo0kZbkRlsL5islx6aNTdSr9bK3dc1y0W063NkyDpB2pClTIbDzi1GxHqDi+1aJBL4oURbpJJbeYtrBepwG5QQeXjFwncReOIBEE4ZRJfFQHhIzBGeYbdw5IzBI2Y4KK9IuX0YO0IXvma6aAfOhXJcE9dLOYlBOyFTOCIxP8TLq8om+ZJP3yI/MJEynlW8LrxNYF03/owl5Cs+7qadSuO3qf2Fan0N5ZIVEU3HcQg5KjbWszNCEG2r+EXTl1FxaNrHnYDtTTdbVYkUuzaHV4FQqrclo5T9ajsPnIeZdWS2yQt97ZanCIyLqSUEW3GwSUpQkkpSRJItiIi6EQqaYuXJwbdaMMIa0AmDJhxOAJlt2ZxVjngvLwPGL3HfxnSBztxJ2G9GxZv4kwZeNUybfV96WMLX7ge1qnj+pUY4t1uOU56o19wl90dZiLccUyTZmkyd5ElOx8SIzPlz2O8d2zTsLycXRfBs3bUMrx6K+xVrhuqhsLpi53ZKS9NZqT6nVvHvu6hphszUrZKPcWNQgFj6V5hpzgW3eXNxz2CXHAbAIgiVKLS4OD4xmexox34NzO0k7YWftAxlkhnD+iymPY+uVuZat1RZFejqpL5O0pokO7uSk8N2EluW5uEkupDxE2BDsjP2T6hqK0ZX/mqv3Tcj8q1bjgUdutUsqOsiKLFcN91LEPstuJmotyI9uiUkatHQEryXVHVBgXFx98GAxuPEGO4kbVCx5YwMGwAe9LiMtnGxHICs6MdYoyZTcB6vqLKwRMsudc65S6HbFJp63I6iXAMksQTaaQiSSVHw5Mo4mrfjuWwuZplpNVoGnPGFDrtMl06o0+0KRGlw5bKmX47yIjaVtuIURKQpJkZGkyIyMjIxJYCrOI0tG0MHvA4DrvKj3X897j74g9kLOSBhm6HNeVU08R34q8VNXAzmyRAaWZdjI7M20x1pT0JKpppWTR9ODZGXukNGxEeG8CLxjf2S8nV67zuW4skVhua7I7j3VMGCw32cWEhJuOGom0moue5cunkp26y4LaYuUWU9wE88AAfotDWztuztV1d3CVnP2Zecn9Jxc7pjkUKai9RsrB1Zx1adAsT0XXFke4E0SBT/GhQSabIiN2SpfZOGaW+be5cS6K33LbY605tsNNA1e3VkjPel6/M32hWKZTo9krt+l+OmKL2bfGVHehKcQ22S3TNfNe5e6W5qVxtjX8Hxbn1B2tnStV0n2rNoUymUejnFPZiZKWRPTe27TYzNkuyJHZltuZ8j6EUoC1rTxah8aXdAPFA54F6c+NdykK7hAyWsyIA6ZvE+RpGRgnbKzzxbp/um9sqZ8t93T8WGbbv7HDFGo0ViCgoTK3CWhCnHI6ExzkdUuOtNqWaN+JqMyMx69l5lz9bOnU9Ms3R/kyZflv2w/bHjBuI23brzDMdTKJKKgatnD7MkqJptClLUXFJmZkL6gLXUg+k6iTxSCD1vI6r5HKNyubXIeKhGIII5OK1p67oOO3fjOddMxNmOwMN6Wc927jCu1qvYghTIlxWgURbNWXBmoNp1TTDhEo3Wy3Ps+PI+aT6ERmOnvy/Msahc84BualaZMl2nZ1sXa9IlVK5aX3eWlao/FRuxWzcVHYT02edUlKzURJ8xi9oCdzr1S+cg++BuN4OI5pE8hJ2YKG99TuRjcLJ5II68SOaByqrWnGzruoer/U1c1btWsU+j1+XbiqTUJUF1qNUCahupcNh1SSS6SFGRK4GexmRHsI8zLhn0rdTN25zuPSvFznYOQYMI50eDQYlWrFvz4rRNcmIsgjN5DySI1cDSe/stuCSXegBGW4MjNrQ3nAEY9QPOApOGJfUcRg8yeSIiOrqkbVTfEtckT7guO6cDeDxaxyik2vNcptUuK3KfblTqlW5I7GnJaRxW2wskrNTprNO5J347FygDMthWvnOluUjG/g78n47zS/JYch3DHpaaPRabMS8hTkg57TiGXiIiUfM2uSjPcjJWyhqOAoWSWmcuvMmQdmcYbAIxkkysWOLgPiyAxG3Kek7IApJnepQ3q4qytTOhe7MtU6nwosei3hZ9Ebq8qWXd2zkEvs1tvxPq5vfw08uh8C6GbRziS88WWXcq6zaVXs616/ckqfaFrVib3idSaYZJ4pe6mbalKMz4Go1FsZqMzM1HdseZXqK3WonY8+DrZmppfuEfvH9oxa9hIcdp6NoMkDbhnz4YrKsFqFmqMBwaDz7COrGT0boUPXd9ala+90n8moc3pdiKi3ZON1HFblMcUfvkXas7F/+vfEh3LZ9U9DFcVNbSyy1TZSjVzJRq2aV0Ii/wDzHF6dvr2m/epz8s0OPa0lzNctEsIzJ8q6PStTKur9sZTIOUwpLz1lymYIw/dWXKtAKcxbUBUpMPvBMd6dNRIaZ7QyVw5uKQnfirbl5j8wrRmljMN3Naf9a9sYfnTKzZzcmXXLIp8rvs8qZUmEoM2FcEds82jYzQSCVu5t5kGYsNqEwjH1A2XTsf1Wv+LqIVdp9TrMcopveM4cZ3tVQ9ycR2ZOLSjdflbEk/JMzIyk5KUoSSUpIkkWxERdCIdkaDJfMODhd5gMTyh14tI2BvLK5bfa0BsSCHB3KDgBziCZ3kblRO/L8yxqFzzgG5qVpkyXadnWxdr0iVUrlpfd5aVqj8VG7FbNxUdhPTZ51SUrNREnzGPFnYipenLLORpmStFfp22Ve9wSLmolfoFpwq7Vaa7JPd2A9GeLtCaSojNKyVx677Ga1EjQcBQMDZLNpJ35hgI+AIIjdjjNeGJwIwgDmguIPwiDMjGcMIoBfDkCq6WtQlft3R3Fwfbi7VQxS35VEh0qrVk9nFPHJjMESmUNmbZJSs1EZqUZK33Sn8I+eMu5C0r0PTnjfSrk/wBFFxWXCtsq7VqY2xbTUZ+EhpyYmoJcUlaeyVySk0pPc9j6lxO5mc8Y+nRiG7MVePPE/oopjtO7/wB27x3fn/D7Pmjnt73Iv5x6+OLQ9L7Hts2H4w7/AOhykQ6V3rsey7fsGUt9pw5K48uO/Hke2+25+cLgeKjH+KQwRvjhJx2eNsjPDLCvDXCx7RxgXHmwpgc/ik4ziNxhU5ynhy9tO9c0xZCtSwLlyLRcM0udQK9FtqN3qpLKTDQwUhmMeynE8+0VsR9CIiPiR7i4OM76VkqyqdeirLui0zqJOH4ouaAUKpRyS4pBdsySlcOXHkRcj8lSTPY+hdQIByZpG9Mq9qlevqnc/Wr4xNs/FNs3p3GmxuDaUbMsdirhvx5H1PdSlH7ovNR5JDsZJPNJkjpJJ5MlHDHBsmC0Ab5AmPL2KfhmzA095nqenGbXrcsOpt3lj3OVQyBSqFU4rkN2sRWnyPi12pJ3JaVckK2MlcDJO5mQsjbmiT0O3BTLg9VzqVqfiyYzM7lUb+7aJJ7NZK7J5vsC5tq24qTuW6TMtxZUUukOFRph2Q5Icx4PW3JXB4bxMxMnl4rmkdTjis+tS+W8wal7Bti3rM0jZcocGnXjQ59ZmXFRu6vMm2+R8Y8VBrefbLczU/xShCU+VsaiIWayHqNlWhqLx7p2t6xPRBUbyhyapUZvjQoxUaAyZl26m+yWbvI0OERckdUkW579JrEX2/g+LS9QV1agarXSqVRrdEg29S4hxTbKkwWTNx5BOG4rtTdeMlmfFHHiRbH1MzAGuA+9vFx5eIABzS1uUGJxnE2ucHNcdoaAPfTPOASd0jLYq42fPyhojyPk2kTsEX9kbHt+3RIu2h1SyKeipzIkmSku3jSY3JK0kk0pIlmfEyLpuajJPy5xl5vztScFXjV8EXLbioGaqZUEUruq5UyDQ2iLjNnk1yKPuZrNRL4k2WyT325KvQAUpplk43LkczC0jsaGzu5cVc+peLnARevT+kCDzZzG/IgYKI9TFwXVb1hsO0TA6cuUaVNTHuS3SJlx1VONCzN1ph7dMhSXEtfUuKjVufm25FUPE+J6Zc+qKwMl6b9LGScIUmguzF3rOuiGujRqjEcaIkRWYanXCc3V7qCSkuhqLdKTTowPIu63vRba1Wtfx5VqN42hPQ/GNIk93nRO0Qae1Yd2Ps3U77pVsexkR7C1oNN/CjEjEbNmU7ju5SDIwQPBaaZwBEHp2xv3HZAIxxXritPhB7Suq9NPiaLZ1s1Wu1D0T0SR3SmQnJT3ZNzEKWvg2Rq4pSRmZ7bEXUx5/qDPuztUv/8A0X9XEn4RwB6ScirP+nZle/fGyGUcL3uTxoiJ2ZqPdguzR2Zq5+V59+KfeF7RLmuP3pDvekGOmFa6GtIaZkEdYjsmVAtxOZF0par8hZbi4YvfItiZdg011xdmUzxjUKXUYTRtdm7H5JPs1pUpXPdKfKIi3NJkPt02+mxdesjJ+V7+wvcVhUuu2lSI9LRU0doTiG1+SS3kEbRPmnylspUpTe5JV1IxcQfPUWJcmnyo1Pm9zlOsrQxJ7MnOxcNJklfA+itj2PY+h7bCxo4MMOdwEDmLXNA5wDAJOWB3q6o8VrwyL7sn8UtM9N0TtnHkVWc5QI2WtZWNsFXowdUsWFatRvCoUJ5HKFUpjb6WY/ekeZ5DZ+UlCyNPI+pHv0tLTabTqNT4tIpECNBgwmUR40WM0lpphpBElCEISRElJEREREWxEWxCDcI6ZLjsHI9UzTl/M1Ryhf1QpaKFHqj9Hj0qNBpyV9p2LMVg1JSal+UpRH194jNRnPYuY3g6QbtMk85cY5yG3R0QMAFZUIfUJGQgDoAnoLpPTJxQAAVVqi3UT9ZML76t/kXQ07fWTN++rn5FoNRP1kwvvq3+RdDTt9ZM376ufkWhx3+839T5l7r+yP6zzqUgAB2JeFQAAEQAAEQAAEUD65fatXt+Df0jGEEeC7/jM/A3/Oid9cvtWr2/Bv6RjCCPBd/xmfgb/nR5S1/dFQ/EPkeu/wCr38zelvzhv/KzK94AA9WuAIAACIAACIAACIAACIAACIAACIAACIAACIAACIAACIAACIAACIAACIM1PCWfv60L4pRfzyYNKxmp4Sz9/WhfFKL+eTB5vWr7XHnC7V3AvuyZ+TqeQK9+A/3isc/FKkfmbQ7wcHgP94rHPxSpH5m0O8G9sv1hnMPIuVad+2tp/KP/AORQAATrVIAACIAACIAACIAACIAACIAACIAACIAACIAACIAACIAACIAACIAACIAACIAACIAACIAACIAACIAACIAACIAACIAACIAACIAACIAACIAACIAACIAACIAACIAACIAACIAACIAACIAACLw75+sm4PvVL/IqEJadvr2m/epz8s0Jtvn6ybg+9Uv8ioQlp2+vab96nPyzQ47rj92+h+nyle60F9z9u6PIrEgADsS8KgAAIgAAIgAAIgAAIgAAIgAAIgAAIgAAIgAAIgAAIgAAIot1E/WTC++rf5F0NO31kzfvq5+RaDUT9ZML76t/kXQ07fWTN++rn5Focd/vN/U+Ze6/sj+s86lIAAdiXhUAABEAABEAABFA+uX2rV7fg39IxhBHgu/4zPwN/wA6J31y+1avb8G/pGMII8F3/GZ+Bv8AnR5S1/dFQ/EPkeu/6vfzN6W/OG/8rMr3gAD1a4AgCkWHpmr3UBWclVqgarkWnTbSvyrW3CpTli02elTEdaVN7vH2ayLi4SOu6vJ35GZ9JMwnnfK1Oy2/pr1JUWkM3h4sOr0G4KKaigV+IkzJz6moiNp5PEzNJbEfFfkoJKTc9npHUm02EVm07RSq1KLQ6pTYX32tgEmH02BwaCC64XQMTgCVjeiWg4gxMThEzd3zicMlZEBy125WxdYMuPT77yRa1uSpZco7FXrEeG48W+26EurSauvvD763etm21QUXVcd20WlUVzs+FSmz2mIqu0Mib2dWokHyMyJPXruWw8qLFaSGOFN0P8XA8bm39CyC4AwTy9G9e0A5iLlDGk27XLBh5Etl+52uXaUVqrx1T0cU8j3jkvtC2T1PyfN1C8cpYyx2thvIGRbYtlcojUwmsVePCN0i85pJ1aeXmPzC4WC1uqNoik684SBdMkbwIkjlCpebjjkunAeTb922rdtGRcdq3NSazSXCUaJ9PmtyY6iT59nGzNJ7e71HguZrw0zSKZX3st2Yil1tbrdMmqr0Uo85bajS4llztOLppURkokmexkZGKMsNqqPLGUnEgwRdMg4mDhnAJjkO5LzYmV2gCs2m7WVaGV5V30u/MgY8pVSg3vNt62YkaqtMPVWnpNtMV5CHX1KfU6paiJbZElRkRJITNUs1Ybo1Peq1Yy1ZkGDHnu0p2TJr0Vppua1+6RlLU4RE8jcuTZnyLfqRDZ6S1a0pou1mxV6Lr4jIEzIkRhirGVmVAS05Ejqn4j0LswHM3Hk7Gtnpp67tyHbNETV+Pi86jVo8YpfLbbsu0WXab7ltx3846CVNhwYjs+bLZjxmEG46864SG0IItzUpR9CIi90xqHWasxrXOYQHZGDjGBjfHIpAQ4wM1+wDlrQyri/IMh+JYWSLWuV+Knk+1SKxHmLaLfbdRNLUaS398f5VMrYuojdXerWSbWgIt95qNV1SqxHaKnvOlu23INSy7JSy6pSvYzLzbiY6PtYqmiaTr4jC6ZxgDCJxJAG+QqB7TkeRdUAinM+d7asHAdw5ktS7bWntx6XIkUKS9PbdgVGYltZssoW24ntjUtBkSEL5HsZF1H56fNQVk5qsW15bV92fNvKo2/EqtYolIqjLj0J5TbZvpOP2i3W0occJBkvc0mZEZ7jN9INI+l7tJ8EeCa8sJgyHASZEYAbSduCtNZgc1pOeI7B51LQAA0ykQAAEQAAEQAAEQAAEQZqeEs/f1oXxSi/nkwaVjNTwln7+tC+KUX88mDzetX2uPOF2ruBfdkz8nU8gV78B/vFY5+KVI/M2h3g4PAf7xWOfilSPzNod4N7ZfrDOYeRcq079tbT+Uf8A8igAAnWqQAAEQAAEQAAEQAAEQAAEQAAEQAHl3NdNsWVQ5NzXlcdLoNHhEk5NQqcxuLGZJSiQnm64ZJTupSUlufUzIvOYoSBiVUAkwF6gCLPVWaXf5SWLP6407/GHU2PlfFuTTmFjbJVq3YdO7PvniOsx5/dufLh2nYrVw5cFbb7b8T28xioxyQgtxK6oAAFRAHiS73sun3TBsafd9FjXJU2FyYVHeqDSJ0plO/Jxpg1dotJcVbqSkyLifvGPbDMShwwKAAAiAAAiAAAiAAjbNGo7CWnmnwqnmLIEG3W6is24jS2npEh/b2SkMMIW6pJbluok8S3Lcy3IULg3Mq5rHPMNEqSQHw0Kt0y5aJT7joknvNOqsVqbEe4KR2jLqCWhXFREot0qI9jIjLfqRD4pd72XT7pg2NPu+ixrkqbC5MKjvVBpE6Uynfk40wau0WkuKt1JSZFxP3jFxBa66c1YCHC8Ml7YAOUxtlKxMu0B66MeV3xtTI8+RTHH+6vMcZLC+DqOLyEqPirpuRbH7hmKTJjbn0YCesjrCrGE7MunH4j1FdWAACIAACIAACIAACIA8247ltyz6LKuS7a/TaJSIKSXKn1GW3GjMJMySRrdcMkpIzMi3My6mQ+mm1KnVmnxavSJ8adBmsokRpUZ1LrT7SyJSFoWkzJSTIyMjI9jI9yDNF9IAAIgAAIgAAIgAAIgDlMkZSsTEdDi3HkKu+KadMqMalMPd1ef5yn1cWm+LSFKLkrpyMuJe6ZDqwBnEc3TgY6iD0hCIz/j+IKAOUpuUrEq+RqxiWnV3tbroECPU6jT+6vJ7CM+ezS+1NBNq395KjMvdIh1YAyJGXxGD2gjnCEQYOfxiR2EHmQAAEQAAEQAAEQAAEQAAEQBymSMpWJiOhxbjyFXfFNOmVGNSmHu6vP85T6uLTfFpClFyV05GXEvdMh1YAziObpwMdRB6QhEZ/x/EFAAAReHfP1k3B96pf5FQhLTt9e0371OflmhNt8/WTcH3ql/kVCEtO317TfvU5+WaHHdcfu30P0+Ur3Wgvuft3R5FYkAHPZAv60sXWbVcgX3VvFlAojHeZ8vsHXuxb5EnlwaSpaupl0SkzHYXODAXOMALwzWl5DWiSV0ID5KTVINcpcOtUt/todQjtyo7vE082lpJSFbKIjLcjI9jIjH1i4gtMHNWghwkZIAAKKqAAAiAPEjXvZc265diQ7vor9y0+OmXLozVQaVOjsK48XXGCV2iEHyTso0kR8i98h99Yq1PoFInV2rSOwg02M7LlO8FK7NptJqWrikjM9kkZ7ERn7woXBrb5OG9VDSXXQMV9gCG7q1f6dLJxza+WroyKmBad5r7OiVFVKnLKUrYz6tpZNxstkme7iUl0EqW/cNCuyhwbltisQ6rSamwmTDmw3kusvtKLdK0LSZkojL3SF0GSNxg8h3HlVNgO/Eco3hegAAKIgAAIgAAIgAAIgAAIgAAIot1E/WTC++rf5F0NO31kzfvq5+RaDUT9ZML76t/kXQ07fWTN++rn5Focd/vN/U+Ze6/sj+s86lIAAdiXhUAABEAABEAABFA+uX2rV7fg39IxhBHgu/4zPwN/zonfXL7Vq9vwb+kYwgjwXf8Zn4G/50eUtf3RUPxD5Hrv8Aq9/M3pb84b/ysyveAAPVrgCqloA/9Bzl/wCMNwf+TA+PPclqs678A0agR+91e3KZXqzU0tL2WzCcjG23y94lLQtJb+6r7Y/e3dH+e7Arl3SsXavl2vRrvuSdckqmt2FClqQ9JWRqIn33lK3JCUJ3IiLyd+JGZiVcG6brWwtMq91PV6sXde9ycPHd01x/tZspKduLSPcaZTsWzafcSkjMySnbrGktL6HsulLVp2z2ptZ1Wk5jKbW1AQalLgnGoXsY0BoLiA0vkgDASRg3KhY6hdwc4ycIgvvc8kYDDA47FSXT2jI2R7RqWVqvoJoOZqpeVVnSpt01676UlazQ+42lhmNMbWuK20SezJKTLckEZeTxIv7yZYmV8faGr9tXJlhvWZTlZBhzbYoZ1mPUSptLfltLKM3IYWe6UOG5saiSe6jPbr0s/N0k31Z1wVqq6bNRdYxfTbinLqVQoTlAiVqmokr9muKzINPd+R9VEkz36F0SlJFFGsHEVUxXo1uqm3Bk6473rVwXZTKpUaxVlpS52y32G+DCElsy0lLaeLZGZJPfbYtkl7Ww62WDS+nLK2xPpBlW0UC1gFqNVga8QDwjzZ2XAS2aUgjABoMCCtQe1tVzpOFQzxYxa/kvbcsp5AF6OtfTvhbGWl6pX/jiw6Natz2TJptTo9bpsdLVQKR3xlG7kn91ePZxSt3FKPkRK85EY9fKl+4ivHJseixNKLuasoRLepyqs25BjrgUhh1KnmmXn5e7TKz7Vai2RuojIjVunZPSPaQ8g39V6O1nrUvW8g2VRZjdRiWwdvxKYh9xvY2imPxz3lJTsW5KSW57n03Me5f+mC9ZmV6rmHCGeqljStXNFixLiZTQotXi1BMZPBlaWnzJLTiUeTy8r3diLdXLytl09oynRpWO32/hqrOGeKs2htOahpAUnuDRXLYY9xutAvuaAYvFSCm67epsiABsxxnKYwGU7ScMBMK6Um65QNReaLcl4aYxNFqVqwKw5aUWqszozD3loS+2bBJab5pUozbSkuPm+0PT8HXgXDdxaYrTvu6cbUCv16e7UCVNrEJE9bKGp0hCEMdsSiYRsRmaWySRqUpR7mozEwYr0rvY0ybdmTJmVq5dU67qE1SZi6y0Tknt0rNSn+1SskEjqSUMIbQlCUpIjPqZ9Zpqwp6njDVCxH6JvRB4lXLX4w7l3Ttu3kuP/uXaOcdu04+yPfbfpvsUOs2uFktFjtTNGWgipUNk8ThReFKjVZUxeS4gOLBx3FzsDjBIq2g4uYXDAOccY2tZuwzBy2445mumg/EOJqo7lqtVLF9pS6hbuW6zHo8t+iRnHqc0wbCmUR1qQamUtq6oJBkST6lsPx0i6fsO5KPNFzZDsGk3LUH8lXFSm11ZhMpMWOTqVbR0ObpZWanFGbiCJZ9PK2SRFLFE0u37YWV6xeuJ9QdStm07ouArkuC1H7fi1BEyUpRHIJuU6rnHS6RcT4p5EW2xnsnbucD4U9JKBeEH0TeOfRXd1Sunl3Lu3du9qSfYbdovnx4+z8nff2JCmnNbqb2W202K3EvtAoloHChzLvjtcS0NGOPFc5p3zgqigQ4Nu4B5M4QQb5HLhI2YbFUnSxgPEl/aKatd182XCuKuv02twGanViOXJgx4i5DcZuI46ajipbItyJnh16nuOPuO5r5unAuk3FjFlTb/AKddMabJqNvHXUUpNc8XtkceK5Lc8lLaCPmaVdFdmhJbK4mLp4V09ek/gN/B/ov8bdsipo8aeL+77d8cdXv2PaL9h2u3s+u3ub9OcPRxa0/Alk4arV3VRNXx+aH6HdtIR3CfClpWau2aLkvgRkeykGoyPYj3IySZbUa+aOOlrTabTWNSmbU59KRUIax1KsxrwAWuaGOdTdda5j4aLsEAihspGFMAYVBPOW3RzQCNsDoUCVLGOdqnf2PLpx5oGoGIKjbFyxJk2uUG7KKo3qWZmiXGdYYJntUrbUfUzUoiSZEXlDssNYcxjkzVVqJq2RbKpdzLo9dpbUKPVmClRGe1hH2iyjubtGs+CS5mk1ERbEZbnv31M00Z3qlfo0rK2sO5LnoNDqcaqtUim25CovenI7hONtynmTUb7RqSnkhRbK236HsZSFjHCvpcZLybkT0S+MfTGqMKf3PufY9w7uwbXDtO0V2vLfffijbzbH5xrtKa30WWOvRs9ppipwNxho+idtek8tL7QTU8UPMcVgkgElys9DOc5humLwJm7kG1Bk3lcOXLYFT9mzLVpmHdZOPI9AgLtu1KtPqVCpr0dDrFLkqgKX2kdKiPsjSZFxNO3HYuOwsro8xjjW3MGY3vW3se2zS7hqlmUvv1XhUmOxNldpGZW52r6EEtfJaSUrkZ7mRGfUh6ltabKRS5eY01+4narTMwzFvTIjUbuy4TK4xsLbS5zVzMyUZkvinb3jHx6fcD5Uwk4zQK1qGm3jZFKpx02iW/KtuLFcgtpUnslKmIUbrxoQk0ER7J2V5i2SRYmn9ZLLpfRlos9G13XXqT4PCfVfqDGVAIaRe4RpJv3WuzDipW0CyoHXZAdU3YBz5aeaOkblOIAA5Us5AAARAAARAAARAAARBmp4Sz9/WhfFKL+eTBpWM1PCWfv60L4pRfzyYPN61fa484Xau4F92TPydTyBXvwH+8Vjn4pUj8zaHeDg8B/vFY5+KVI/M2h3g3tl+sM5h5FyrTv21tP5R//IoAAJ1qkAABEAABEAABEAABEAABEAABEHl3Na1sXrQ5Ns3lblLr1HmkkpNPqcNuVGeJKiWnm04RpVspKVFuXQyI/OQ9QBQgHAqoJBkKhGobAmC6JrG012xRsLWJAo1deuEqrTotuQ2o08m4iFN9u0lskO8TMzTyI9jPchOWcLlxboawxcWX8b4KtaPwkQI8yn0OJHopze0fJpBuOssK5cO1UZEaD85kW25mOI1M+3i0rf8A49zfmTY/bwpvtMrq++VH/P2RSkTwNMDbUIPMagEdSzLoq2hjH4i4D08f4lIVs5/ytcbNyXOvS9dtNs+m0J6rUOdKqEYqpXZCNjTFRS07vsG4XI0G6ZHsRckJM9ijev60c9Y0pRX3m/RPX7SsFl5tE+uQrwgVWTCbcWSUOuQm0JcSncy5Gai47kW5mZbydq3ylfGF9MF25Jx1BbkV6j09g4y3GO2TGS4622uQbf8AC7JC1ObHunyd1EaSMhQzUs5jipad61cFU8Ihe2ULvq1MJ5m26DW2E02W6fBayk0uKhZx2EIJSlE8aEpNJbmSvJOOtV4K+5uTN+3M7McRhIgYYSbyjsVMWhlM1B4+6cMGzjkImcZzOyFeu68k2ExqlxhZi8W0Or1y67eqdRpl4uJa77TYzCORstGpk3ODhOK32dQRcj3I9zEb23rgy1kmnV9zDmkKv3fNtmvVCj1EyuWNAgIbjLNCVtypDSe2fVtyNhttXAjTuszPYeR//F9pa/8ADOq/mbQ6rwdH71N/f+J9y/l0Cd1MipwYOAFQ9La1wdhxiJzzxWO2oDTFRwkk0xtydSLj2jDdzYLraLrQxZUdNcfUrPiVaHTXV9wXREMdtUvGpOmz4vbbLbm6bpbJ8xGkyUfEt9uPd1mZYshyn3JnzSTcGPMf1GXHieidVzQqiqD26yQy5NiNElyMjdSSWajM0Ge2xn0Oo060q1XtDlNuiDIuNik2VnCfX6/It1zs6jCprcl5DsyOrYzS6z2hLSoiPj1UfRJjtsh2fohqmMZNUvTwkmZrst2ay085Ql5IYqcmX5SVtIVTVRlO8iWSD2cbLgZEauOxmUNKrw12rGdw3eRzWOjfJLi1pnZkSCsw2drTwOeLhMY8V7m/i5AEiNuwEK3GYdT1Vs6/WcPYbxDV8qX+qAmrS6ZCqDNOh02GozJDkqc8RttKXsfBGxmrb3N07/Vg7UnUMk3lWcT5NxZU8aZFokFqrO0GbUGJ7UqA4vgUmLKZ2Q8hK9kq2IuJqIuvXaoF+WDZ9qa0b6i5l1GZRw9Rb5pFFm2pXqFcyKJCqyYsRLD7EuR2Smu0aNPkko0ERKV/94gjlnTdZ+mGlanTnY71UZBzFfzFpSUOvVi52K/DjUvvDO6O9IZIiV2qyNLaHT23WaklyLeShxiJMyHc4i9gBsiIdM4ScMIhqtbcloiAwzjBvBpJJOEYmIjGAcZV1QABVQIKqU5iBc3hK6zMVFTPOzsWRY5OrLmmny5M9S9k7+wcWyZ9S2M0mfuGYsjels+jO0qvafogrVC8bQ3YfjOiy+6z4nNJl2sd7Y+zcTvulWx7H7grTpchrwbnW+tLM9Ca04dLYviDdshv/pWrsPOmy4mpO7n3h9tzoTvk7p38lIown0Q3kDo5TccCOSGku5YjMqQxwD+W6DyC+0zyyQGxyzkFbAQfe9/WXR9WGN8fT8UUSpXJcVCqsuFdzyWu/UpmMkzUw2Zsm5xc5qI+LqCLkfRW5icBUnNsV2dr6wvBYc7N2RZV0tIX/wBVSmdiP/eYse4te0tE+Phvim8jtA8mSNaCx0mPF7XtB7CvuTrNyHflzVljTlpfruTbQtqorpdUucrih0llyQ2f1ZMJqQW8skl7qVJ3PYuhKSo/l8GbJXM061GY5EeirfvWvuKYeIicaNUnc0K2My5FvsexmW5eccDoS1DYVwbpnRi3MeQ6FZd248qlVgVykVeWhicbvfHXSU0yZ9pI3S4RfUiX1Tt7w6PwfuQbStHSLcuTLoqniy3addNxVWXLfZc3ZjFINZqNtJGs1bfwSSajPoRGfQXNuU6pIdeApk3tmLqRncAcxtA2q+sxxbcDY+qwBvgVB0nLLDHmUw6lNSzOnN6xCfsOpXQi9a+VD7GmuGctkzbNZKZYJtRyHFGRJS3ujczLdREOTtDVzfiMv23ivOOnGr4xavrvKLUqki4IlTROdZSSzZfRHLaK4aDLZBrUfIyT/wBocZqUvu1snXLpOv8AsiorqFBrmSI0qBKXFejm80bKyJfZvJQ4kj26ckluWxl0MjHQavv3/dLnx6lfmgU5a7j7aoZG4EUx1gvJx5iFY66WkN9bL55Qah6iGgHsgrqMk551I0O/KramJtG9XvqlUk2211yXd0KhsSVqaQs+7pkIUbqU8+JqI/ZJUXuGPntzWRSrl0/5EzG3jur0uvYwTPYuC06o+lh9idFaJxTHbpSojQojLZzh7/kivUrKkzMmVcq0fOWtibgym2Rcsqi0m06PUolDmOw2kl2c3vb5drI7Ut1cUErY9jTsSkEOHw6dEXpi1pOW1ddy3PSXDlrg1m5FuLqdQYVTlGh99TqELUpaTJW6kJMyMj2GOarhZ3vBx4MvB2g8WJjDEE4Y9hWYKDBWZTcPvw058s555ZiO0KfZXhBrspNoW/mS4NLF1UvEVTKEmoXe/V2Cdhqf2SbjdP4d4fjEtSSS8ZNk4kyUlPVKVe7U9cNz2zcts1K+NNN2W3i28KuzRaTec+ox0yFPvmZMOP0si7eO0vjyJTikq47HxMz4ji9T3/2UjPxNtT8vAHS6+va3WH8dbV/LEM2o3g67mbG1Ws5w4gGeUThEcsrCaRUs7KoEFzXnmLGgiOe9jOGGAEqRcxanKvZl/tYcw9h+sZTyB3BNVmUuFUGadDpsNRmSFypr5G20pex8EbGatvc3Tv8ATg7UnUMk3lWcT5NxZU8aZFokFqrO0GbUGJ7UqA4vgUmLKZ2Q8hK9kq2IuJqIuvXapWUrJtS39c2RjzZqIybhulZAgUqo2vW7duYqJT6oUaMTL8eTINtTfNpReQSzTsSj6/VEEcn6brP0w0rU6c7HeqjIOYr+YtKSh16sXOxX4cal94Z3R3pDJESu1WRpbQ6e26zUkuRbw2YmpdLjN4OJ3ggEwI9SRDpnAE4YRNaabWAhoyu444zdkmcIxMRGMA4yrE6lbptyx8D3teN22JTb0pFFpTk6VQaiTZxp6WzJRNr7RtxO25Ee5oVsZEewii9tYMPEr+GbOt3B1RrCcmW2ufSqTbzyO1gqajMrZhtME0lCm/qpJNw1NIbQ2pZlsWw+bU1m3GGYdJufIeN7m8crtGmTaPV1IhSGW2JidyU0lx1tKHduJ9WzUnzHv1Lfh2PbH6MP/DyrfoqOFH6pVLZwN04biys6em60g49RM2PAp0rxGIv9YdSHnIPxgR1lK1zX3Huyp4hvvSpdlGyumOxOoVqU6rxqo1VYjhmnt1VBCUx4zaFEfNbh8U+4Zq3SXf6f9T1Uy1c15Y0yFiap47yDY6GJNRoL1RaqTbkV9PJp1iS0lKHd+hGRFsRqTsauu3E1T/7T+i/+DT36VWOXqV0V6ydY+pC8rWo6arWKHimnVGBBUlSikPstrWhs0p8pRGpJFsnqfmLqIzULGNe/74VMtlwVCCOU3MZwxwiFI+iHOcymMRwcct8sBHNx8NuGJK6CravtTlAo0y/K3oJuaJZNObVMlz1XjA8ZtQ0lup06bw7XkSepo36ER7mWx7SBkTWBj2zMSWbk+gUisXVLyOUZuz7ep7SSqFVkPoJaW+Jn9TJO5E4vyiRuWxKM0kdLXbutLJ+n9WTsteEavObd1eoq3vQXZ1XjU5aJbjSiRTlUyM2t9wicPs1rNCUqTuozJPlD+rWqtNxtbWhjN17mbFkUKBVaTU6i42ao1Oky2TRHcdVsZII1bny9wm1Hv0EwBDzSeYhzBO6b0ifFkloA2AuBxEI5rIvtE8V5jESWgRnjtM7SBGBVmoOsLM9EyNYGOMxaSp9iycgVpVLhzTvGFU4zaCa5mslR2zNThGWxtKJHTY+fuC1oozqEzthzJ+p3TXbGNslUC6p9MvB6bMKizEzWWWlxzSk1PNcmuRmk/I5cvdMtuotVNzhjSJlZvBiLi7a/XqUqstUduHIV/kpcvLW+ls2W9zSZbLWR9U9PKLejXfU3OePvnAcoDGOw3xLpjl3YQ1WEPAHqQTyEuc3omBnyb1EF0ak9UkKv1tuydC1fr9t0aZIjoq0q8YNNkTW2VqSp5mE42bq0qJJqQRGZrI07ech7aNa+I06bI+pmZHrUejyXTgN0dUUjqblSJ1TPcUNErZTvaJVt5W3EuRmREe1TLDyrT862bVcmaj/CAXHjKqtVGcw5YVpVSPQptIQy+pJR0skhcuWs0pSaTJCl+Vx8pRKIR/bESRR9F2NsmGzV6jbuOs8HX6+uS2pcpNOblKSp99JkSjUSlIJXk78l+YuotpyYpvMSGmcDAL2NJJHFyfO6RmQsirSa04DEOcIxxIa8wJxOLY5Qd5ClnVtmnPV/Yytan5S0pVjHNHmXxb0qn1Z25oVSJZlJ3JuQw2SHYyzSZbEpKupKSe2wsxmPVVV7PyY1g/C2HarlXISICarUaZFqbFMh0yGr2K5Mx4lIbWroaUGXUjLqRqSSoM136k8D5DxzZNmY+ypb10VmoXtQagiNRpqJpsx25JclvG0ZkzsaklxcNKt1EW3n29mxr/svAGvLOsbM90Uy04+Q6fQqzblVrUpuJDlx40dTTzaX3TJBKJxRlxNRGfZnsXmFaWJLDxReeecinTwxwnM8zSIlRvHF4QCSGtw56jhO+Md+2cl+Onq+rvuHWpmO7b8xlPsmuxbBpBzKDLnsSzbW0pR+RIYM0ONq28lZEW5fwSHbYF1n5L1EUK0bmsLSvXlUarTlRrhq0q4I0eDR2yfU2bkdbyEOVE0oTzWlppKUmfDkpRGRcJhvJlj5Z1oZ6u3HlfZrdF9AFOhtT46Vdi+41zS4bajIuaSURp5p3SZkexmXUdx4M1lyToXsSO08plbqawhLifOgzqMoiUX2y84UHEWcvuzdEgb5q1umDA5dxzlaWta47y4NJ3fUmdoP75X3VHWBku7bgrUTTXpdreUrftye7S6jcTlxw6JDdlNHs6iH3gjOWSDJSTUnYuRdNyMjP75mufHcXBBZkbtW4naqdfKzzs8mUlVUXDzNHi9ad+KVdDXy/wCpsZEajJAprpkx9ieiWfPxjmnW1mDDF9WbVJkKrWwnIbVv05slPrW29DQ81wWhxCiWZoWrdSlK2JK0mch0+3tAsbBVxW5Vc5X5XbSuLJhIXfVTnpXKiXQiIl3vbMxEdJmk0bl27iFoNSlHyNJkoUB4njTg0yIky5oMbACCYBBh10E5zLVpsbVPFgNLhGMQA6Jxk5Am6QLt4gZKzWMM8airivSm23lnR7WrDpNV7RLVbj3XBrTEdSWluF3lDCUrZSrhxJR7+UpJHtuOJpWtHMWSXZ1xaf8ASBXb9sKFPegN3I9dcGkqmmy4aHXI0R9JrdRuR8T5Fv5jJJkZFFlg5YvfF2oTHGNceaxY+oSzbpOc1V6U4UWpVCjxWWeZS3KhHUtSjI//ALxSd9j8lW/JPEv1PBNh2BcOVdH3hAX8cMKal1hqw61LizYyZeylqjMU2SXatGteyeSUPHv1I1kREDqjB9UnigHnkEYuG0RPinPDOQrW0pdcui867GcQb0wdhkDB2yTkZWlFo1yRc9rUe45lBqFEfqkFiY7TaggkSoS3EEo2XUl5loMzSovfIxCuZNU9Xs3JLGEsMYeqmVchFATVqhTIlVYpsSlwjPZK5Mx4lIaWroaUGnyiMupckkr9LN1RW9bWBMXZH1EzytWu39HhRG4jdNlOrkVF5G6UoYZbW4glkRKLctk8yIz6lvDdiZAsXAmvjO7GZrlplqN3/T6FVrcq1ckIhxJUaPHNt5tEh0yQRk4rbjyLc2j2I9hLVbFoNImAL2W0tE3QTyG9jjdHKsekJoGrEmGkA7i4CcN2OW3kBUp4d1XXdkLJF54tvvBM+wa7ZVvR63MYl11iabq3d/qaFMI4G303S6Sj5f8AUSPAwLrPyXqIoVo3NYWlevKo1WnKjXDVpVwRo8Gjtk+ps3I63kIcqJpQnmtLTSUpM+HJSiMi4bD+S7EyvrTz3dWOrliV6jpsCnQinRORsOOtc0rJCzIicSR+Zad0n7hmO58GOtxvQ5YLjLXaLT42NKN9uR+MpWxb/bFtF31M1aoyAMY4/VKo54LWjLHIg5zfaGCnxW5lwHNNJruxxOfThgvRujUnqkhV+tt2ToWr9ftujTJEdFWlXjBpsia2ytSVPMwnGzdWlRJNSCIzNZGnbzkPbRrXxGnTZH1MzI9aj0eS6cBujqikdTcqROqZ7iholbKd7RKtvK24lyMyIj2qZYeVafnWzarkzUf4QC48ZVVqozmHLCtKqR6FNpCGX1JKOlkkLly1mlKTSZIUvyuPlKJRCP7YiSKPouxtkw2avUbdx1ng6/X1yW1LlJpzcpSVPvpMiUaiUpBK8nfkvzF1FlOTFN5iQ0zgYBexpJI4uT53SMyFNVpNacBiHOEY4kNeYE4nFscoO8hSzq2zTnq/sZWtT8paUqxjmjzL4t6VT6s7c0KpEsyk7k3IYbJDsZZpMtiUlXUlJPbYWizFqcq9mX+1hzD2H6xlPIHcE1WZS4VQZp0Omw1GZIXKmvkbbSl7HwRsZq29zdO8Ba79SeB8h45smzMfZUt66KzUL2oNQRGo01E02Y7ckuS3jaMyZ2NSS4uGlW6iLbz7chlKybUt/XNkY82aiMm4bpWQIFKqNr1u3bmKiU+qFGjEy/HkyDbU3zaUXkEs07Eo+v1RBHawnFmQL3dMU6eGOE9H3pAxMqga08dwkhjcMYxqOE4GYgzntnJW1wdqTqGSbyrOJ8m4sqeNMi0SC1VnaDNqDE9qVAcXwKTFlM7IeQleyVbEXE1EXXrtN4pVpus/TDStTpzsd6qMg5iv5i0pKHXqxc7FfhxqX3hndHekMkRK7VZGltDp7brNSS5FvdUT5sa7aQebAkYdAx5ZWK8XXuaMsOfIHy5ckLw75+sm4PvVL/IqEJadvr2m/epz8s0Jtvn6ybg+9Uv8ioQlp2+vab96nPyzQ45rj92+h+nyle50F9z9u6PIpmyLkG1cVWPWsi3vUigUOgRFzJj/ABNRkhPmSlJdVKUZklKS6mpRF7oopqf1LZvynpVvuoTtIdyW5jy4qJzp1zy7jgrkpZU6hTL0im9HmUKIt9yUvbdJlyIyMd7rTv609SukbL9CwhWX7mnWLUIrdbZjQZLZIciS23ZDaFuISl7g20tZm2ay2SXn3Tv4ervV1pxvnRVcdMtLKlv1Cr3XQGWafRIUpL09pwzbUpD0dG62OCUq5G4SSLifXzb9WtJv2Wsc8IA3hzSQd5vZCNxzleVsrLlajhm4yfUlpbhyRJJnzFTBcOoxnEViYwsO07BrGQMhXXb8RdGtmluIZUtlqO32kiTIc8iMwkzJJuKI+p+bYlGX04t1R3bW8lwMOZ4wXU8T3ZXob86gNPVyLV4VVQwRG821KjkSSeQk+Zt7exIz3LoR1VzhaVIpOfMP39lHLmQsY2LcuL4FtRrstOrnTe61RtRPFEkyCbX2bLiFEvyyIjURK3JLajLuse2NpNhajcZP0nWpkvLt8RpM9y3afNvaNccOOXdHDkqdWhg0sJNtHmJxC1GSNiMkntsXkvtTi45veCN0FwEDOYAcZmRsAIKwWU2tsjboyY10448UEzsiZbgMIOMiF2dr648wZLhXGrD2jyv3bLte4J9HnL9E8aBA7KOriS25UhpJuvqPqcdttRpI0mazM9hDetzUyvUFoVkXPYeOaginP19mlXamozmo0q16hFlMKTHcYMjVI7RakpI0bcUqJSiSe6S63QrqBwdjCycr0bIuWrUtqoxclXBOVCqtVZjSHGDUjZbTS1Et3fgoiJBKMzLbz9BCt30CuXNoM1D5dg0edGt/IGTTu2hMvR1ocXSvGDH+U8NvJSeyj32ItkGe+2wxKRBbSLnYXaTy7DA3qc8kYuOPqdwIWwpMDK5AEG+9oGOIh8dUNx5RMzK0JwLkHON8xqkjMenr0sUQWo3i1fosh1rxjyJfadI6U9jw4t+y35dp09iYlkcXjLLuK8q0vt8aZGtq6Shx465aKTVGZTkUnEmaCeQhRqaM+KtiWRHulRbbkY7QZVTB0ER/GfStRR8QYRgMN2Aw39agWFlHHVN1WXxZsvGlAo9XoNkRrjqt8n2KZcmGbhJOO8ZMk52bZIJW5uqLyS8kttxEtx6w8rZZxrddzYx0kXRWcVzaVUorN3v1+FCkvMky42qS1THtnXGiV1IyXuaSV0IyNJc7ma1K7fOqTUXZ9rsOP1esYIREhMt+zeeU4skNp6l1UeyS6+6Pvxrq207UvQhSrfqmTqFTrgp1jHbT9urkJ8alUW4hxzaKGX1Y+ThdFEjjsrcz85jXVjfsVQnMNdA3y+qOwNaMIxMnEraUm3bS2Bm5uO7iUz2lzjjIgQBAUyaGIUSpaLsY06oRWZMWVbZMvMPIJbbralLJSVJPoaTIzIyPoZGOd8G46cbTSi1XHCJ21bortFcjmpRqi9nOcUTRkrqnZKyPbp0Mug6nQV00d4p+8Df/AM6xGukm01ZjyZd2rxqv1S14VSuGoUmFatBlFHpdTZiG5GKdU2yIylSlGalEsuJJ4J9kNlXwt9Ubw6eh7YPWSP0id611L7CbyFsc912HVj+jG5XGAAESuQAAEQAAEQAAEQAAEQAAEUW6ifrJhffVv8i6Gnb6yZv31c/ItBqJ+smF99W/yLoadvrJm/fVz8i0OO/3m/qfMvdf2R/WedSkAAOxLwqAAAiAAAiAAAigfXL7Vq9vwb+kYwgjwXf8Zn4G/wCdE765fatXt+Df0jGEEeC7/jM/A3/Ojylr+6Kh+IfI9d/1e/mb0t+cN/5WZXvAAHq1wBAAARB5Vy2pa950pVCvC26VXaataHVQ6nDblMKWg+SFG24RpMyMiMj26GW5D1QF9Oo+k8VKZIcMQRgRzFCJEFf4RERERFsReYh/oALEQAAEQAAEQAAEQAAEQAAEQAAEQAAEQAAEQAAEQAAEQZqeEs/f1oXxSi/nkwaVjNTwln7+tC+KUX88mDzetX2uPOF2ruBfdkz8nU8gV78B/vFY5+KVI/M2h3g4PAf7xWOfilSPzNod4N7ZfrDOYeRcq079tbT+Uf8A8igAAnWqQAAEQAAEQAAEQAAEQAAEQAAEQAH+GZEW5nsRATGJReRU7OtGt1ylXPWbWpE+s0I3TpVRlQWnZMA3E8XOwdUk1tciIiVxMtyLYx/t1Whad9UV2272tekXDSX1IW7AqsJqXGcUhRKQam3UqSZkoiMjMuhkRkK0v62rxyDdFboWlLTfWMv0y2pZwKlcXogiUSlKkkRGpuLIkJUmTx3LfbboZKLdCkKVK+CM5VLMBXBSbnxRdGPrltZ9hip0qtpbUlXaks0Oxn2z4yGj7NZE4RERmk9t/ODOO2WjDPd0jsxV72upOh2YwzxHId3MVKTkdh5hUV5htbK0G2ptSSNKkmWxpMvMZbdNhxNNwPg6jU6rUej4ZsWDAryOyqsWNbsNpmejly4voS2SXS5ER7LI+vUd0AoWg4kKwGIA2LxPQRZfjilXD6EKJ41oUZcKlzvF7XeIEdSSSplhzjyaQZERGlJkRkW2w/W3LStWz4kiBaNs0qiRpcp2dIZp0JuM27JcPdx5aWyIlOKMiNSj6n7pj1gFeX+MTPlx502R/G7yLyLdtC07PprlGtK2KTRIDzzslyLToTUZlbzh7uOGhtJJNSj6qUZbmfnHO07BOEKPcfoxpOG7GhV/tDe8axrehtTO0M9+fbJbJfLciPffcdyAAQQRsVZJBG9ePdVm2hfVJXQb2tWj3DTHDI1wqrBalsKP3zbdSpJ/7h8tmY5x7jmG7Tse2HbtrxX1Et1ijUtiE24ot9jUllKSM+p+f3zHRAAwkjahJIgoAACogq/m6w882PqJpmpjBuP6dkTvNrKtCtWvIrTNJkdmUk5DUliQ8k2y2UeyiVue3mI9902gEEak855Cx9cNi4mwvalGreQcjSZbdMXXXnWqXAjxW0uSJMk2vqi0klRESEGSj67bmRJVacHtIznCOUEHogmdwxwiVLTxDmkAiMZ3CHbNxAPKcMclNNCl1OfRKfPrdI8VVGTFaelwO8Jf7o8pBGtntE+S5wUZp5F0PbcvOPnl2las+4oF3zrZpUivUtl2PBqjsJtcuK050cQ08Zc0JV/CJJkR+6I9YurUbb9Kx/TrgxTbl2Vqry1R7yqNu10oFOobXMtpLDUwjfkp4HubZbK3QfvkJYEjoLi4bCR/8nGIOe3ETmoQCGgHaB/BjbIy5jEELlKjibFdYu6PkCr40tSddEQ0Kj1uTRozs9k0ewNEhSDcTx9zZXT3BEWqbBNUvPA72DsJ2fTaJCvG4YLNdXSmo0FqDT1yUvTZhoJTZOKMmyIySSlrNfmMtzL3cCZrurKWRcyWjcFPpUeHjy6U0OlrhtOIdeYNkl8nzW4olL391JILb3BNYiAbUYx0cUhro2EGHQRuOF4bVLffTqHHjNkTuIkSOUbFzbeNrBRTbbpT1nUeVHs/sToJSoTb6qYppsm21sKWRm2tKCIiWkyVt7o+6sWnatw1Cl1av2zSqnOob5yqXJmQm3nYLxlxNxhayM2lmXTkkyPYesAkJLjeOcz07+dRNAaLoyiOjcuSuHEeKLtuGLd114xtOtV2DxKLU6hRY0mWxxPdPB5xBrTsfUtjLYfWeOMeKjV+Gqw7dNi7FKXX2jpbHCrKUnio5RcdnzNPQzc5bl0HRALboiI/g59aukzP8YZLwqpYlkVu1CsOtWbQ6hbJMtRio0qnMuwSaaNJtN93Uk2+KDQg0p47FxTttsQ/Wv2daN101ijXTatHrNPivtSWIlQgtSGWnmj3acShaTSlSD6pURbl7mw9gBUmTJ5+neqZCF491WbaF9UldBva1aPcNMcMjXCqsFqWwo/fNt1Kkn/uHgMWHbOK7KrzeFsY2/SZ3cX34lMolPi05EyWltRtIPj2be6lmRclmRFyPcyLcx24Cx7A9rm5SIkZq9r7pBOMbDkoE0q6coGKdNdKxVkShwKvUa229UrujT225jMufKVzfbdJXNDpJLi1v1JRNkfXcS8ViWOVSotZKzaGVQtuOuHRpfi5ntqawtBIU1GXx5MoNKUpNKDIjIiLbYgv2uy7Wsa4rmp7bLkqkUmXPYQ8Rm2pxplS0koiMjNO6S32Mj290hx2mbJ1ezPgWycpXREp8Wq3JTEzZbMBtaI6FmpRbNpWtaiLoXnUZ/bEhfwj3ECIu5ZAG8GgcgAIG4YK0ggAuM3r3ScC4nnJBXcLtK1HLoRe67YpKrjbhHTkVc4TZzUxDXzNgn+PaE1zPlw3479dtwjWnasK45l4w7ZpTFfqLDcWZVWoTaZkllv2DbjxFzWhPuJMzIvcHrAKbuT+POetCSc/4/iAuNp2F8O0es1C4qTiezYVWqzbrNQnxqDFbkS0OkZOJdcSglOEsjMlEozI9z33HGZwod42piun2pgzAFl3zSW5CYc+y5y41OhOU3s3FcWScLu6DJ0mvJUk07GfTfqUygLSwXbowGHZs5vjKua8tde2/wAY+TqCphjLBmWL/wAs2DeN56eLJwNY2M5M2rQrYok+HOk1Sqvtdkl5aobaGG2kJ3V/1+RbGSuW6JNwhhm6aZqFzHn/ACFSTh1G558ehW20uQ28bdDiNISl0uzWokE+4RLNCtlF2ZGaUmoyFggFzYYZG49ZiTzwLv4vFiFRzy8EHbHUCSBzXje3zBlckrEeKF3iWRFYxtM7rJRLKunRY3jDkRbb954dpvt035D0qNY9lW7RJVtW/Z9EplImreck0+HT2mYz63t+1UtpCSSo17nyMyPlv13HtgKBoAgDBUkzK4SnYGwbR6W7Q6ThixYVOflsz3Yce3YbbDkpozNp9SEtkk3EGZmlZlyTuexkPXvXGmOckxo0PItgW3dMeGs3YzVapTE5DKzLY1IS8lRJMyIupDpAFTjn/H8QOpA4g3gcV4FNx/YdGqMisUiyaBBny4LVMkSo1NZaedhtFs3HWtKSUppBdEoM+JF5iIfVa9p2tZFDj2zZdtUqgUeJz7vT6XDbixmeSjWrg02RJTupSlHsXUzM/OY5+/bqyTb9ftSnWPin0WUyr1Du9eqPj2PA8Rxd0/5T2TpGqT0NZ9m3sryPtkO1AGQTy/v8+eUztlCIgHn83myziNhC5K9MRYnyS6w/kTGFpXS7GIyYXWqLGnKaI/cSbyFcf6B6foJsz0MHZPoRovodU0bB0juDXcjbM9+HYceHHfrttsPFzRkb0ocTXdlHxN429CtHk1XuPeOw7z2KDX2facVcN9tuXFW3vGK4ULWfqVm2XTcp1bQdcB2TUYDFVbqFCvWBVpiobqUrS6iChtDyvIVy4nxMv4XHqZWS3jM2YTuxmJOWMHqUgY9wDueMccImBntCszZOJ8WY0VJVjnGtq2qcwiKQdEo0aCbxF5ufYoTy2+2Pin4NwnVbn9G1Uw9ZEy4u1J/xvIt+I5N7QvMvt1Nm5y+3vuP5wxmnHefbChZGxlWyqNIlqU0sltm2/FfR0Ww82fVtxJmW5H0MjSpJqSpKj7kSOaWuF7MKIOJnt/eq+5WwzdOVtU2K7orFJP0A41gT66UhUhvhLrjqkNx2uyJfabtJR23M0cd9kkozMyLzdTbOYKldUCm0nRpY2drOahoeZTWatT4kmBONThO7FOQtBoNBM7GhJH1Pcz9yygCy7DAwZAk85JOfYBthrdykFUh1/kA24AboO3EnlJVbNMmEchUa+L6zdmO27btusXrFgUanWlRVpkRaJSIjZpQwt1KUoccWajNRILh5JGR7K4In617TtayKHHtmy7apVAo8Tn3en0uG3FjM8lGtXBpsiSndSlKPYupmZ+cx6oC+YEDAf/T0kkkknMknaoyS4yf4gADqAA5guSViPFC7xLIisY2md1kollXTosbxhyItt+88O0326b8h6VGseyrdokq2rfs+iUykTVvOSafDp7TMZ9b2/aqW0hJJUa9z5GZHy367j2wFoaAIAwVZMyuEp2BsG0elu0Ok4YsWFTn5bM92HHt2G2w5KaMzafUhLZJNxBmZpWZck7nsZDo7qs20L6pK6De1q0e4aY4ZGuFVYLUthR++bbqVJP8A3D2AFTxhB/j+ICSZnaudszHOPccw3adj2w7dteK+olusUalsQm3FFvsakspSRn1Pz++Y6IACZVF4d8/WTcH3ql/kVCvuIpVchTLmmWxTDqNYYtuY7T4ZOIQcmSk2zab5OKShPJZJLdSkkW/UyLqLBXz9ZNwfeqX+RUIS07fXtN+9Tn5Zoca11ZwmumiWTEgjtK95q+65oG2uiYhe5o5wfNwFgKgWVX0EdzTO1rFxuG4TinKnJVzeI1kZkvgRpa5EZkZNkfujsouBcGQUVduFhixI6LgbNmrpatyGgqg2aiWaJBE39WSaiJWy9y3Ij847sQpaWa7qr2rC/cEzKfSkUC1rbplYhyWmnCmOPST2WlxZuGg0F7hEhJ++Zjsz3h9QNiL0gAZQGkxzXWwBzBeFF4Mc+TgQTykuAnnvOlSxPti2qrQjteqW9TJlGUymMdOkRG3IptEWxN9kojRxIiIiLbbYeNZWI8U42dffx1jG07WcklxfXRaLGgqdLp0UbKE8i6F5/eIdYAptLtpVuy7sVSdK2kylUa1bvY1C4TtSo1WTf1arNGXWYECqOIgyFtqacbX9U7PkaTPjulRGXUiFrl06nuQDpTkGOqEpnu5xjaSbRtbceHDbbjt022226D6BHFhZ2tHImUshYjolOrDFYxq7Aaqz8plpMZ45bSnG+wUlxSlESUGSuaUbHttv5xRrQWiiMg0CORoDZPZPKVe8ucXVjvnmLiTHWcFxV84uyzjU4aNFGOsCWq1UO0VcRV2kSYPeFp493NvxahPPYjd5dpvtunb3Ryv7aJ9y184haYc3kWuXjbVl1SuY/sX0ZXBEbSqDQ/GbVO76s1pI094dI0N7JNSt1F147e6LTxBJJ8qva8vIECTv85PlXy2PaT0ZmDel82zaLWRplJYg16rUOEaUvKTspTLT7pduqOS9zQlw+nQ9tx/BYaxAm5Jt5pxTZ5XBUkOtzaqVCi98kodSaXEuPcOayWkzSolGe5GZHuPftudWKnb1MqNw0PxLVJUNl6bTe8pk9zfUgjcZ7VGyXOCjNPNPRW25ecRNdGa7qomrOycDxafSl0C5LWqNclSXGnDmIfjucUJbWThIJBl5yNBn7xkJHxwgYQJN4YZZFxHMQDzqJhNwuBwwnrAHlHMvQytUsm4ksWk0PTNp9pF1qSpcJqlsVeJQoVHZ4GaHibWRJcQS9t2m+J9T2Mh+GknC9awHgi38dXPUYk6usrlT6q/EL6gcuS+t5xLZmlJmlJr4kZkRnx36eYcVRc56gbD1C2/iDUBatjOUPIjlSTaFatN6ZyZVFSbvd5zcjf6opnifJGyCVvty68bLi2mZaaoxv78xBxHJjidpwxiFdUlsUjgBjhkcwD5QIwzwmUAAFVYgAAIgAAIgAAIgAAIgAAIot1E/WTC++rf5F0NO31kzfvq5+RaDUT9ZML76t/kXQ07fWTN++rn5Focd/vN/U+Ze6/sj+s86lIAAdiXhUAABEAABEAABFA+uX2rV7fg39Ixhmri7OeU8L+M/S0ujxP447Hvv+RRpHa9lz7P92bXx27Vfsdt9+u+xbbRAPP6T0HUt9qbaqVY0yBGAx27ZG+F1/Ubuo2XVLQdbQVt0c2106lQ1CHvAbkwAFhpvBgsDgd8YYSsmfVy6pfhR+RKd9HD1cuqX4UfkSnfRxrMAxO9+3ezX9vy16Dwv6re5iz9dP6OsmfVy6pfhR+RKd9HD1cuqX4UfkSnfRxrMAd79u9mv7flp4X9VvcxZ+un9HWTPq5dUvwo/IlO+jh6uXVL8KPyJTvo41mAO9+3ezX9vy08L+q3uYs/XT+jrJn1cuqX4UfkSnfRw9XLql+FH5Ep30cazAHe/bvZr+35aeF/Vb3MWfrp/R1kz6uXVL8KPyJTvo4erl1S/Cj8iU76ONZgDvft3s1/b8tPC/qt7mLP10/o6yZ9XLql+FH5Ep30cPVy6pfhR+RKd9HGswB3v272a/t+Wnhf1W9zFn66f0dZM+rl1S/Cj8iU76OHq5dUvwo/IlO+jjWYA737d7Nf2/LTwv6re5iz9dP6OsmfVy6pfhR+RKd9HD1cuqX4UfkSnfRxrMAd79u9mv7flp4X9VvcxZ+un9HWTPq5dUvwo/IlO+jh6uXVL8KPyJTvo41mAO9+3ezX9vy08L+q3uYs/XT+jrJn1cuqX4UfkSnfRw9XLql+FH5Ep30cazAHe/bvZr+35aeF/Vb3MWfrp/R1kz6uXVL8KPyJTvo4erl1S/Cj8iU76ONZgDvft3s1/b8tPC/qt7mLP10/o6yZ9XLql+FH5Ep30cPVy6pfhR+RKd9HGswB3v272a/t+Wnhf1W9zFn66f0dZM+rl1S/Cj8iU76OHq5dUvwo/IlO+jjWYA737d7Nf2/LTwv6re5iz9dP6OsmfVy6pfhR+RKd9HD1cuqX4UfkSnfRxrMAd79u9mv7flp4X9VvcxZ+un9HWTPq5dUvwo/IlO+jiNMl5Wv7MFdYuXIte8b1KNETBaf7qzH4sJWtaUcWUISflOLPcy36+foQ2xAR1dWbVXbcq2tzhuIJHa5Zuj+7joLRNb0TYNXqVKpEXmOY10HMS2gDBXB4D/eKxz8UqR+ZtDvAAerpM4Km1m4AL5+t9q9G2qraYi+5zoziSTEoAAJFiIAACIAACIAACIAACIAACIAACIIz1N1Sp0TTnk+r0Z1bU6JaFXeYcb35NrKI4ZKLb3S8/9AkwfHWaRTbgpE6g1mIiVAqUZ2JKYX7F1lxJpWg/tGkzL+kQ2mmatF9NuZBHWFNZ6gpVmVHZAg9RUHaCqHQ6BpAxbFoCW+wk0Jqc8pBbcpLylOPGf2+0Usv6B82tbMl94rsC2rfxZMjQLyyPdUCz6PUpLJOtU5ySo+Ug0KI0qNKUmREZGW6iMyPbY4sxnZesvRtTpWKcc4so+cccMS3pFsueieNQqpSWHFmtUeSchJtukSlKMjQRnupR7kRk2j1sh4Q1VajscSqxkhyyrIvW3Lipt0Y8pdPkOTGaZIiG4ZonyOH1VbpOEk1N7oLggySXlEc9oqMtD+ExulzSRiDdvC8N8hsjDoOStpUzQN1xBMEA5gmDB64z25rmcz42zBoyx96oqztTWUL9ctuTDXdFAvGppqNOqkJ19tp4ozRpI4aiU5ySpKlGlJbb7Ee8k4/v247g143fQU3LV3bYPGVJq0OkuzHDiMvOyS3eSwauCXDSexqItzLpuOGyNbuszVrbMTBuUMD0LFdozpkR267gTdkeqrnxo7qHVNQozHlsmtbaTLtTVskyIz3I9+jypjPPWKNS8TUPgHGFPyJS6nZ7VoVa2V3AzSH2Oxd7RmSh6QRtmkiShOxbq8/TryK1hLXhz8rzo5jTcMdwLiIkCDJyV728IwsHjQJxEYPYRjlN0OnHEQMSvvol5Xe7rUzVart1VhdFpWP6XNgU1U504sSQtKuTrTXLg2s/dUkiM/fEdaD7ByvmnB2OcyZK1N5MmFTZ0qVAo8GqdizMJmc8lSKm84Tj89KzRx4qWhCWySlKSPdR9nh3FOow9RWVMt5ftKh05u8bNg02nlRqgh+M083y2i7rUTq1oTtydU2hClGfHoRDttDOLMg4b0pWnjbIFGKiXRS01Lt4pyWZBMqdmvutmbjKltq3StCuhntvsfXchZQmnRc53jASN88JWOGwkAt3iI2EJaHBwDWHAuAPNwTAeUC9PTIzlVBxrkS3sw124JOpTXXk/D+T4dalsuWlErhW7SKSy26ZMNcHmjZf8ki3M3CUZbciP2SpF1T6kGcf3tj7TdeupuqWNQStNms3XflIprjtWrSjPsWWYpxm3e6rd7Nx5TpJMiLiRH/BV6mS6JrJyhZ8/E+VtF2ML4qkqG9TI9+eieI3AjGtJpTLRFeb74hSDPn9TNB8uqST5h6qNKmccGFinJ+EKlQ7uvOxLORZVx0arSFRI9cpxL7bjGfMjNlxDpmSDc8niSN9iSaFUaeI0EQ0ETgSDxXCbvjeNdnOZxvAEKcvBqOf98b0CRxeM3AOxHi3g3aIEQTKjfT1qasW39TNj4rwzqmvrMtn30zPiVWNexSXZtGmtNdrHfZlSI7Klpc4rQbREZF1M+vEaNiu+O791o39kShejbAVt4rsiCp9yuFLupit1Go7sqJlEY4ySbaInVIUrmRGZJPZRexVYgTjCm0HPHqnD922IGxYdSOEN3cOvHbviJjDbmSgAAtVq/KVKYhRXpspfBmO2p1xWxnxSktzPYup9CFQ7GvOj6vdUlmZsxLMXLxximl1WG5WJDRx1VKpz20t9iyw4RPEhttJKUtxCCM+id/OLgiquS4saydfmHKzbqmqY9kCg3BS7gQyRNlVEw2EPRzdItu0WhRnxUe6iItiPboKMnh2fpRz3HZ78MAMIOMkCFJhwL4zjHmkTG7lOMiRAmV6mre7bqtvJeneBbtzVWlRq3kViDU2YU1xhudGNlRmy8lBkTrZn14q3L7QjizqXkrW5kjJdfqGesgY7sGwbnk2hQaRY1UKly5MmMSe8Spcjgs3CVyTxQZbFv024nzlzU7i2+8h5AwVXLPoXjCFZt9s1mtu96Za7pDS0pJubOLSbnUy8lBKV9oRnQ7F1TaW8n5EjYVw1SMoWJkevu3TEW7c8ejvUKfI2KQl4nUmbzW5EZE2kz4pLryMyFtGATf3ujnu0Y6ID4JwnlUhxAuETdbOWV6rOe3FkgYkci+nQTQqjbORtRtv1a559xS6ffTMd2q1BLZSZZpikXaO9mlKeZltuZEW59fdHU+ERuu87N05OViwbpqNv1hVx0aO1Ngy3Y6yS5LQlSVKaUlRoUR7KTuW5bkOf08W5l/T7StRGYNQdFo8GTUqq/diHaTKJ2FKZZhqUvsS5G8lBGngROpSs9t+PUczdsTUdq/0MW1X6xZVDVeFyV6l16PS6QfcWW6U3LStDijmPnuo2k9p0X1JaSIt/OpgvFFjvvRQvbI8UHL8V07gCrXw01KgycascuDiPKOkhfPnuzcw6YXbNz5D1OZFu+rTLxpdJuKh1eY2igTYstZtuJjU9tBIi7dOJkazLqe/LqO01fN4whXhBrOXNb17Ylpiaa0iHbdp10qbLfX2jnOWsm0OPPJVulH7nxT2Z9dzPbtda+Lb7y5iyhW5j2heNqjDvKi1V9nvTLHCKw/ydc5OrSk+KevEj5H7hGIwvnE+dcXarbwz1YGnu3Mz0++IVOZjd9r8Wlz7bdjMk0tLbkpCi7JzbkZNFueySPbj5VjSSLjsAHujAmBcZAgbCS7E4AztV4ib843BuxN8jM7QIO8gQue0W57cuy88vYrtPO1wZVsm3KLHq9s3FXmXUVRg1pWl5h551tt140r47LNPubp2I9hH2L7Gz7kDQ43qSrmrrKEW4bcoNUrdChU+qm3EUmG48s01E1kt2oKWbKuriySlKkoJJpI953w3iTUWxqIynlXL1rW/Bau6zYVMpviKYlyI062aiTELtF9staEcSW6pttClGrgRJIh92G8I5PtTweMnBlftjut7uWfXqWml99jr3lSe9di32yHDZ8rtUdefEt+plse1Kl/0NUcJvhojfIdVGEbYDcROBBkzJkY9nolgwuF4ndBYyZnZN6csZwGQhnIUPUHUNJ8fW4/qevOBekWiwLlh2/R1Ih2y3HWbW8Z2Dso5CjSpRm44syNR+wJJEQ9fVRq5gx72x7iK683T8PW3XrSj3ZdFwUOC/Jqbxv8Aks0+Gtpt1cYz4uLN409CJPXzpVKF1YSyfUvB0N4IhWz2l8pseDRzpXfY5f5W2TXNvtjc7HpxV5XPie3Qx+F+YKzhad2441C4PgUWpXnbVnMWhclq1iWUdmqU8iS4aGZKN0tvoeI9lKM0H5J77JNK5a7Wsr1GN+thwjCdlQbMSJFOc95BBMw0HzTY93j3XbQNtMjPAYF93qBBAIhbT1qasW39TNj4rwzqmvrMtn30zPiVWNexSXZtGmtNdrHfZlSI7Klpc4rQbREZF1M+vEXsy/kFjFGK7uyZIhnLRa9Gl1Xu5Ht2xstKWSN/c3MiLf3NxE2O791o39kShejbAVt4rsiCp9yuFLupit1Go7sqJlEY4ySbaInVIUrmRGZJPZRexV4FnX5eWri4tQ2H65TqNBxdRlyrFp9SixXvGEiepk0SlqcW4bSiaMzMiJsvZt9TLcztq33UODp+PdeQeQHCd2JAE7CBsVWim2sKjxxJaDtxJM9MCTGGE5kqMLdwdmLK2niTqPyRqsyfFui5bXlXE3Q6FUWo9uR4j0VTjURVPU2pDpdkokqUZke579VJ5K4B3Uq9hrR5prxxFyWWOm78pr3je7U05ye/SabG6udgw2lajedW4htKuJ8fKPyeiilC1KRr7tbCjumFnB1nS26RQ5Fvwb+kXW0UOVBSyptokU9Jdv25t7ISa1IRyIjXxTuY+ml6Vc3U3AWArgs4qTQ8w4VjvG1Sqw8l2BMakJNuVEedjqURGpBJ4rQoyLyi3Lfkm6pdNR5p/WyacYGboNTZg7CW3gcYnOcbqZLSwVSC8CpkREkNu44tGMxsHMIUL21qkxVi3KePVYF1nZNy3HuS5olCuS277VMkoKFJM2+9x5EmIyTCmlmg+KTM1bkR+SShM9oU7JOt3JWS65NzpkPHGP8AH9yyLRoNLsiqopkqXKjEnvMqVIJClOEo1JNLZlsRK6GRko1SBR8la8L3uWhUN/TPa+NKQ1VIzldrdTvONWDfp6HCN9uIxGQSkOrQRklThKIuWx8T8tPHW7YuqnSzlDIkfDmGaPlOxMjXC9dMRSrnj0V+hzZBl26HieSrtW+iduzSZmlBHuRmaQaQIvz99HPxIkbBF+J2nZxVRxzNOA7iziMRxpxymbsxjA24rhbXurKlr4b1k0uqZjvK4anYciXEotan1JaZkQkQTUlTJtmlLCt9j+pEguRb7bjvMQUe9rMwDber3LGoLId1Srfx8VcTbiKgiLRZDHi7mhElk0qclSeu5yHXTUbh8tkkRJKOMNWfljJuLtZttz6TRZ173JXJ1K7tRJXGA5Uu5cVMMuyFJ2JKlJSanDTse++3uW1xxiSTM0n23g7IsJ2BIesOLbNaYadbcXHWcFLDyUrSakGpJ8tlEak7kRluQsioLM4tPH4OlB5bj5I2ZkSeUb1cTTFUMf4vCVJHJebA374HJyLPqhaksP5BtxrIeWfCP5StXI9RZOYVFteBUotv0Z1Rcm4ioiIa0SibM+Kl9p5e3sj9kfc3Jr/uOuabsKqr+TI2PavkWVUoVz3nGpi5rkCJTl9m69HjNIUaX5KjaItkbNmtW3EiJRTDj6frt08WbTMMQtPFt5YptuMJplEumBeUajF3BvyI5SoslJrNxKCTy7M9tiIiNRlyV6uQMIanb9tLF+Y5NVsqLnfG9SqFRbgt9r4jlxJilIcgGvbtEmUcmkEvc/KSvyj5E4V5u43fEluw5SdhN78fHEbXHOodxg5/j8aDION0xiBdAmLpIwMQAJVb7a1SYqxblPHqsC6zsm5bj3Jc0ShXJbd9qmSUFCkmbfe48iTEZJhTSzQfFJmatyI/JJQ1EFYqPkrXhe9y0Khv6Z7XxpSGqpGcrtbqd5xqwb9PQ4RvtxGIyCUh1aCMkqcJRFy2Piflp9y3875EvDWRdGDLcpFCOxbEt+JMr9SdjvqneMpSebEdtwnCaSk0KJRkaFH9Tc67+a9hlrWbSXHoDQegYGJ2mNyx6rZJqDIATtxLozyJxGWwKveCcYZo1K0nK824tV2T7bpdByHcNNoMS36uuO+06055JvyV83VxkkpCURkG2hJJUZHurp8GL6LqD1MaT158u/VNfFvVygUqoFRIVquopkR16nm6ntqlxI1zFOqaI1ERtoIuhJ6nvZHR5iu/MV2xkinX5QvFciv5Fr1dpyO9Mv8AbQZC0Gy7u0tRJ5ER+SrZRe6RDntLWFsmY50Ty8R3nbXi+7HYVwNIp/fI7265LshTBdq2tTXlE4j+F0367bGMSo1zbM65N4UmEfj3cf0p6ugLLbUa6rLojhSNniEvnoMNx5eUzHE7OGTL0sDRvesu66jAqF73XBZuIqbJXFZqaexWS0vNtmSVoWpPI2zLjufQvMP1syzMr5/1B6g7LqGpHIlpWdbdyQGmINuVI2JqVLi8koYlOk53VkjSZqbZQntDV5R9CIfRRNOOZomLdJVuSLN4VHGVyRp91M+MYh+L2EJcJS+RO8XdjUXRo1n18wl3Tzi2+7Gzhn68LpoXcqRe1xU+dQpHemXO9sNRTQtfBC1Kb2Ue2yySZ+4RkM1zWOr1d158bv6CI5MHRzGMisBrnNpU4zhk786s9PizzjeFXyHdl/OaUdWWHr9vSo3erGB1ii0yuVRztJ8qCuKbjaZDnnccT13WfU+W3QiIha7Sf7V/EnxJov5k0IIkafMvrszV7SU2jvKyjOlvWm33+L/0ihcM20nv2mzO6+n1U0e/5uo+fGN36/rQxPa2IKBo9oFEn29Q4VEZuSu5AgyoRKYaQ127kSKRumR8eXBKzMvNufuw0qrjTJfJc5lE85DX3pOUycZOZxWRVYDgwiA+rt2EtjliBhG5Rezmc9K1/a1bhsxiM9Aos6h1KmQVtn3ZqtVFJoWoyIy3LtXOS0kZGZNbFsI8reorEdIsyZkKgeEuyxWMtxYK57VPXTp6Lamz0p5FFTTlwSZbaWZE2RqWSS35GRFuRW2o+hCG7prv/E16Xy7V74yjKVW7kuomNiXVicS8ypDXTZhtxBESS4mojXtw5ESfyp+SvCJ23QGLEk6XbNuOuxIxREXoze7DFKecJOyJDkFaUyTLoRrSlSdzM+PEuhR3SxopzxmtYARyNgwThgd4xF3PFTcIyoS8DBznEgkDDixIzIMEwMiTtIXGTs3ZM1b31izCNj3rVcbU248fR8hXnVrefSioG06pLaYUN9RGpnZ3zuJ3Vsoty2SpKvSs+0r7wnresDFXqgMnXta1Us2r1M4d11zvikvJcIiNakJQTxkfVJuJM0eZJkQ9XIuI9T9mZUsDVHj+3rev++IlnNWjfVttVJFMaqW6u1U/DkvJShBE8Z9FpIyShGyT3Mi5W0a7m68PCFWDVsxWDb9nS2sfVWRFoNNrHjOVAiKeJHKY+kktKUp3ck9kXHbpuZkYyGw6u27hxqsjZlUuxOYDbsRuORlY7weAMGQGsjfMsDp2gzez37oXwaZLHy3qNVldd36n8nUW3bdylWoMCDQKr2E3dpbZpbVNeJ1xMVKFElMZskIIzWZ8tyJPC5E1YYwyfmS/qBmbWJfmILZsytPUC36FYzM2NNnKjnwenypseM8S0rcJaUs9NiSRmRH1XajRXiTIOJKTlWNkG3/FTly5MrVwUtPe2H+8U98muye+pLVw5cVeSrZRbdSIcgjH+pvTBkq/bgwTjSi5WsTIdacuZ2hPV9qi1OlVV8iKQpDzyTZcYVxIyLbl7EunEzXDkKQOXBt2E8e6zPbPjZyAdxgie+C+qW53jGIHFl2U4epyxInEiQYWxxrzkWNiHPKreybJytTsbopjtlXNXIzjMyamoGTKWZaFobcd7B/czWaSUsiV5i4iPa3qKxHSLMmZCoHhLssVjLcWCue1T106ei2ps9KeRRU05cEmW2lmRNkalkkt+RkRbkVwapjTURqrxRkmxNRdsW9jelXNEhM2vSqZUE1SbTZLLhvKfmPoImnd3UsERNmnyErLZJnzV59PyV4RO26AxYknS7Ztx12JGKIi9Gb3YYpTzhJ2RIcgrSmSZdCNaUqTuZnx4l0Kjg7IzehsHPZnPih0+NOeEk4gGmmBDQLt4yJAGTY2SRN7LIzGF1WAwhkNzLWHrMyY/DaiPXPQ4dTejtL5IaddaSpaEn7pEo1EW/Xp1Hbjw7GYu+NZdCj5BmQJdzt06OmsvwCMozk0my7ZTRGlJ9ma+XHdJHtt0Ie4MqsQajrogScslr6YIYAdyAACNXrw75+sm4PvVL/IqEJadvr2m/epz8s0Jtvn6ybg+9Uv8ioUyfyPlKwLtsmm4io9DqFavS449tv+N477zMeEtt2RIfJLLjauSERTVuZmWxK3LzGXH9bmGprzodjczPlXudBkN1dt7jkMeoLoLplZK1V6ob7wlR8wXZjiwMTw6cVSXaMsoNXq1TmNm6g+9GlRtsoSSiNJEZGaepHyI0cPjg3dM2p3UFWLhvm5L6YsvGFPqqJ9wyG3ajIZaStxDDr6EIJxXk8e0UXI9+oki9sdah8GalLszxgHGFPybQ8mwITNw287X49HlQp0RHZtSG3nyNCmzRvuWylclK6EREY8zGeBc8X3m3Md2ajbQo1EouTbGi262dBqTcluOhSVIVHI1n2inm0K3U4baWzXvw3SRb9Yh5psNLxg18z6rg6g27yRdIwDYbMmD5Nxphzr8XCacAZwHUy7LGcHTOZxGGKrRQtSWH8g241kPLPhH8pWrkeosnMKi2vAqUW36M6ouTcRURENaJRNmfFS+08vb2R+yPva7qMzJmvBel667eyPOtC6Ltv30O1epUs1djJW0pxntnoyVIQ6hXFLpsL8jke23ES7j6frt08WbTMMQtPFt5YptuMJplEumBeUajF3BvyI5SoslJrNxKCTy7M9tiIiNRlyVwurGRn+Jb2mWoZBp1q1DKHpmolHT6dIcZpZvGpxceKTqkmtJE2bbalmS9lEZ7rLqc/1O8Im4X0wMwfHGQxdJGB34Ykqx8uBLov3X4yD947cA0CYI3ZAASvaypb2VdG2QMZZLpWozI1929eV4Q7Uuui3hUkTo6imcjJ+GhLaExeBoWoktl7iE78OSTjzCGlv0ZastRVr+qLzfQ/QzPoavGNFu7u06p94jOObTXeyPtib24t9C4pMy6iY6vYmp/VfkSxU5ww5S8TY9sGts3PIgeiaPW5tbqDHLu6ErjklLTSeR8iURGZGe2+5cf1qVlal8DanslZVxJhCmZRtvK7dKdfQm6o9FkUiRDZNo+07wSu0SrmtXkJP3PMZbGom48F+28G8k8GRMZCWvicpExIVaji6m5lM8aGTliQ5054E3SMdsYSQrhNo7NCUclK4kRbqPcz+2YhzWTXq5a+lrJtw2zWZ1IqsC3pL8SdBkrjyI7hEWy23EGSkKL3yMjExtmpSEqWjgoyIzTvvsfvbiKtVlkXRkrTlkKw7KpnjGu1yhvw4ETt22e2eURcU83FJQn+dSiL7YgtgcaFQNzg5b4UViLBWpk+LIz3TtnzquNXvfK+c7+xRpatTKdesuA9jSn3velx0t/jWpza0NNIYjyV7qaWpwyUt3qo+fXciNKvntjE1Rw/4QLGtuSstXxfkV2xa0/Fk3fPbnToxG4XJvvCW0KcQaupErfj5i6D3rnwfn7GF5Yr1EYZsin3XctCsKHY13WfLq7EBcqOhCFktiWszaJaHSMlGZmRkhHElbmPssmxtVN8av7Mz1l3FtBtO3adalSpaINNrrVQepi3V7oblObp7Z1Z7nuwg20pJO6uRmRZj4NpDmbHVZ6RUuxyXS0CMJwzJmNoIssHItpwNsgsvSM5kOmdnIul1rUqo23PxbqNZgFOpGILidqtwsNuJS+mlSGDZffaJSiJxTfkq4eyV7nm2Od8a5JsvL1k0zIuPKz41t+sIW5Cl93dY7UkLUhX1N1KVp2UhRdUl5veFfNYLbVz5t03YvqqEy6HXLwm1Oo01xZdjL7hE7VrtWz6OIStRK4n0323Iz22tSRERERFsRCCh9bedheY96wE8xwA3EHEzhdWm9T/E7Lz4HPM47iBGEn/QABeo0AABEAABEAABEAABEAABFFuon6yYX31b/Iuhp2+smb99XPyLQaifrJhffVv8i6Gnb6yZv31c/ItDjv8Aeb+p8y91/ZH9Z51KQAA7EvCoAACIAACIAACIAACIAACIAACIAACIAACIAACIAACIAACIAACIAACIAACIAACIAACIAACIAACIAACIAACIAACIAACIAACIAACIAACIAACIAACIAACIAr/dWvnSBZd3u2LcGcqM1V2Hu7vJjx5UqOy5vsaFyWWlsINJkZKJSy4mWx7DqLr1W6eLHrsm3LtypSKZMi2+3dKlPk72C6Y4sm2nm3yQbTprUpJIbQtTity4pPcWhzXNDgcD8U+QE8wV5pvDrhBnd2eUgdKlgBCdd1o6YrZxvQctV7LMCFbF0dr4nkOw5XeJpNOG24bcUmu8GSVFso+z2Lct+hlvyl76pMVZn0w5cu/T9lHxjMty1ag8qTA7zBm0944zpsuElxLbzZ7tqNKyIuqTMj6C2q/gmPfE3ASRujfuV9Ki6q5jcg4gA7MTCsuAoBbOnTJTml6j6g7Y1mZ1i3kqy2LsSzWrs8YUbvPcykLaciuN+U0Z7pLmpfEjIzJe2x2Z025wdyRpgtLOGSZVOoi5lGVMrEt55DMVs2VrbdfNRmSW0K7M17GeyeW3uCd7eDc9jjBYRPTejH9EqIC8GFmIdMdEbP0gpmAQNYeuvSZku9GcfWZmilTa7Je7tGjuxZUVEl3fYkNPPtIadUo+iSQozVuW2+5D380asNPWnqdDpeX8mwKDPnN9sxCKPIlyTaMzInDZjtuLQgzSoiUoiIzSZEfQxGXAAOJwOXKrhTeXFgBkZjaFLQCIYWrfTtU8YFmWm5MiS7P8ZM0dVQjw5ThtzXTQTbK2UtG82ozcR0UgtiURnsXUdnkjKViYjocW48hV3xTTplRjUph7urz/ADlPq4tN8WkKUXJXTkZcS90yFxBGB3gdJiBzmRA5RvVn/wB6BMnsPUdy6sBSa6Mi23ibXFmLId21jxVS6NiSmuvTO7uP9kpU0kNnwbSpSvLUguiT8/XpuPo0Ja8LHzHZFmY4yZlTxvmarqnlLh+I3o/a9m6+639UZjoiJ2jISfRRb7bH5W5C2iRWbLc8cOZz24e8k7pCkq0nUwXfeggTzsa/HcBej/6roiMc66erC1A0amU+7pNbpVSoMvv9Er1BnqhVOlSdiI3I7xEZJMyIiMlJUXQj23IjKThTbNOPre1K61YeCsryahU8f21j4rn9DsaovxGJVSdnGwl2QbC0rVwb9iW5bH7uxqJVpF97WAYknougun4OHLCrTN0OqEwAOfMhsbM72PJKtNjuzPS9sul2Z6K7juXxW0prxtcU7vtRlbrUrk+9xTzUXLYj2LoRF7g6MQjUKTjC1c942tZjKt60Osxbckw7fseJUJB0Sowozakqektm2pC3WkKLipx1Kj4J6KMuv+ZI1saWcSXqWPMgZipVNuAlobeiIjyZRRlKMiJL7jDa22D6kZk4pJkR7nsXUSOcHmZzJjlgkebGMjhsUbabvFAyAnkkT/B2jFd/l7GFEzPjiuYvuSpVODSrhYTGmPU1xtuQbJLSpSEqcQtJEsk8FeSZ8VK2Mj2MumpdMgUWmRKNSojcWFAYbjRmGkklDTSEklCEkXmIiIiIvtCrPg0ZUadp4qc2FIbfjyL2r7rTraiUhxCpRmlSTLoZGRkZGLHX/kSx8V2tMvbIl0U+36HAIjfmzXSQgjP2KUl51rM+iUJI1KPoRGYsa6KbajsLzWuPS0EDokjrwEq5wJeaYxuucB0GCem6CuiAUCylqfwRqKz5pu9JvIUW4XKRfUjvrHdZEV5pKonkqNqQ22s0GfTkRGnfpvuLRZm1Y6eNPk2LS8u5Pp1CqExBOtQUsPzJXZnvs4pmM244hBmRkSlJJJmRkR9ADhdLnYca6OXitdPwo6FU0nl4Y0Sbt48nGcP/AFnpUtgOPx3l7GWWbNLIOO71pdbt7yycnMO8UMqQRKWl0l7KaUlJkZpWSTIjIzLYyEPyvCL6LIdSqdJezzSVP0lLi5C2oE11lZIMiPsXkMm3IPr0JpSzUW5luRGKuIaYdgc+jerWsc8S0SFZABG116j8JWNU7XpN45AhUZ68qdIq1GcmsvNMPxGGSeddW8pHZsElsyV9VUgz32Lc+g+O2dU2n678aVTMVEydTDsyizHIE2sS23obDchBJ3bLt0IUsz7RBJ4kZKNREncxU8WZ2Z8mMY9OHPhmjWOdF0TOXLIkRvkY8ylQ+pbb7DhsM4etXBtlFZFpPz5TC50upyptQW2uXMlyXVOuuvKbQhKlGauJbJLZKUl7g5DEWszTLna4lWji3LFPq9aJCnEQHYkmE88lJbqNpMlps3diIzPhy2IjM+hD7szasdPGnybFpeXcn06hVCYgnWoKWH5krsz32cUzGbccQgzIyJSkkkzIyI+goSGQ44Thz/wR2ciqGPeTTaCYxI3Rt6ietS2A5TGWVcdZltVm9cYXdAuKivLU0UqIsz4OJIjNtxCiJbayIyM0rIlERke3Uh1YuIIwKjBBxCCveRtGVtZAv6rZDgZvzLZMuvLacqUK0rtOnwpK0NNtEpTXZq6mhpJHsZb/AO7awgC0tBMq9r3NyK4rEGHMfYKsmPYGNaH4upbDrkhw1uqeflSHD3cfedWZqccUfnMz6ERJLZKUkXagAuJLjJVgEIAAKKqDhcb4dtXGFavS46JInzKnflccr1WlTlNqc7Q0JQ2wg0IRsy2lOyEnyUW6t1GZmY7oAGBvDOI6JB8oHUqzIu7JnpxHnKAAAqIAACIAACIAACKJM6ab7eztLodVnZBv+zKtb6JDcOp2dXTpkrs3jbNxC1cFkpJmyj3OnUfxhHS/jrBlUq100mpXNdF211puPUrouurLqdVksN+waN5RESUF06ISnfinlvxTtLwA3ieLy9ufXtVznFwuk4IAACtQAAEQAAEQAAEXh3z9ZNwfeqX+RUIIwDTIE+/e9TIjbztOhPSYq1pIzZdM0tGtPvH2brid/eUZe6J3vn6ybg+9Uv8AIqEJadvr2m/epz8s0OPa4Et130QRy+Ur3OgwHavW4HkViQHn1+4KFalFmXJc9ZhUmlU5lUiXOmvpZYjtp861rUZJSRe+ZiF8f66NJ+Ub0Yx5ZGZaZPr8p448aM5DlxUyXd9iQ0680ht1R7dCQozV7m47ACHOuDPdtXhy0hhqEcUbdnWp4EdZYwXaWYq3Yteuao1eLIx9cDVx0xMB5pCHpLZbEh4ltrNTfvkk0n/2hx1Y1y6U6BEly6xmGnxe416RbL0dcGX3nxiwaSebRHJrtXEINaCN1KTa3UXlj9ssa2NLmELmOzcmZcgUutoQlbsFiFLnOsEpJKSTpRmnOyM0qSoiXsZkZHtsYXhxXztBHOIcI7D1K8U6klgBmDIjZkfOCpwH8PNNyGVsOp5IcSaFFvtuRlsY8Ow79s7J9qQL5sC4YlcoNUSpcSdFUZtuklZoUXUiMjJSVJMjIjIyMjHvirmZtcFGHbQqtq8GHobWo1qwhuaj3M/RLWPP/wD7Q7nDmjHTVgC63L3xJjfxDWnobkBcrxxPlbsLUlSkcJD60dTQk99t+nn84/fEU3HkTIeW/EOZrxueoU6qsruKl3DPdcgW04ptbqWYRONIQ0yaFGZkhayIkJ3MthXLWRra0sZH095SxVZOY6VVbldpC2WIzUeSlmStDzZmlmSpsmHj23MuDiuREe2+whfW4CkarBjdvQNoLZ6iMJyIWUxlS01eDe4xegk8+Z5ir4gOVxT+9dZ33gp/5ugVAuzwhdg471rXDY185e8X4yoVrqgyIviB53sbmRLInE82oypCtmeXUlGz7x7jIrBtGvwBOMu+CCfNHOQNqxaAfaKPDNGwHrjDtnmBOxT3j/SXYdjZWlZpqd5X3e10qKS1TJN2V1U9FFYfUpTrMJHBJNNny4kR8jJPQjLc95uEMztY+milONIq+VqfTu3tePebS5sWTHQ5SH1JSy8lbjZJNa1LSSWSPtjM9uA+O4dbel21MfW5lK4crRodt3cT50WSqmzVOzCZc7N00x0sm8RJV0M1IIupe+QsgU2hmQbhzGThzyDO2Qdsq8tfUdeIJLsefAHyR0KcgEX4Y1N4I1DNzTw9ken3A7T08pUZLT0aU0gz2JZsPoQ7w32Lnx47mRbjhMXZYwRiLEtbu97Pl6XdbUe736RLrV2LmVCVFqanEMnBb/ydLhMpXxJOyDQXJR8jLqK/fQd0jlxA8pGO+BmQrSIBJ2GOwnyDqk5AqxYCE7e1p6W7syanD9uZko0+6nXzisxWm3zYfeIv3NqUbfd3Fn5iShwzM+hbn0HTZl1E4V0+02LVMwZBp1uNTlGUVp1Lj8iRsZEo22GUrdWkty3UlJkW5bmW4oXANDycDkdh5lcKTy/gwDe3bepSMAj/AA7n3D2f6LIr+IL8gXHEhrS3KJlLjT0dSiM09qy6lLrfLZWxqSW+x7b7GOCu/XppEsS83rAufN1Hj1qO93d9pmNKkssOkZpNDkhlpTLakmRkolLI0mXXYCQ0hpzOSo1jnguaJAz5OdT6A+amVOnVqnRaxR58edAnMokRZUd1LjT7S0kpC0LSZkpJkZGRkexkY+kXEEGCrAQRIQBDeIpuPImQ8t+IczXjc9Qp1VZXcVLuGe65AtpxTa3UswicaQhpk0KMzJC1kRITuZbCuWsjW1pYyPp7yliqycx0qq3K7SFssRmo8lLMlaHmzNLMlTZMPHtuZcHFciI9t9hBVrcHSNQCTdvRvwnq5duayKNA1aop5C9E7sYx+JXxAVOzjpzxxlvTbR8iVun1Ji9bHsDvlsVum1KTGk02Q3DS8hSEtOEhZ820+ySZ7b7Gk+pTFphvWs5G0745vi4pKpNVrNuQZM19RbG6+bSSWsy99SiM/wCkZLmXKlSmc2EDnBLoPwTI2bysdpv06dUZOHUQGk9HGwPYF/Gon6yYX31b/Iuhp2+smb99XPyLQaifrJhffVv8i6Gnb6yZv31c/ItDjX95v6nzL3f9kf1nnUpAADsS8KgAAIgAAIgAAIgAAIgAAIgAAIgAAIgAAIgAAIgAAIgAAIgAAIgAAIgAAIgAAIgAAIgAAIgAAIgAAIgAAIgAAIgAAIgAAIgAAIgAAIgAAIgAAIgjDVBU7jo2nLJtWtFx9usxLUqb0NbBH2iHCjLMlI268i6mW3ukJPH8OtNPtLYfbQ424k0LQsiNKkmWxkZH5yMRV6ZrUnUxtBHWFLQqClVbUImCD1FV70PWXjSlaP8AH0W2aNS10yuW9Hm1gzYQpM2Y43/lRv7l9UMnOaD5b7Egk+YiEW0q3bJrvhP4zrNEos+nUnDkWdQjRHacYimmclDLsbYjSjZpxRJUjzJV06GOwqPg5sMOyJ8G2r+yradpVV1btQsugXa5FoMrmZm4hcY0KUSF7mRpSsiIuieJCVLb024+tLMcbNVCk1hiqQrOYseNT1SULgtU5lxLjZkSkG6bpcElyU6ZGXnLfqMo1TUtAruEYnDdLHt7C4AcknDJWACnSdSaZkDHL75p6yAZ6MSop1E4XzJP1B23qL0/zLErtz2rb6qJNti6lLJJRnXluJkRlt9WXlcnEEpRoLZB9VFySfC3Ln6sZIxTqQxvk/BjWN8l2zYUmRU0sTWZ7dRhORXjZcTJbQnciUtWyDNRFzPZW/NKZ3zTpJsHNF3w8iuXjf1k3fDhJpqa9Z1xOU2WuGlSlkwrclt8eS1nuSCUfLqZkRbfNaWjTFFo2HfNmN1W66vUckU9ym3JdVaqvfq5NZU0ppO8hxBpI0JUfEib477GZHsMJzHuoPo7IfA5XSRB5zJnDMAZEZVKsxtVtR2YLMeRpEyMjAECMcidoVJ7psnU3aekXGd5Xlni4LxwdOotH9F9rW7Q4NIqdKoDsdryW5aErdlNISZIcIzQa0+y2Spa0S9rknW+5pUw7Q8FLtZWPq5eFvU+Omc46VGdp5JcVHamdn9U7t2jbZu9SWXA9/K3Fy7Jx7b1j43omLISXajRKHRmKE2mokh1ciK0yTJE9slKFmpCfK2SRHufQi6CLbH0YYdsnH144g51yvY/vCY5MO16xKbeg0lS1ms0wVIbQ8ynlwMuTizSptKkmSjUpWVXh9R93xb4eN5hwN1xxOWRMkEmZkRDRqBrWF+BALTAw4wi8BgJBiRhIAxBGMCZwwZr5y/it3Hl4q0u0Ch0840yJPpSq3Efo/dVpcQ5GdcbUiPxS3xMyT0Qai6ecuouzEWpCwNQlw6jsBRsd5BkXJSadSbiodZmKYnQn40dCTRClERIbS4RIWonDTvyIzQfRRe+rwc+KprLVBuPL2args5hTfZWbU72ecoqG21EbbRMpQlwkI4lx+qbl7++xjp8k6J8fX7fdQyVb+Scp46uGtIaRVpdlXU7T/GJNNpbb7VK0uJ8lCEkXAkl03PczMziF5vHbmSTsnFsYzgZGBGOQOKqXtIDMIiDhhm0wNuBE7O0qsOofO0HL+k6936xif0t7ps3JFFg3fSu1akIRJRJZInzkNISTxGhKU8jL+CREak8VHOvhHnmjwhah9on6rkK3OHX2X+UGfT3+hGYkOi6PcFUfDlewe5bcqpUG6nlzK7KqE5x+oVKYpSVd7ekmfM3iUhKiMtiI09C6nvH/rc+IZ1Mp0K68l5XuuVRZ8SbSahcFzlOfprcdaVpjR0ra7FppRoSStm+ZkWxLIuguAxa05B7HmOTgw6B+hIxyOyINHuYbz2kyWvbB3G9dx/Sg8oG8rzIqVL8ILllCEmpSsRQiIiLczPvBj1vBgkadEmPkqIyMl1UjI/vlJEzU/CNpU7Ntbzy3Nqjler1AYtyVEdcaOEUVpztEqSjs+fMz6GZrMtv4JDgsWaMbCwvf6byx1kfJlKozcqTMbspFyKO2kOvoUlZ9zNG59VGouSz2UST/gltShNNvBu2g47iKlRw6w/ohUrObVBjMFpHL9TawjkxHUplvT0ZehKr+l34l9E/c3fFPjrte4d64n2feOx+qdny25cPK28wrPpP7f08Ml+nZ2np+d0h+OOy4+K/EW5918VcevduXsu1+rc9ufUWyFNs05Bt7TVrVh51yvGqFMx/cuPitj0RRqc/LYi1Jqcb6WpBMIUtPNv2J7HufubEo00aQys0uOBDhzcVxEbiSLvKCRtQB1Si9jRJEHDbxmgg7wBLuQgHYvTza5LZ19YXdgJ5SkWVdKmS233cJnyS2/n2Hz+DBpNvTdKsS73YkWTcd21erSrqmuJJb8yZ3x5Oz6j6q+p8PJPp5Zn/AAj3nBeLrCyTkqw9SsKs1V2bQ6JIaoqWlJbiSYk9tKjcdbW32vLiZGnykbb9SPzCNqxoCw7UryrVzUu8ck23R7nmKn160aBdDsChVV5f7qp9htJL8v8AhEhxJe4niXQVptdRHBuGMOGOw8I50cxBE7ZA6KufTrNkHCWuEbYphvWDiNmfIvI8GoTBae6qUYkEyV73B2ZN7cePej2226bbDyNXMOn3Pq70wWLe0diXZ06o1yoOwZREqNJqUeKk4vNJ9FmlaiIkmWx8zL3THwagsRUXTPourWBMKv1OTLyJX27dorNQkNqdOTVJKSdZSptLZE2TKXiLoZkkt1GZEYl6taOMR3PgW0sC1yPPZg2WzFVR6vS5BxahBmtJ6y2HfK4OKUa1HuSiM1dSMyIypSlrabgJFPg285DAHcxbLXDYSRuJVSReqXjHC8J+iHE3TzGSDtgHeuD1esQk6idLb5MsFKVespsl8S7Q2yi78d/PxIz83m3MQlgRvVzXM2Z/u/DcPBbtaRf8+lVWVexVRdXZjNGlMVhtUXyUxCbQngXQzUhe+/FO1ibc0EYqoV72nkyq5AybdV3WhUTqEat3Lch1GVJSSDSiM6bjfEmU8lGRNJbUZn5SlbERe9ljRtjHKF7vZOp1y3xj285jCIk64LHry6VMmspIiSh8ySpC+hJLc08tkpLfZJbWsYaRLhjJdlsDhSx+AQRhnOO241GOFzYA3MbnVDHJ4wIzyGAnCmmfcY6kMM4N1IX7kGv46p8rIiLecmUqwZUxDEVByijSXzYktpU2UhBmlayUrmfaEfToVl9XNoWTbPg97utyzqTAaoNLtWMdLQyyjs0oJTXF1OxbclEZqNRdTNRn7pjoIGmTB+BsV5NqlxQbwyFHuWkqkXhLr9Rdq9VrUaKys0o6mhJrSlS+BoJCtzLyvJTtQ+96FpWyVjWXh7ThkvOeWruqCmKfbFlVaZUjpVsOG8RHJU2thllptls1kZrW4Sem+xcllHWZwlCpZGiS4NAjPxS0NjcD4pwGJm6MVPSeDWp2hxgNceY+JJOwZY7SIzMhWGyVb1BujVDowo9yUaFVYC7YqryosxhLzSnGqY042o0KIyM0rQlRe8aSP3B6vhAW8gVvNunWybPh2TLaqNYq0qLDvQn1UORU2Y7ZRikoY8tRpJxzsiLzuLIjIy3FhHNN9pVO98U5LrFWq5V7E9KkU2mNR3mkxJBPxUx3VPpU2a1GSU7p4rRsfn38w6PMmE8bZ8s1di5Pt9NUpvbolMKS6pl+LIRvweZdQZKbWW5luR9SMyPcjMjzbSbzmluMPc7nl7iDzwQRygblhWd4F2960GcxukHDpx5JVV8h4X10ZOuvHVy5UqWnWixrFuynVpqpUCRWItQ4JdJC4qHZDa08HiXx7PoS1cC39w+CwI3q5rmbM/3fhuHgt2tIv+fSqrKvYqoursxmjSmKw2qL5KYhNoTwLoZqQvffinaxFuaDMe0y6qHdN4ZezJkErZqLNWo1Nu28nZsGDMZVyadbbQhB7oPbbkoyMi2MjIzI/fyxo2xjlC93snU65b4x7ecxhESdcFj15dKmTWUkRJQ+ZJUhfQkluaeWyUlvsktoGgshw/xfCuYzt8SCN2MkyFNwjXNLD/h2YYF2HwpneIjauU0n4YzfjXLWVL0zFU8Zsv34mmVE6LY8mYUaNIaS60uQceS2SkG8RbmvkrmtK/e6WjETYJ002FgF2vVS3KxdVwV+6Vx11uvXNWXKjUJ5sJUlntFq2R5JLXsaUEZ77GZkREUsiTANa0bAB1bOjIcgWO83qjn7z5gPN5zigAAoqIAACIAACIAACIAACIAACIAACIAACIAACIAACIAACIAACIAACLw75+sm4PvVL/IqEJadvr2m/epz8s0Jtvn6ybg+9Uv8ioVCq+Ql4sxhky+o7nCZTrOmogmR9TmOuNMxyLqRmZvONlsR7nv06jjOu7zS1z0S8CYBw34nDpXvtXKfC6DtlOYkgdcL1vCW9nNsTFltXA+61ZleybRIN1GlRpbVANS1GlxReZG6SP8AnSk/ORC0km3LDpdLo9Om0KgxadSJEZukMOxmUMw3yUSI5R0mXFtfI0pRw2PcyIuog3AOkaxLc0g0PT3k6141Wj1aCmdckZ1SiNdRfMnXDJaVckrbXxQlaTIy7JJlsP5sbQjjizbuoN01DKOWruYtSWifQKLct2uS6ZSpCN+zcYZShBkaCM0kSlKLY9jIx2gNNB7qJyvySOZoPPF0lp2zjC8GajatNtRuYaQBvkkg8kgi8NkYXlwvg4reoKFZ3upFFglWnstV+A5UCYT3lUZCmloZNzblwJS1qJO+26jMfHBxpqi0+ZOyTkbAtn4+y3aORK/JrkuI/UvF9cYfNRk5FTJV9QU02rmlKVGoyMj8lB7kdksK4JtHBMS64do1GsTEXhc026px1J5pw25crh2iGuzbRs0XAuJK5K8+6jEXXJoJxxVbprVz2llrMVgt3JNdqNYpdp3k7DgT5LqjU6442tDh7rNStySoiIj2IiLbaE32inczFNrT0NaCMjhLc88BvKmNRrn1CcnPLu10HDGQDll1Bd1pWzFbOc8OwL8tiyDs9Ls2ZFqFENCC7lPbeV3hPJCUkvdwzVz4pNRqM1EStyEvCtVTyRY2jWn0bCWOdMGZbjocKAUtmVZdrKq0QluOL5k9IU8lSpBqSa1b7nstPXYyIvPLXluZF6jLVKW/v46/WBKXse7ic3TkYnZOWJw2lR8E+SYzkjLI4ieWM+VVYz7Vq7RrH1yP0KQ6wci7bahzHGz2PujxNtvJM/eUlRpP3yUZe6LQav7WsW1/B8XfQLQpNNi2/TbYjeKmmW0k0hPNrs1o/wC0rlvy86jUZ7mZmJRoGm/GbEnJtVqMOp1WNmVbMm46XVltmygksG12TSUIStsuKuu6lKJRbkothEUnwZ2Fana0qx7hyZl6uW8TBsUik1K7VPwqD16LhRza7JKkp3SXapcIiPfblsosWpRc6yus20taJ5WsDSOgiW7JJmFkUq9PhmV5wa9xjeHOBB6hB5IgFWOxT+9dZ33gp/5ugVup6Fp8KhU1qQokrw02aTMuh/8ASiPMPg1FY4i5Vz7p/wBMsY3JVs2ZHdvW4UPKJSlw4SURoROcTSR9o6S0H0LclKMuhGQl3N+kuwc33bSchP3bfFkXfR4i6ezcNmVo6ZPchqM1HHcc4LJSOSlH5iPqZb7dBmVavCV/RTBgXVI5QWuZPviRH+GdoWJQpijR9DvOJYyeQ3g6PegH9IKH3beoNe8Ku69XKLBqDlJxKzPgqksJdOLJKokgnm+RHwWSXFkSi6kSj98dxnfOF10vOFBwrhLC9EvTJa6A9XTqtclohw6HTVvpaNfacTdc5OITybbNJ9EH5X8Hu7R02WfaGW4eaWrouuq3HDs1iyVOVWe3JTJhtOpcKQ8o2ydckqUgjU4a9j3Pydz3Hw5y0pWBnO46PfM25rzs276HHXCiXJZ9ZOm1EoizM1R1OcVkpszUo9uO5clbGRGZHEQWspsGIaXzszc8j/k0nbEiVMHtc9z3bQ0DbiGtBnqMcsGFWyxGM7wvCMWhUM603GtPrtasOqJIrK72ZPxG3S4d7VJLktwlI8k09OKSL3NhD9ejR5ugrIEOW0l1h/PMhp1tRbktCqmyRkf2jIxeDHWi7E2Mso0rMlEq93T7rgU+TAmVCsVfv79XU+SUqfmOuoN1xwkoSlJJWhCSLojqe/4yNFGK5OJ6thxdfusqLWbvVej75So3ekzlPpfNtKuw4EzyQRcTQatt/K36hSaGup3sm5/t21Onig8+4SratS+HluBJBH7FzOjjELg/CEW1b1AwdYDdBokGmIt/IVu+KUw2EsFB+rmnZkkERNlxMy8nYRlNb1I3D4QXME3EEPEEmv21R6JFpyr/ACqC3YdMcjclHT+6dUkp1xfbGfurQRH1UQuVmzClq54taBaN31Cqw4dPrMKuNLprrbbpvxV820qNxtZcDP2RERGZeYyHOZt0qYxzlXKbedXmXHbF40ZhUWn3TatVXTarHZUZmbZPJIyUnqrYlpVtyVttyPexoe1xeceM45+qYxsjllpB/wAJO9XtewNLP8IGW0PLo5ojphVluPF2rqyrrylqKyDV8RUytzcUVmmNwLElVBl+ZIjp7VqatmU2fauNcuPac9yI2y269fO0x2drVf0y2nR8V0DSu7YleojbvY1JitLkTSdRs8qd2ZG25INRKS7tuXIjIuhERWfwzpHx/hu752RPRhft83bPpp0dyuXncDlTlJgm4Thx09EI4ckpPqgzLboZbq342f4PjFjFRnPY6yjl3GtIqchcubb9m3e5T6U+6s/LM2DQviSi8nig0kSdiIiIiAshpZEgtAjYOM8wd4N7HcREEYq7hmuzzBmYz4rRvwi7A3gzIyPZaMsX3lhfT5b+ML7uOiVuqW/InRjk0ea7Kiob704pLKVutoWRt8jbNBp8k08fcE3is8zItlaL6RQ8F4902ZvuuhU2AcuPMtO3HK1FQp591TiHJC3kn2xuc1qTtsROJ22LYi+IteW5kXqMtUpb+/jr9YE76gqvJBnsnYoOCfiYzJPQTI/jYqsZ9q1do1j65H6FIdYORdttQ5jjZ7H3R4m23kmfvKSo0n75KMvdFoNX9rWLa/g+LvoFoUmmxbfptsRvFTTLaSaQnm12a0f9pXLfl51Goz3MzMSjQNN+M2JOTarUYdTqsbMq2ZNx0urLbNlBJYNrsmkoQlbZcVdd1KUSi3JRbCIpPgzsK1O1pVj3DkzL1ct4mDYpFJqV2qfhUHr0XCjm12SVJTuku1S4REe+3LZRYlSi51ldZtpa0TytYGkdBEt2STMLJpV6fDMrzg17jG8OcCD1CDyRAKn6zPEnpG0L0S9h4o9CcXxh2/7n3buae15/9nhy3+0IC0B+mf6D1+J+4ekJ/lfpfeN+09E3du3Lh2/D6j3b937Pl9W24b9B0GqfOWLsAYgfwzMqdYl3ZcdpyqNaVGhU6RKmVN0mO7NkS2WzbSrktG+5pPz8SPoQkjTDZVZxzp3xzY9xRlRqrRrcgxprCj3Np8mkmtBn76VGZf0DMc8VrRWtDPFyG4yXzO8sgR6m8d6wm0zRs9Ki/PPlEBsRyOkzvujcv41E/WTC++rf5F0NO31kzfvq5+RaDUT9ZML76t/kXQ07fWTN++rn5Foca/vN/U+Ze7/sj+s86lIAAdiXhUAABEAABEAABEAABEAABEAABEAABEAABEAABEAABEAABEAABEAABEAABEAABEAABEAABEAABEAABEAABEAABEAABEAABEAABEAABEAABEAABEAABEAABEAABEAABEAABEAABEAABEAABEAABEAABEAABEAABEAABEAABEAABEAABEAABEAABEAABEAABEAABEAABEAABEAABEAABEAABEAABEAABF4d8/WTcH3ql/kVCEtO317TfvU5+WaE23z9ZNwfeqX+RUKq27c9ctOauo2/O7rIcaNhS+yQvdBmRmWyyMvOkv8AcOF90rStHQmtGjNIWgEspgkhsTE7JIHaF0XVOx1NIaHtdlpEBziAJyy6VcYBVv06cmfZL+Jx/wC4Hp05M+yX8Tj/ANwbLw26v+s1ves+cWJ4PtJ+uU+t3yVaQBVv06cmfZL+Jx/7genTkz7JfxOP/cDw26v+s1ves+cTwfaT9cp9bvkq0gCrfp05M+yX8Tj/ANwPTpyZ9kv4nH/uB4bdX/Wa3vWfOJ4PtJ+uU+t3yVaQBVv06cmfZL+Jx/7genTkz7JfxOP/AHA8Nur/AKzW96z5xPB9pP1yn1u+SrSAKt+nTkz7JfxOP/cD06cmfZL+Jx/7geG3V/1mt71nzieD7SfrlPrd8lWkAVb9OnJn2S/icf8AuB6dOTPsl/E4/wDcDw26v+s1ves+cTwfaT9cp9bvkq0gCrfp05M+yX8Tj/3A9OnJn2S/icf+4Hht1f8AWa3vWfOJ4PtJ+uU+t3yVaQBVv06cmfZL+Jx/7genTkz7JfxOP/cDw26v+s1ves+cTwfaT9cp9bvkq0gCrfp05M+yX8Tj/wBwPTpyZ9kv4nH/ALgeG3V/1mt71nzieD7SfrlPrd8lWkAVb9OnJn2S/icf+4Hp05M+yX8Tj/3A8Nur/rNb3rPnE8H2k/XKfW75KtIAq36dOTPsl/E4/wDcD06cmfZL+Jx/7geG3V/1mt71nzieD7SfrlPrd8lWkAVb9OnJn2S/icf+4Hp05M+yX8Tj/wBwPDbq/wCs1ves+cTwfaT9cp9bvkqUtRP1kwvvq3+RdDTt9ZM376ufkWhDFxZCu+7ISKdcFX71HbdJ9KO7tI2WRGRHuhJH5lH/ALxM+nb6yZv31c/ItDQat6xWXWjX8aQsbXNYaREOABkDkLh2rZaV0XW0Pq0bLXILr4OExieUBSkAAPoFczQAAEQAAEQAAEQAAEQAAEQAAEQAAEQAAEQAAEQAAEQAAEQAAEQAAEQAAEQAAEQAAEQAAEQAAEQAAEQAAEQAAEQAAEQAAEQAAEQAAEQAAEQAAEQAAEQAAEQAAEQAAEQAAEQAAEQAAEQAAEQAAEQAAEQAAEQAAEQAAEQAAEQAAEQAAEQAAEQAAEQAAEQAAEQAAEQAAEQAAEQAAEQAAEQAAEQAAEQAAEQAAEQAAEQAAEQAAEQAAEQAAEQAAEQAAEQAAEQAAEQAAEQAAEQAAEQAAEQAAEQAAEQAAEQAAEQAAEQAAEQAAEQAAEQAAEQAAEQAAEQAAEQAAEQAAEQAAEQAAEQAAEQAAEQAAEQAAEQAAEQAAEQAAEQAAEQAAEQAAEQAAEQAAEQAAEQAAEQAAEQAAEQAAEQAAEQAAEQAAEQAAEQAAEQAAEQAAEQAAEQAAEQAAEQAAEQAAEQAAEQAAEQAAEQAAEQAAEQAAEQAAEQAAEQAAEQAAEQAAEQAAEQAAEQAAEQAAEQAAEQAAEQAAEQAAEQAAEQAAEQAAEQAAEQAAEQAAEQAAEQAAEQAAEQAAEQAAEQAAEQAAEQAAEQAAEQAAEQAAEQAAEQAAEQAAEQAAEQAAEQAAEQAAEQAAEQAAEQAAEQAAEQAAEQAAEQAAEQAAEQAAEQAAEQAAEQAAEQAAEQAAEQAAEQAAEQAAEQAAEQAAEQAAEQAAEQAAEQAAEQAAEQAAEQAAEQAAEQAAEQAAEQAAEQAAEQAAEQAAEQAAEQAAEQAAEQAAEQAAEQAAEQAAEQAAEQAAEQAAEQAAEQAAEQAAEQAAEQAAEQAAEQAAEQAAEQAAEQAAEQAAEQAAEQAAEQAAEQAAEQAAEQAAEQAAEQAAEQAAEQAAEQAAEQAAEQAAEQAAEQAAEQAAEQAAEQAAEQAAEQAAEQAAEQAAEQAAEQAAEQAAEQAAEX/2Q==;" vertex="1" parent="1">
          <mxGeometry x="-635" y="-101" width="1111" height="577" as="geometry" />
        </mxCell>
        <mxCell id="rgU8As-WHPMnj6fXVGss-3" value="Course" style="shape=table;startSize=30;container=1;collapsible=0;childLayout=tableLayout;fixedRows=1;rowLines=0;fontStyle=0;strokeColor=default;fontSize=16;" vertex="1" parent="1">
          <mxGeometry x="812" y="815" width="180" height="180" as="geometry" />
        </mxCell>
        <mxCell id="rgU8As-WHPMnj6fXVGss-4" value="" style="shape=tableRow;horizontal=0;startSize=0;swimlaneHead=0;swimlaneBody=0;top=0;left=0;bottom=0;right=0;collapsible=0;dropTarget=0;fillColor=none;points=[[0,0.5],[1,0.5]];portConstraint=eastwest;strokeColor=inherit;fontSize=16;" vertex="1" parent="rgU8As-WHPMnj6fXVGss-3">
          <mxGeometry y="30" width="180" height="30" as="geometry" />
        </mxCell>
        <mxCell id="rgU8As-WHPMnj6fXVGss-5" value="" style="shape=partialRectangle;html=1;whiteSpace=wrap;connectable=0;fillColor=none;top=0;left=0;bottom=0;right=0;overflow=hidden;pointerEvents=1;strokeColor=inherit;fontSize=16;" vertex="1" parent="rgU8As-WHPMnj6fXVGss-4">
          <mxGeometry width="40" height="30" as="geometry">
            <mxRectangle width="40" height="30" as="alternateBounds" />
          </mxGeometry>
        </mxCell>
        <mxCell id="rgU8As-WHPMnj6fXVGss-6" value="Id" style="shape=partialRectangle;html=1;whiteSpace=wrap;connectable=0;fillColor=none;top=0;left=0;bottom=0;right=0;align=left;spacingLeft=6;overflow=hidden;strokeColor=inherit;fontSize=16;" vertex="1" parent="rgU8As-WHPMnj6fXVGss-4">
          <mxGeometry x="40" width="140" height="30" as="geometry">
            <mxRectangle width="140" height="30" as="alternateBounds" />
          </mxGeometry>
        </mxCell>
        <mxCell id="rgU8As-WHPMnj6fXVGss-7" value="" style="shape=tableRow;horizontal=0;startSize=0;swimlaneHead=0;swimlaneBody=0;top=0;left=0;bottom=0;right=0;collapsible=0;dropTarget=0;fillColor=none;points=[[0,0.5],[1,0.5]];portConstraint=eastwest;strokeColor=inherit;fontSize=16;" vertex="1" parent="rgU8As-WHPMnj6fXVGss-3">
          <mxGeometry y="60" width="180" height="30" as="geometry" />
        </mxCell>
        <mxCell id="rgU8As-WHPMnj6fXVGss-8" value="" style="shape=partialRectangle;html=1;whiteSpace=wrap;connectable=0;fillColor=none;top=0;left=0;bottom=0;right=0;overflow=hidden;strokeColor=inherit;fontSize=16;" vertex="1" parent="rgU8As-WHPMnj6fXVGss-7">
          <mxGeometry width="40" height="30" as="geometry">
            <mxRectangle width="40" height="30" as="alternateBounds" />
          </mxGeometry>
        </mxCell>
        <mxCell id="rgU8As-WHPMnj6fXVGss-9" value="Name" style="shape=partialRectangle;html=1;whiteSpace=wrap;connectable=0;fillColor=none;top=0;left=0;bottom=0;right=0;align=left;spacingLeft=6;overflow=hidden;strokeColor=inherit;fontSize=16;" vertex="1" parent="rgU8As-WHPMnj6fXVGss-7">
          <mxGeometry x="40" width="140" height="30" as="geometry">
            <mxRectangle width="140" height="30" as="alternateBounds" />
          </mxGeometry>
        </mxCell>
        <mxCell id="rgU8As-WHPMnj6fXVGss-10" value="" style="shape=tableRow;horizontal=0;startSize=0;swimlaneHead=0;swimlaneBody=0;top=0;left=0;bottom=0;right=0;collapsible=0;dropTarget=0;fillColor=none;points=[[0,0.5],[1,0.5]];portConstraint=eastwest;strokeColor=inherit;fontSize=16;" vertex="1" parent="rgU8As-WHPMnj6fXVGss-3">
          <mxGeometry y="90" width="180" height="30" as="geometry" />
        </mxCell>
        <mxCell id="rgU8As-WHPMnj6fXVGss-11" value="" style="shape=partialRectangle;html=1;whiteSpace=wrap;connectable=0;fillColor=none;top=0;left=0;bottom=0;right=0;overflow=hidden;strokeColor=inherit;fontSize=16;" vertex="1" parent="rgU8As-WHPMnj6fXVGss-10">
          <mxGeometry width="40" height="30" as="geometry">
            <mxRectangle width="40" height="30" as="alternateBounds" />
          </mxGeometry>
        </mxCell>
        <mxCell id="rgU8As-WHPMnj6fXVGss-12" value="Degree" style="shape=partialRectangle;html=1;whiteSpace=wrap;connectable=0;fillColor=none;top=0;left=0;bottom=0;right=0;align=left;spacingLeft=6;overflow=hidden;strokeColor=inherit;fontSize=16;" vertex="1" parent="rgU8As-WHPMnj6fXVGss-10">
          <mxGeometry x="40" width="140" height="30" as="geometry">
            <mxRectangle width="140" height="30" as="alternateBounds" />
          </mxGeometry>
        </mxCell>
        <mxCell id="rgU8As-WHPMnj6fXVGss-23" value="" style="shape=tableRow;horizontal=0;startSize=0;swimlaneHead=0;swimlaneBody=0;top=0;left=0;bottom=0;right=0;collapsible=0;dropTarget=0;fillColor=none;points=[[0,0.5],[1,0.5]];portConstraint=eastwest;strokeColor=inherit;fontSize=16;" vertex="1" parent="rgU8As-WHPMnj6fXVGss-3">
          <mxGeometry y="120" width="180" height="30" as="geometry" />
        </mxCell>
        <mxCell id="rgU8As-WHPMnj6fXVGss-24" value="" style="shape=partialRectangle;html=1;whiteSpace=wrap;connectable=0;fillColor=none;top=0;left=0;bottom=0;right=0;overflow=hidden;strokeColor=inherit;fontSize=16;" vertex="1" parent="rgU8As-WHPMnj6fXVGss-23">
          <mxGeometry width="40" height="30" as="geometry">
            <mxRectangle width="40" height="30" as="alternateBounds" />
          </mxGeometry>
        </mxCell>
        <mxCell id="rgU8As-WHPMnj6fXVGss-25" value="MinDegree" style="shape=partialRectangle;html=1;whiteSpace=wrap;connectable=0;fillColor=none;top=0;left=0;bottom=0;right=0;align=left;spacingLeft=6;overflow=hidden;strokeColor=inherit;fontSize=16;" vertex="1" parent="rgU8As-WHPMnj6fXVGss-23">
          <mxGeometry x="40" width="140" height="30" as="geometry">
            <mxRectangle width="140" height="30" as="alternateBounds" />
          </mxGeometry>
        </mxCell>
        <mxCell id="rgU8As-WHPMnj6fXVGss-26" value="" style="shape=tableRow;horizontal=0;startSize=0;swimlaneHead=0;swimlaneBody=0;top=0;left=0;bottom=0;right=0;collapsible=0;dropTarget=0;fillColor=none;points=[[0,0.5],[1,0.5]];portConstraint=eastwest;strokeColor=inherit;fontSize=16;" vertex="1" parent="rgU8As-WHPMnj6fXVGss-3">
          <mxGeometry y="150" width="180" height="30" as="geometry" />
        </mxCell>
        <mxCell id="rgU8As-WHPMnj6fXVGss-27" value="" style="shape=partialRectangle;html=1;whiteSpace=wrap;connectable=0;fillColor=none;top=0;left=0;bottom=0;right=0;overflow=hidden;strokeColor=inherit;fontSize=16;" vertex="1" parent="rgU8As-WHPMnj6fXVGss-26">
          <mxGeometry width="40" height="30" as="geometry">
            <mxRectangle width="40" height="30" as="alternateBounds" />
          </mxGeometry>
        </mxCell>
        <mxCell id="rgU8As-WHPMnj6fXVGss-28" value="DeptId" style="shape=partialRectangle;html=1;whiteSpace=wrap;connectable=0;fillColor=none;top=0;left=0;bottom=0;right=0;align=left;spacingLeft=6;overflow=hidden;strokeColor=inherit;fontSize=16;" vertex="1" parent="rgU8As-WHPMnj6fXVGss-26">
          <mxGeometry x="40" width="140" height="30" as="geometry">
            <mxRectangle width="140" height="30" as="alternateBounds" />
          </mxGeometry>
        </mxCell>
        <mxCell id="rgU8As-WHPMnj6fXVGss-29" value="CourseResult" style="shape=table;startSize=30;container=1;collapsible=0;childLayout=tableLayout;fixedRows=1;rowLines=0;fontStyle=0;strokeColor=default;fontSize=16;" vertex="1" parent="1">
          <mxGeometry x="1188" y="1147" width="180" height="150" as="geometry" />
        </mxCell>
        <mxCell id="rgU8As-WHPMnj6fXVGss-30" value="" style="shape=tableRow;horizontal=0;startSize=0;swimlaneHead=0;swimlaneBody=0;top=0;left=0;bottom=0;right=0;collapsible=0;dropTarget=0;fillColor=none;points=[[0,0.5],[1,0.5]];portConstraint=eastwest;strokeColor=inherit;fontSize=16;" vertex="1" parent="rgU8As-WHPMnj6fXVGss-29">
          <mxGeometry y="30" width="180" height="30" as="geometry" />
        </mxCell>
        <mxCell id="rgU8As-WHPMnj6fXVGss-31" value="" style="shape=partialRectangle;html=1;whiteSpace=wrap;connectable=0;fillColor=none;top=0;left=0;bottom=0;right=0;overflow=hidden;pointerEvents=1;strokeColor=inherit;fontSize=16;" vertex="1" parent="rgU8As-WHPMnj6fXVGss-30">
          <mxGeometry width="40" height="30" as="geometry">
            <mxRectangle width="40" height="30" as="alternateBounds" />
          </mxGeometry>
        </mxCell>
        <mxCell id="rgU8As-WHPMnj6fXVGss-32" value="Id" style="shape=partialRectangle;html=1;whiteSpace=wrap;connectable=0;fillColor=none;top=0;left=0;bottom=0;right=0;align=left;spacingLeft=6;overflow=hidden;strokeColor=inherit;fontSize=16;" vertex="1" parent="rgU8As-WHPMnj6fXVGss-30">
          <mxGeometry x="40" width="140" height="30" as="geometry">
            <mxRectangle width="140" height="30" as="alternateBounds" />
          </mxGeometry>
        </mxCell>
        <mxCell id="rgU8As-WHPMnj6fXVGss-33" value="" style="shape=tableRow;horizontal=0;startSize=0;swimlaneHead=0;swimlaneBody=0;top=0;left=0;bottom=0;right=0;collapsible=0;dropTarget=0;fillColor=none;points=[[0,0.5],[1,0.5]];portConstraint=eastwest;strokeColor=inherit;fontSize=16;" vertex="1" parent="rgU8As-WHPMnj6fXVGss-29">
          <mxGeometry y="60" width="180" height="30" as="geometry" />
        </mxCell>
        <mxCell id="rgU8As-WHPMnj6fXVGss-34" value="" style="shape=partialRectangle;html=1;whiteSpace=wrap;connectable=0;fillColor=none;top=0;left=0;bottom=0;right=0;overflow=hidden;strokeColor=inherit;fontSize=16;" vertex="1" parent="rgU8As-WHPMnj6fXVGss-33">
          <mxGeometry width="40" height="30" as="geometry">
            <mxRectangle width="40" height="30" as="alternateBounds" />
          </mxGeometry>
        </mxCell>
        <mxCell id="rgU8As-WHPMnj6fXVGss-35" value="Degree" style="shape=partialRectangle;html=1;whiteSpace=wrap;connectable=0;fillColor=none;top=0;left=0;bottom=0;right=0;align=left;spacingLeft=6;overflow=hidden;strokeColor=inherit;fontSize=16;" vertex="1" parent="rgU8As-WHPMnj6fXVGss-33">
          <mxGeometry x="40" width="140" height="30" as="geometry">
            <mxRectangle width="140" height="30" as="alternateBounds" />
          </mxGeometry>
        </mxCell>
        <mxCell id="rgU8As-WHPMnj6fXVGss-67" value="" style="shape=tableRow;horizontal=0;startSize=0;swimlaneHead=0;swimlaneBody=0;top=0;left=0;bottom=0;right=0;collapsible=0;dropTarget=0;fillColor=none;points=[[0,0.5],[1,0.5]];portConstraint=eastwest;strokeColor=inherit;fontSize=16;" vertex="1" parent="rgU8As-WHPMnj6fXVGss-29">
          <mxGeometry y="90" width="180" height="30" as="geometry" />
        </mxCell>
        <mxCell id="rgU8As-WHPMnj6fXVGss-68" value="" style="shape=partialRectangle;html=1;whiteSpace=wrap;connectable=0;fillColor=none;top=0;left=0;bottom=0;right=0;overflow=hidden;strokeColor=inherit;fontSize=16;" vertex="1" parent="rgU8As-WHPMnj6fXVGss-67">
          <mxGeometry width="40" height="30" as="geometry">
            <mxRectangle width="40" height="30" as="alternateBounds" />
          </mxGeometry>
        </mxCell>
        <mxCell id="rgU8As-WHPMnj6fXVGss-69" value="CourseId" style="shape=partialRectangle;html=1;whiteSpace=wrap;connectable=0;fillColor=none;top=0;left=0;bottom=0;right=0;align=left;spacingLeft=6;overflow=hidden;strokeColor=inherit;fontSize=16;" vertex="1" parent="rgU8As-WHPMnj6fXVGss-67">
          <mxGeometry x="40" width="140" height="30" as="geometry">
            <mxRectangle width="140" height="30" as="alternateBounds" />
          </mxGeometry>
        </mxCell>
        <mxCell id="rgU8As-WHPMnj6fXVGss-70" value="" style="shape=tableRow;horizontal=0;startSize=0;swimlaneHead=0;swimlaneBody=0;top=0;left=0;bottom=0;right=0;collapsible=0;dropTarget=0;fillColor=none;points=[[0,0.5],[1,0.5]];portConstraint=eastwest;strokeColor=inherit;fontSize=16;" vertex="1" parent="rgU8As-WHPMnj6fXVGss-29">
          <mxGeometry y="120" width="180" height="30" as="geometry" />
        </mxCell>
        <mxCell id="rgU8As-WHPMnj6fXVGss-71" value="" style="shape=partialRectangle;html=1;whiteSpace=wrap;connectable=0;fillColor=none;top=0;left=0;bottom=0;right=0;overflow=hidden;strokeColor=inherit;fontSize=16;" vertex="1" parent="rgU8As-WHPMnj6fXVGss-70">
          <mxGeometry width="40" height="30" as="geometry">
            <mxRectangle width="40" height="30" as="alternateBounds" />
          </mxGeometry>
        </mxCell>
        <mxCell id="rgU8As-WHPMnj6fXVGss-72" value="TraineeId" style="shape=partialRectangle;html=1;whiteSpace=wrap;connectable=0;fillColor=none;top=0;left=0;bottom=0;right=0;align=left;spacingLeft=6;overflow=hidden;strokeColor=inherit;fontSize=16;" vertex="1" parent="rgU8As-WHPMnj6fXVGss-70">
          <mxGeometry x="40" width="140" height="30" as="geometry">
            <mxRectangle width="140" height="30" as="alternateBounds" />
          </mxGeometry>
        </mxCell>
        <mxCell id="rgU8As-WHPMnj6fXVGss-45" value="Instructor" style="shape=table;startSize=30;container=1;collapsible=0;childLayout=tableLayout;fixedRows=1;rowLines=0;fontStyle=0;strokeColor=default;fontSize=16;" vertex="1" parent="1">
          <mxGeometry x="1188" y="728" width="180" height="240" as="geometry" />
        </mxCell>
        <mxCell id="rgU8As-WHPMnj6fXVGss-46" value="" style="shape=tableRow;horizontal=0;startSize=0;swimlaneHead=0;swimlaneBody=0;top=0;left=0;bottom=0;right=0;collapsible=0;dropTarget=0;fillColor=none;points=[[0,0.5],[1,0.5]];portConstraint=eastwest;strokeColor=inherit;fontSize=16;" vertex="1" parent="rgU8As-WHPMnj6fXVGss-45">
          <mxGeometry y="30" width="180" height="30" as="geometry" />
        </mxCell>
        <mxCell id="rgU8As-WHPMnj6fXVGss-47" value="" style="shape=partialRectangle;html=1;whiteSpace=wrap;connectable=0;fillColor=none;top=0;left=0;bottom=0;right=0;overflow=hidden;pointerEvents=1;strokeColor=inherit;fontSize=16;" vertex="1" parent="rgU8As-WHPMnj6fXVGss-46">
          <mxGeometry width="40" height="30" as="geometry">
            <mxRectangle width="40" height="30" as="alternateBounds" />
          </mxGeometry>
        </mxCell>
        <mxCell id="rgU8As-WHPMnj6fXVGss-48" value="Id" style="shape=partialRectangle;html=1;whiteSpace=wrap;connectable=0;fillColor=none;top=0;left=0;bottom=0;right=0;align=left;spacingLeft=6;overflow=hidden;strokeColor=inherit;fontSize=16;" vertex="1" parent="rgU8As-WHPMnj6fXVGss-46">
          <mxGeometry x="40" width="140" height="30" as="geometry">
            <mxRectangle width="140" height="30" as="alternateBounds" />
          </mxGeometry>
        </mxCell>
        <mxCell id="rgU8As-WHPMnj6fXVGss-49" value="" style="shape=tableRow;horizontal=0;startSize=0;swimlaneHead=0;swimlaneBody=0;top=0;left=0;bottom=0;right=0;collapsible=0;dropTarget=0;fillColor=none;points=[[0,0.5],[1,0.5]];portConstraint=eastwest;strokeColor=inherit;fontSize=16;" vertex="1" parent="rgU8As-WHPMnj6fXVGss-45">
          <mxGeometry y="60" width="180" height="30" as="geometry" />
        </mxCell>
        <mxCell id="rgU8As-WHPMnj6fXVGss-50" value="" style="shape=partialRectangle;html=1;whiteSpace=wrap;connectable=0;fillColor=none;top=0;left=0;bottom=0;right=0;overflow=hidden;strokeColor=inherit;fontSize=16;" vertex="1" parent="rgU8As-WHPMnj6fXVGss-49">
          <mxGeometry width="40" height="30" as="geometry">
            <mxRectangle width="40" height="30" as="alternateBounds" />
          </mxGeometry>
        </mxCell>
        <mxCell id="rgU8As-WHPMnj6fXVGss-51" value="Name" style="shape=partialRectangle;html=1;whiteSpace=wrap;connectable=0;fillColor=none;top=0;left=0;bottom=0;right=0;align=left;spacingLeft=6;overflow=hidden;strokeColor=inherit;fontSize=16;" vertex="1" parent="rgU8As-WHPMnj6fXVGss-49">
          <mxGeometry x="40" width="140" height="30" as="geometry">
            <mxRectangle width="140" height="30" as="alternateBounds" />
          </mxGeometry>
        </mxCell>
        <mxCell id="rgU8As-WHPMnj6fXVGss-52" value="" style="shape=tableRow;horizontal=0;startSize=0;swimlaneHead=0;swimlaneBody=0;top=0;left=0;bottom=0;right=0;collapsible=0;dropTarget=0;fillColor=none;points=[[0,0.5],[1,0.5]];portConstraint=eastwest;strokeColor=inherit;fontSize=16;" vertex="1" parent="rgU8As-WHPMnj6fXVGss-45">
          <mxGeometry y="90" width="180" height="30" as="geometry" />
        </mxCell>
        <mxCell id="rgU8As-WHPMnj6fXVGss-53" value="" style="shape=partialRectangle;html=1;whiteSpace=wrap;connectable=0;fillColor=none;top=0;left=0;bottom=0;right=0;overflow=hidden;strokeColor=inherit;fontSize=16;" vertex="1" parent="rgU8As-WHPMnj6fXVGss-52">
          <mxGeometry width="40" height="30" as="geometry">
            <mxRectangle width="40" height="30" as="alternateBounds" />
          </mxGeometry>
        </mxCell>
        <mxCell id="rgU8As-WHPMnj6fXVGss-54" value="image" style="shape=partialRectangle;html=1;whiteSpace=wrap;connectable=0;fillColor=none;top=0;left=0;bottom=0;right=0;align=left;spacingLeft=6;overflow=hidden;strokeColor=inherit;fontSize=16;" vertex="1" parent="rgU8As-WHPMnj6fXVGss-52">
          <mxGeometry x="40" width="140" height="30" as="geometry">
            <mxRectangle width="140" height="30" as="alternateBounds" />
          </mxGeometry>
        </mxCell>
        <mxCell id="rgU8As-WHPMnj6fXVGss-55" value="" style="shape=tableRow;horizontal=0;startSize=0;swimlaneHead=0;swimlaneBody=0;top=0;left=0;bottom=0;right=0;collapsible=0;dropTarget=0;fillColor=none;points=[[0,0.5],[1,0.5]];portConstraint=eastwest;strokeColor=inherit;fontSize=16;" vertex="1" parent="rgU8As-WHPMnj6fXVGss-45">
          <mxGeometry y="120" width="180" height="30" as="geometry" />
        </mxCell>
        <mxCell id="rgU8As-WHPMnj6fXVGss-56" value="" style="shape=partialRectangle;html=1;whiteSpace=wrap;connectable=0;fillColor=none;top=0;left=0;bottom=0;right=0;overflow=hidden;strokeColor=inherit;fontSize=16;" vertex="1" parent="rgU8As-WHPMnj6fXVGss-55">
          <mxGeometry width="40" height="30" as="geometry">
            <mxRectangle width="40" height="30" as="alternateBounds" />
          </mxGeometry>
        </mxCell>
        <mxCell id="rgU8As-WHPMnj6fXVGss-57" value="Salary" style="shape=partialRectangle;html=1;whiteSpace=wrap;connectable=0;fillColor=none;top=0;left=0;bottom=0;right=0;align=left;spacingLeft=6;overflow=hidden;strokeColor=inherit;fontSize=16;" vertex="1" parent="rgU8As-WHPMnj6fXVGss-55">
          <mxGeometry x="40" width="140" height="30" as="geometry">
            <mxRectangle width="140" height="30" as="alternateBounds" />
          </mxGeometry>
        </mxCell>
        <mxCell id="rgU8As-WHPMnj6fXVGss-58" value="" style="shape=tableRow;horizontal=0;startSize=0;swimlaneHead=0;swimlaneBody=0;top=0;left=0;bottom=0;right=0;collapsible=0;dropTarget=0;fillColor=none;points=[[0,0.5],[1,0.5]];portConstraint=eastwest;strokeColor=inherit;fontSize=16;" vertex="1" parent="rgU8As-WHPMnj6fXVGss-45">
          <mxGeometry y="150" width="180" height="30" as="geometry" />
        </mxCell>
        <mxCell id="rgU8As-WHPMnj6fXVGss-59" value="" style="shape=partialRectangle;html=1;whiteSpace=wrap;connectable=0;fillColor=none;top=0;left=0;bottom=0;right=0;overflow=hidden;strokeColor=inherit;fontSize=16;" vertex="1" parent="rgU8As-WHPMnj6fXVGss-58">
          <mxGeometry width="40" height="30" as="geometry">
            <mxRectangle width="40" height="30" as="alternateBounds" />
          </mxGeometry>
        </mxCell>
        <mxCell id="rgU8As-WHPMnj6fXVGss-60" value="Address" style="shape=partialRectangle;html=1;whiteSpace=wrap;connectable=0;fillColor=none;top=0;left=0;bottom=0;right=0;align=left;spacingLeft=6;overflow=hidden;strokeColor=inherit;fontSize=16;" vertex="1" parent="rgU8As-WHPMnj6fXVGss-58">
          <mxGeometry x="40" width="140" height="30" as="geometry">
            <mxRectangle width="140" height="30" as="alternateBounds" />
          </mxGeometry>
        </mxCell>
        <mxCell id="rgU8As-WHPMnj6fXVGss-61" value="" style="shape=tableRow;horizontal=0;startSize=0;swimlaneHead=0;swimlaneBody=0;top=0;left=0;bottom=0;right=0;collapsible=0;dropTarget=0;fillColor=none;points=[[0,0.5],[1,0.5]];portConstraint=eastwest;strokeColor=inherit;fontSize=16;" vertex="1" parent="rgU8As-WHPMnj6fXVGss-45">
          <mxGeometry y="180" width="180" height="30" as="geometry" />
        </mxCell>
        <mxCell id="rgU8As-WHPMnj6fXVGss-62" value="" style="shape=partialRectangle;html=1;whiteSpace=wrap;connectable=0;fillColor=none;top=0;left=0;bottom=0;right=0;overflow=hidden;strokeColor=inherit;fontSize=16;" vertex="1" parent="rgU8As-WHPMnj6fXVGss-61">
          <mxGeometry width="40" height="30" as="geometry">
            <mxRectangle width="40" height="30" as="alternateBounds" />
          </mxGeometry>
        </mxCell>
        <mxCell id="rgU8As-WHPMnj6fXVGss-63" value="DeptId" style="shape=partialRectangle;html=1;whiteSpace=wrap;connectable=0;fillColor=none;top=0;left=0;bottom=0;right=0;align=left;spacingLeft=6;overflow=hidden;strokeColor=inherit;fontSize=16;" vertex="1" parent="rgU8As-WHPMnj6fXVGss-61">
          <mxGeometry x="40" width="140" height="30" as="geometry">
            <mxRectangle width="140" height="30" as="alternateBounds" />
          </mxGeometry>
        </mxCell>
        <mxCell id="rgU8As-WHPMnj6fXVGss-64" value="" style="shape=tableRow;horizontal=0;startSize=0;swimlaneHead=0;swimlaneBody=0;top=0;left=0;bottom=0;right=0;collapsible=0;dropTarget=0;fillColor=none;points=[[0,0.5],[1,0.5]];portConstraint=eastwest;strokeColor=inherit;fontSize=16;" vertex="1" parent="rgU8As-WHPMnj6fXVGss-45">
          <mxGeometry y="210" width="180" height="30" as="geometry" />
        </mxCell>
        <mxCell id="rgU8As-WHPMnj6fXVGss-65" value="" style="shape=partialRectangle;html=1;whiteSpace=wrap;connectable=0;fillColor=none;top=0;left=0;bottom=0;right=0;overflow=hidden;strokeColor=inherit;fontSize=16;" vertex="1" parent="rgU8As-WHPMnj6fXVGss-64">
          <mxGeometry width="40" height="30" as="geometry">
            <mxRectangle width="40" height="30" as="alternateBounds" />
          </mxGeometry>
        </mxCell>
        <mxCell id="rgU8As-WHPMnj6fXVGss-66" value="CourseId" style="shape=partialRectangle;html=1;whiteSpace=wrap;connectable=0;fillColor=none;top=0;left=0;bottom=0;right=0;align=left;spacingLeft=6;overflow=hidden;strokeColor=inherit;fontSize=16;" vertex="1" parent="rgU8As-WHPMnj6fXVGss-64">
          <mxGeometry x="40" width="140" height="30" as="geometry">
            <mxRectangle width="140" height="30" as="alternateBounds" />
          </mxGeometry>
        </mxCell>
        <mxCell id="rgU8As-WHPMnj6fXVGss-73" value="Trainee" style="shape=table;startSize=30;container=1;collapsible=0;childLayout=tableLayout;fixedRows=1;rowLines=0;fontStyle=0;strokeColor=default;fontSize=16;" vertex="1" parent="1">
          <mxGeometry x="826" y="1228" width="180" height="210" as="geometry" />
        </mxCell>
        <mxCell id="rgU8As-WHPMnj6fXVGss-74" value="" style="shape=tableRow;horizontal=0;startSize=0;swimlaneHead=0;swimlaneBody=0;top=0;left=0;bottom=0;right=0;collapsible=0;dropTarget=0;fillColor=none;points=[[0,0.5],[1,0.5]];portConstraint=eastwest;strokeColor=inherit;fontSize=16;" vertex="1" parent="rgU8As-WHPMnj6fXVGss-73">
          <mxGeometry y="30" width="180" height="30" as="geometry" />
        </mxCell>
        <mxCell id="rgU8As-WHPMnj6fXVGss-75" value="" style="shape=partialRectangle;html=1;whiteSpace=wrap;connectable=0;fillColor=none;top=0;left=0;bottom=0;right=0;overflow=hidden;pointerEvents=1;strokeColor=inherit;fontSize=16;" vertex="1" parent="rgU8As-WHPMnj6fXVGss-74">
          <mxGeometry width="40" height="30" as="geometry">
            <mxRectangle width="40" height="30" as="alternateBounds" />
          </mxGeometry>
        </mxCell>
        <mxCell id="rgU8As-WHPMnj6fXVGss-76" value="Id" style="shape=partialRectangle;html=1;whiteSpace=wrap;connectable=0;fillColor=none;top=0;left=0;bottom=0;right=0;align=left;spacingLeft=6;overflow=hidden;strokeColor=inherit;fontSize=16;" vertex="1" parent="rgU8As-WHPMnj6fXVGss-74">
          <mxGeometry x="40" width="140" height="30" as="geometry">
            <mxRectangle width="140" height="30" as="alternateBounds" />
          </mxGeometry>
        </mxCell>
        <mxCell id="rgU8As-WHPMnj6fXVGss-77" value="" style="shape=tableRow;horizontal=0;startSize=0;swimlaneHead=0;swimlaneBody=0;top=0;left=0;bottom=0;right=0;collapsible=0;dropTarget=0;fillColor=none;points=[[0,0.5],[1,0.5]];portConstraint=eastwest;strokeColor=inherit;fontSize=16;" vertex="1" parent="rgU8As-WHPMnj6fXVGss-73">
          <mxGeometry y="60" width="180" height="30" as="geometry" />
        </mxCell>
        <mxCell id="rgU8As-WHPMnj6fXVGss-78" value="" style="shape=partialRectangle;html=1;whiteSpace=wrap;connectable=0;fillColor=none;top=0;left=0;bottom=0;right=0;overflow=hidden;strokeColor=inherit;fontSize=16;" vertex="1" parent="rgU8As-WHPMnj6fXVGss-77">
          <mxGeometry width="40" height="30" as="geometry">
            <mxRectangle width="40" height="30" as="alternateBounds" />
          </mxGeometry>
        </mxCell>
        <mxCell id="rgU8As-WHPMnj6fXVGss-79" value="Name" style="shape=partialRectangle;html=1;whiteSpace=wrap;connectable=0;fillColor=none;top=0;left=0;bottom=0;right=0;align=left;spacingLeft=6;overflow=hidden;strokeColor=inherit;fontSize=16;" vertex="1" parent="rgU8As-WHPMnj6fXVGss-77">
          <mxGeometry x="40" width="140" height="30" as="geometry">
            <mxRectangle width="140" height="30" as="alternateBounds" />
          </mxGeometry>
        </mxCell>
        <mxCell id="rgU8As-WHPMnj6fXVGss-86" value="" style="shape=tableRow;horizontal=0;startSize=0;swimlaneHead=0;swimlaneBody=0;top=0;left=0;bottom=0;right=0;collapsible=0;dropTarget=0;fillColor=none;points=[[0,0.5],[1,0.5]];portConstraint=eastwest;strokeColor=inherit;fontSize=16;" vertex="1" parent="rgU8As-WHPMnj6fXVGss-73">
          <mxGeometry y="90" width="180" height="30" as="geometry" />
        </mxCell>
        <mxCell id="rgU8As-WHPMnj6fXVGss-87" value="" style="shape=partialRectangle;html=1;whiteSpace=wrap;connectable=0;fillColor=none;top=0;left=0;bottom=0;right=0;overflow=hidden;strokeColor=inherit;fontSize=16;" vertex="1" parent="rgU8As-WHPMnj6fXVGss-86">
          <mxGeometry width="40" height="30" as="geometry">
            <mxRectangle width="40" height="30" as="alternateBounds" />
          </mxGeometry>
        </mxCell>
        <mxCell id="rgU8As-WHPMnj6fXVGss-88" value="Image" style="shape=partialRectangle;html=1;whiteSpace=wrap;connectable=0;fillColor=none;top=0;left=0;bottom=0;right=0;align=left;spacingLeft=6;overflow=hidden;strokeColor=inherit;fontSize=16;" vertex="1" parent="rgU8As-WHPMnj6fXVGss-86">
          <mxGeometry x="40" width="140" height="30" as="geometry">
            <mxRectangle width="140" height="30" as="alternateBounds" />
          </mxGeometry>
        </mxCell>
        <mxCell id="rgU8As-WHPMnj6fXVGss-89" value="" style="shape=tableRow;horizontal=0;startSize=0;swimlaneHead=0;swimlaneBody=0;top=0;left=0;bottom=0;right=0;collapsible=0;dropTarget=0;fillColor=none;points=[[0,0.5],[1,0.5]];portConstraint=eastwest;strokeColor=inherit;fontSize=16;" vertex="1" parent="rgU8As-WHPMnj6fXVGss-73">
          <mxGeometry y="120" width="180" height="30" as="geometry" />
        </mxCell>
        <mxCell id="rgU8As-WHPMnj6fXVGss-90" value="" style="shape=partialRectangle;html=1;whiteSpace=wrap;connectable=0;fillColor=none;top=0;left=0;bottom=0;right=0;overflow=hidden;strokeColor=inherit;fontSize=16;" vertex="1" parent="rgU8As-WHPMnj6fXVGss-89">
          <mxGeometry width="40" height="30" as="geometry">
            <mxRectangle width="40" height="30" as="alternateBounds" />
          </mxGeometry>
        </mxCell>
        <mxCell id="rgU8As-WHPMnj6fXVGss-91" value="Address" style="shape=partialRectangle;html=1;whiteSpace=wrap;connectable=0;fillColor=none;top=0;left=0;bottom=0;right=0;align=left;spacingLeft=6;overflow=hidden;strokeColor=inherit;fontSize=16;" vertex="1" parent="rgU8As-WHPMnj6fXVGss-89">
          <mxGeometry x="40" width="140" height="30" as="geometry">
            <mxRectangle width="140" height="30" as="alternateBounds" />
          </mxGeometry>
        </mxCell>
        <mxCell id="rgU8As-WHPMnj6fXVGss-92" value="" style="shape=tableRow;horizontal=0;startSize=0;swimlaneHead=0;swimlaneBody=0;top=0;left=0;bottom=0;right=0;collapsible=0;dropTarget=0;fillColor=none;points=[[0,0.5],[1,0.5]];portConstraint=eastwest;strokeColor=inherit;fontSize=16;" vertex="1" parent="rgU8As-WHPMnj6fXVGss-73">
          <mxGeometry y="150" width="180" height="30" as="geometry" />
        </mxCell>
        <mxCell id="rgU8As-WHPMnj6fXVGss-93" value="" style="shape=partialRectangle;html=1;whiteSpace=wrap;connectable=0;fillColor=none;top=0;left=0;bottom=0;right=0;overflow=hidden;strokeColor=inherit;fontSize=16;" vertex="1" parent="rgU8As-WHPMnj6fXVGss-92">
          <mxGeometry width="40" height="30" as="geometry">
            <mxRectangle width="40" height="30" as="alternateBounds" />
          </mxGeometry>
        </mxCell>
        <mxCell id="rgU8As-WHPMnj6fXVGss-94" value="Grade" style="shape=partialRectangle;html=1;whiteSpace=wrap;connectable=0;fillColor=none;top=0;left=0;bottom=0;right=0;align=left;spacingLeft=6;overflow=hidden;strokeColor=inherit;fontSize=16;" vertex="1" parent="rgU8As-WHPMnj6fXVGss-92">
          <mxGeometry x="40" width="140" height="30" as="geometry">
            <mxRectangle width="140" height="30" as="alternateBounds" />
          </mxGeometry>
        </mxCell>
        <mxCell id="rgU8As-WHPMnj6fXVGss-95" value="" style="shape=tableRow;horizontal=0;startSize=0;swimlaneHead=0;swimlaneBody=0;top=0;left=0;bottom=0;right=0;collapsible=0;dropTarget=0;fillColor=none;points=[[0,0.5],[1,0.5]];portConstraint=eastwest;strokeColor=inherit;fontSize=16;" vertex="1" parent="rgU8As-WHPMnj6fXVGss-73">
          <mxGeometry y="180" width="180" height="30" as="geometry" />
        </mxCell>
        <mxCell id="rgU8As-WHPMnj6fXVGss-96" value="" style="shape=partialRectangle;html=1;whiteSpace=wrap;connectable=0;fillColor=none;top=0;left=0;bottom=0;right=0;overflow=hidden;strokeColor=inherit;fontSize=16;" vertex="1" parent="rgU8As-WHPMnj6fXVGss-95">
          <mxGeometry width="40" height="30" as="geometry">
            <mxRectangle width="40" height="30" as="alternateBounds" />
          </mxGeometry>
        </mxCell>
        <mxCell id="rgU8As-WHPMnj6fXVGss-97" value="DeptID" style="shape=partialRectangle;html=1;whiteSpace=wrap;connectable=0;fillColor=none;top=0;left=0;bottom=0;right=0;align=left;spacingLeft=6;overflow=hidden;strokeColor=inherit;fontSize=16;" vertex="1" parent="rgU8As-WHPMnj6fXVGss-95">
          <mxGeometry x="40" width="140" height="30" as="geometry">
            <mxRectangle width="140" height="30" as="alternateBounds" />
          </mxGeometry>
        </mxCell>
        <mxCell id="rgU8As-WHPMnj6fXVGss-98" value="Department" style="shape=table;startSize=30;container=1;collapsible=0;childLayout=tableLayout;fixedRows=1;rowLines=0;fontStyle=0;strokeColor=default;fontSize=16;" vertex="1" parent="1">
          <mxGeometry x="492" y="962" width="180" height="120" as="geometry" />
        </mxCell>
        <mxCell id="rgU8As-WHPMnj6fXVGss-99" value="" style="shape=tableRow;horizontal=0;startSize=0;swimlaneHead=0;swimlaneBody=0;top=0;left=0;bottom=0;right=0;collapsible=0;dropTarget=0;fillColor=none;points=[[0,0.5],[1,0.5]];portConstraint=eastwest;strokeColor=inherit;fontSize=16;" vertex="1" parent="rgU8As-WHPMnj6fXVGss-98">
          <mxGeometry y="30" width="180" height="30" as="geometry" />
        </mxCell>
        <mxCell id="rgU8As-WHPMnj6fXVGss-100" value="" style="shape=partialRectangle;html=1;whiteSpace=wrap;connectable=0;fillColor=none;top=0;left=0;bottom=0;right=0;overflow=hidden;pointerEvents=1;strokeColor=inherit;fontSize=16;" vertex="1" parent="rgU8As-WHPMnj6fXVGss-99">
          <mxGeometry width="40" height="30" as="geometry">
            <mxRectangle width="40" height="30" as="alternateBounds" />
          </mxGeometry>
        </mxCell>
        <mxCell id="rgU8As-WHPMnj6fXVGss-101" value="Id" style="shape=partialRectangle;html=1;whiteSpace=wrap;connectable=0;fillColor=none;top=0;left=0;bottom=0;right=0;align=left;spacingLeft=6;overflow=hidden;strokeColor=inherit;fontSize=16;" vertex="1" parent="rgU8As-WHPMnj6fXVGss-99">
          <mxGeometry x="40" width="140" height="30" as="geometry">
            <mxRectangle width="140" height="30" as="alternateBounds" />
          </mxGeometry>
        </mxCell>
        <mxCell id="rgU8As-WHPMnj6fXVGss-102" value="" style="shape=tableRow;horizontal=0;startSize=0;swimlaneHead=0;swimlaneBody=0;top=0;left=0;bottom=0;right=0;collapsible=0;dropTarget=0;fillColor=none;points=[[0,0.5],[1,0.5]];portConstraint=eastwest;strokeColor=inherit;fontSize=16;" vertex="1" parent="rgU8As-WHPMnj6fXVGss-98">
          <mxGeometry y="60" width="180" height="30" as="geometry" />
        </mxCell>
        <mxCell id="rgU8As-WHPMnj6fXVGss-103" value="" style="shape=partialRectangle;html=1;whiteSpace=wrap;connectable=0;fillColor=none;top=0;left=0;bottom=0;right=0;overflow=hidden;strokeColor=inherit;fontSize=16;" vertex="1" parent="rgU8As-WHPMnj6fXVGss-102">
          <mxGeometry width="40" height="30" as="geometry">
            <mxRectangle width="40" height="30" as="alternateBounds" />
          </mxGeometry>
        </mxCell>
        <mxCell id="rgU8As-WHPMnj6fXVGss-104" value="Name" style="shape=partialRectangle;html=1;whiteSpace=wrap;connectable=0;fillColor=none;top=0;left=0;bottom=0;right=0;align=left;spacingLeft=6;overflow=hidden;strokeColor=inherit;fontSize=16;" vertex="1" parent="rgU8As-WHPMnj6fXVGss-102">
          <mxGeometry x="40" width="140" height="30" as="geometry">
            <mxRectangle width="140" height="30" as="alternateBounds" />
          </mxGeometry>
        </mxCell>
        <mxCell id="rgU8As-WHPMnj6fXVGss-105" value="" style="shape=tableRow;horizontal=0;startSize=0;swimlaneHead=0;swimlaneBody=0;top=0;left=0;bottom=0;right=0;collapsible=0;dropTarget=0;fillColor=none;points=[[0,0.5],[1,0.5]];portConstraint=eastwest;strokeColor=inherit;fontSize=16;" vertex="1" parent="rgU8As-WHPMnj6fXVGss-98">
          <mxGeometry y="90" width="180" height="30" as="geometry" />
        </mxCell>
        <mxCell id="rgU8As-WHPMnj6fXVGss-106" value="" style="shape=partialRectangle;html=1;whiteSpace=wrap;connectable=0;fillColor=none;top=0;left=0;bottom=0;right=0;overflow=hidden;strokeColor=inherit;fontSize=16;" vertex="1" parent="rgU8As-WHPMnj6fXVGss-105">
          <mxGeometry width="40" height="30" as="geometry">
            <mxRectangle width="40" height="30" as="alternateBounds" />
          </mxGeometry>
        </mxCell>
        <mxCell id="rgU8As-WHPMnj6fXVGss-107" value="Manager" style="shape=partialRectangle;html=1;whiteSpace=wrap;connectable=0;fillColor=none;top=0;left=0;bottom=0;right=0;align=left;spacingLeft=6;overflow=hidden;strokeColor=inherit;fontSize=16;" vertex="1" parent="rgU8As-WHPMnj6fXVGss-105">
          <mxGeometry x="40" width="140" height="30" as="geometry">
            <mxRectangle width="140" height="30" as="alternateBounds" />
          </mxGeometry>
        </mxCell>
        <mxCell id="rgU8As-WHPMnj6fXVGss-114" style="edgeStyle=orthogonalEdgeStyle;rounded=0;orthogonalLoop=1;jettySize=auto;html=1;entryX=0;entryY=0.5;entryDx=0;entryDy=0;fontSize=12;startSize=8;endSize=8;elbow=vertical;startArrow=ERone;startFill=0;endArrow=ERmany;endFill=0;" edge="1" parent="1" source="rgU8As-WHPMnj6fXVGss-4" target="rgU8As-WHPMnj6fXVGss-67">
          <mxGeometry relative="1" as="geometry" />
        </mxCell>
        <mxCell id="rgU8As-WHPMnj6fXVGss-116" style="edgeStyle=orthogonalEdgeStyle;shape=connector;rounded=0;orthogonalLoop=1;jettySize=auto;html=1;entryX=0;entryY=0.5;entryDx=0;entryDy=0;strokeColor=default;align=center;verticalAlign=middle;fontFamily=Helvetica;fontSize=12;fontColor=default;labelBackgroundColor=default;elbow=vertical;startArrow=ERone;startFill=0;startSize=8;endArrow=ERmany;endFill=0;endSize=8;" edge="1" parent="1" source="rgU8As-WHPMnj6fXVGss-99" target="rgU8As-WHPMnj6fXVGss-26">
          <mxGeometry relative="1" as="geometry" />
        </mxCell>
        <mxCell id="rgU8As-WHPMnj6fXVGss-117" style="edgeStyle=orthogonalEdgeStyle;shape=connector;rounded=0;orthogonalLoop=1;jettySize=auto;html=1;entryX=0;entryY=0.5;entryDx=0;entryDy=0;strokeColor=default;align=center;verticalAlign=middle;fontFamily=Helvetica;fontSize=12;fontColor=default;labelBackgroundColor=default;elbow=vertical;startArrow=ERone;startFill=0;startSize=8;endArrow=ERmany;endFill=0;endSize=8;" edge="1" parent="1" source="rgU8As-WHPMnj6fXVGss-74" target="rgU8As-WHPMnj6fXVGss-70">
          <mxGeometry relative="1" as="geometry" />
        </mxCell>
        <mxCell id="rgU8As-WHPMnj6fXVGss-119" style="edgeStyle=orthogonalEdgeStyle;shape=connector;rounded=0;orthogonalLoop=1;jettySize=auto;html=1;strokeColor=default;align=center;verticalAlign=middle;fontFamily=Helvetica;fontSize=12;fontColor=default;labelBackgroundColor=default;elbow=vertical;startArrow=ERone;startFill=0;startSize=8;endArrow=ERmany;endFill=0;endSize=8;" edge="1" parent="1" source="rgU8As-WHPMnj6fXVGss-4" target="rgU8As-WHPMnj6fXVGss-64">
          <mxGeometry relative="1" as="geometry" />
        </mxCell>
        <mxCell id="rgU8As-WHPMnj6fXVGss-120" style="edgeStyle=orthogonalEdgeStyle;shape=connector;rounded=0;orthogonalLoop=1;jettySize=auto;html=1;strokeColor=default;align=center;verticalAlign=middle;fontFamily=Helvetica;fontSize=12;fontColor=default;labelBackgroundColor=default;elbow=vertical;startArrow=ERone;startFill=0;startSize=8;endArrow=ERmany;endFill=0;endSize=8;flowAnimation=0;shadow=0;" edge="1" parent="1" source="rgU8As-WHPMnj6fXVGss-99" target="rgU8As-WHPMnj6fXVGss-61">
          <mxGeometry relative="1" as="geometry">
            <Array as="points">
              <mxPoint x="732" y="1007" />
              <mxPoint x="732" y="1052" />
              <mxPoint x="930" y="1052" />
              <mxPoint x="930" y="1089" />
              <mxPoint x="1160" y="1089" />
              <mxPoint x="1160" y="923" />
            </Array>
          </mxGeometry>
        </mxCell>
      </root>
    </mxGraphModel>
  </diagram>
</mxfile>
